<svg xmlns="http://www.w3.org/2000/svg" xmlns:xlink="http://www.w3.org/1999/xlink" width="1108.728" height="390.414" viewBox="0 0 1108.728 390.414">
  <defs>
    <clipPath id="clip-path">
      <rect id="Rectángulo_26610" data-name="Rectángulo 26610" width="1108.728" height="390.414" fill="none"/>
    </clipPath>
  </defs>
  <g id="Grupo_90680" data-name="Grupo 90680" transform="translate(-246 -4847.293)">
    <g id="Grupo_89441" data-name="Grupo 89441" transform="translate(246 4847.293)">
      <g id="Grupo_89440" data-name="Grupo 89440" clip-path="url(#clip-path)">
        <path id="Trazado_153307" data-name="Trazado 153307" d="M817.651,390.414H579.091a21.266,21.266,0,0,1-21.266-21.266V319.971H798.608a19.043,19.043,0,0,1,19.043,19.044Z" fill="#43efd4"/>
      </g>
    </g>
    <path id="Trazado_154771" data-name="Trazado 154771" d="M16.3-8.545a10.807,10.807,0,0,1-.934,4.635A7.037,7.037,0,0,1,12.695-.836,7.4,7.4,0,0,1,8.7.246,7.448,7.448,0,0,1,4.734-.824a7.106,7.106,0,0,1-2.7-3.055,10.5,10.5,0,0,1-.971-4.568v-.885a10.75,10.75,0,0,1,.953-4.654A7.1,7.1,0,0,1,4.7-17.072,7.407,7.407,0,0,1,8.68-18.148a7.407,7.407,0,0,1,3.977,1.076,7.1,7.1,0,0,1,2.693,3.086A10.719,10.719,0,0,1,16.3-9.344Zm-3.738-.811a7.533,7.533,0,0,0-1.008-4.279A3.286,3.286,0,0,0,8.68-15.1a3.287,3.287,0,0,0-2.865,1.445A7.447,7.447,0,0,0,4.8-9.418v.873A7.628,7.628,0,0,0,5.8-4.291,3.277,3.277,0,0,0,8.7-2.779a3.248,3.248,0,0,0,2.852-1.457,7.583,7.583,0,0,0,1.008-4.248Zm18.16,2.828A7.979,7.979,0,0,1,29.33-1.6,4.474,4.474,0,0,1,25.561.246a4.144,4.144,0,0,1-3.258-1.4v6.27H18.75V-13.3h3.3l.123,1.3a4.176,4.176,0,0,1,3.369-1.549,4.5,4.5,0,0,1,3.824,1.82,8.2,8.2,0,0,1,1.365,5.016ZM27.172-6.8a5.265,5.265,0,0,0-.658-2.874A2.141,2.141,0,0,0,24.6-10.684,2.326,2.326,0,0,0,22.3-9.4v5.463a2.365,2.365,0,0,0,2.324,1.32Q27.172-2.619,27.172-6.8ZM39.049.246a6.531,6.531,0,0,1-4.764-1.8,6.381,6.381,0,0,1-1.838-4.783v-.344a8.036,8.036,0,0,1,.775-3.584,5.685,5.685,0,0,1,2.195-2.434,6.16,6.16,0,0,1,3.24-.855,5.521,5.521,0,0,1,4.3,1.721A6.994,6.994,0,0,1,44.52-6.947V-5.5H36.049a3.3,3.3,0,0,0,1.039,2.09,3.141,3.141,0,0,0,2.195.787,3.835,3.835,0,0,0,3.209-1.488l1.746,1.955A5.334,5.334,0,0,1,42.074-.387,7.1,7.1,0,0,1,39.049.246Zm-.406-10.93a2.22,2.22,0,0,0-1.715.716,3.709,3.709,0,0,0-.842,2.05h4.943V-8.2a2.645,2.645,0,0,0-.639-1.834A2.291,2.291,0,0,0,38.643-10.684Zm15.369.713a9.653,9.653,0,0,0-1.279-.1A2.6,2.6,0,0,0,50.09-8.7V0H46.537V-13.3h3.357l.1,1.586a3.292,3.292,0,0,1,2.963-1.832,3.723,3.723,0,0,1,1.107.16ZM63.061,0A3.946,3.946,0,0,1,62.7-1.193,4.3,4.3,0,0,1,59.348.246a4.723,4.723,0,0,1-3.24-1.131,3.638,3.638,0,0,1-1.285-2.852,3.759,3.759,0,0,1,1.568-3.246,7.735,7.735,0,0,1,4.531-1.143h1.635v-.762a2.192,2.192,0,0,0-.473-1.475,1.862,1.862,0,0,0-1.494-.553,2.117,2.117,0,0,0-1.408.43,1.462,1.462,0,0,0-.51,1.18H55.119a3.569,3.569,0,0,1,.713-2.139,4.714,4.714,0,0,1,2.016-1.543,7.349,7.349,0,0,1,2.926-.559,5.806,5.806,0,0,1,3.9,1.236A4.323,4.323,0,0,1,66.123-8.84v5.766a6.36,6.36,0,0,0,.529,2.865V0ZM60.123-2.471a3.06,3.06,0,0,0,1.451-.35,2.3,2.3,0,0,0,.984-.941V-6.049H61.229q-2.668,0-2.84,1.844L58.377-4A1.423,1.423,0,0,0,58.844-2.9,1.815,1.815,0,0,0,60.123-2.471Zm12.984-14.1v3.27h2.275V-10.7H73.106v6.639A1.585,1.585,0,0,0,73.389-3a1.42,1.42,0,0,0,1.082.32,5.666,5.666,0,0,0,1.045-.086V-.074a7.315,7.315,0,0,1-2.152.32q-3.738,0-3.811-3.775V-10.7H67.611V-13.3h1.943v-3.27ZM81.111,0H77.545V-13.3h3.566ZM77.336-16.746a1.75,1.75,0,0,1,.535-1.316,2.009,2.009,0,0,1,1.457-.516,2.014,2.014,0,0,1,1.451.516,1.74,1.74,0,0,1,.541,1.316,1.744,1.744,0,0,1-.547,1.328,2.019,2.019,0,0,1-1.445.516,2.019,2.019,0,0,1-1.445-.516A1.744,1.744,0,0,1,77.336-16.746ZM89.016-4.34,91.488-13.3H95.2L90.713,0H87.32L82.832-13.3h3.713ZM104.085,0a3.946,3.946,0,0,1-.357-1.193A4.3,4.3,0,0,1,100.372.246a4.723,4.723,0,0,1-3.24-1.131,3.638,3.638,0,0,1-1.285-2.852,3.759,3.759,0,0,1,1.568-3.246,7.735,7.735,0,0,1,4.531-1.143h1.635v-.762a2.192,2.192,0,0,0-.473-1.475,1.862,1.862,0,0,0-1.494-.553,2.117,2.117,0,0,0-1.408.43,1.462,1.462,0,0,0-.51,1.18H96.143a3.569,3.569,0,0,1,.713-2.139,4.714,4.714,0,0,1,2.016-1.543,7.349,7.349,0,0,1,2.926-.559,5.806,5.806,0,0,1,3.9,1.236,4.323,4.323,0,0,1,1.445,3.473v5.766a6.36,6.36,0,0,0,.529,2.865V0Zm-2.939-2.471a3.06,3.06,0,0,0,1.451-.35,2.3,2.3,0,0,0,.984-.941V-6.049h-1.328q-2.668,0-2.84,1.844L99.4-4A1.423,1.423,0,0,0,99.868-2.9,1.815,1.815,0,0,0,101.147-2.471Z" transform="translate(880.758 5209.211)" fill="#003680"/>
    <g id="Grupo_89443" data-name="Grupo 89443" transform="translate(246 4847.293)">
      <g id="Grupo_89442" data-name="Grupo 89442" clip-path="url(#clip-path)">
        <path id="Trazado_153308" data-name="Trazado 153308" d="M1087.9,263.853c0,.006,0,.266,0,.381v.027h0a118.228,118.228,0,0,1-69.372,107.574c-.09.041-.177.085-.266.126-1.6.724-3.231,1.4-4.871,2.051-.307.122-.607.256-.915.376-1.485.576-2.991,1.105-4.5,1.623-.481.165-.955.343-1.439.5-1.39.456-2.8.866-4.212,1.271-.624.179-1.243.371-1.871.54-1.312.353-2.641.663-3.971.971-.75.174-1.494.359-2.25.518-1.243.262-2.5.486-3.758.708-.861.153-1.718.313-2.585.448-1.184.182-2.379.329-3.575.476-.961.118-1.921.241-2.889.336-1.124.11-2.256.188-3.39.266-1.058.073-2.115.147-3.181.192s-2.15.061-3.228.078c-1.142.017-2.283.03-3.431.015-1.027-.014-2.056-.053-3.088-.093-1.218-.048-2.439-.1-3.666-.189-.4-.027-.79-.029-1.19-.061-.743-.059-1.477-.155-2.216-.228-.606-.059-1.205-.086-1.812-.153-.205-.023-.4-.071-.606-.1-2.622-.315-5.213-.729-7.782-1.216-.936-.176-1.87-.353-2.8-.551q-3.277-.707-6.487-1.6-1.945-.534-3.862-1.133-2.355-.741-4.667-1.582-2.736-.981-5.406-2.093c-.161-.068-.319-.141-.48-.209A118.648,118.648,0,0,1,855.738,294.8c-.075-.275-.143-.553-.216-.829q-1.05-4.053-1.815-8.205-.316-1.708-.58-3.432c-.152-1.005-.381-1.985-.507-3a122.378,122.378,0,0,1-.911-12.409c-.458-20.62-12.27-39.271-31.1-47.694a52.7,52.7,0,0,0-55.958,8.379,118.71,118.71,0,0,1-17.992,12.749l-.028.016q-2.367,1.368-4.8,2.627l-.445.227q-2.246,1.15-4.546,2.207c-.222.1-.444.2-.666.3q-2.229,1.008-4.508,1.923c-.246.1-.491.2-.738.3q-2.305.911-4.657,1.722c-.219.076-.436.157-.656.232q-2.536.862-5.124,1.612c-.089.026-.177.055-.266.081a117.2,117.2,0,0,1-16.9,3.52c-.481.065-.966.108-1.448.166-1.386.167-2.776.32-4.176.438-.671.057-1.349.094-2.024.139-1.219.082-2.44.154-3.67.2-.78.028-1.564.04-2.349.053-.642.011-1.279.044-1.924.044-.478,0-.95-.028-1.427-.034q-1.389-.017-2.784-.067-1.509-.052-3.008-.144c-.562-.033-1.119-.039-1.682-.08-.542-.04-1.076-.109-1.616-.156q-.871-.078-1.737-.168-2-.205-3.981-.477c-.452-.063-.9-.127-1.353-.2q-2.073-.311-4.125-.694c-.431-.081-.862-.162-1.292-.247q-2-.4-3.977-.866c-.483-.113-.965-.225-1.446-.344q-1.808-.451-3.591-.96c-.6-.171-1.208-.34-1.807-.52-1.011-.3-2.013-.628-3.012-.958-.771-.254-1.541-.506-2.3-.776s-1.518-.556-2.273-.841c-.988-.372-1.974-.746-2.949-1.143-.462-.188-.918-.388-1.377-.583-1.243-.524-2.48-1.06-3.7-1.626-.119-.055-.234-.114-.352-.169a118.515,118.515,0,0,1-29.817-19.9c-13.5-12.347-33.318-14.932-50.022-7.46l-6.274,2.808a47.458,47.458,0,0,0-28.08,43.383v.3A118.249,118.249,0,0,1,392.066,381.607c-53.593-6.009-96.929-48.756-103.6-102.271a122.386,122.386,0,0,1-.911-12.409c-.457-20.62-12.27-39.271-31.1-47.694a52.154,52.154,0,0,0-55.506,7.947,117.673,117.673,0,0,1-86.27,28.663C57.166,251.626,10.391,205.176,5.811,147.687A118.239,118.239,0,0,1,133.11,20.323C190.733,24.885,237.258,71.837,241.346,129.5q.21,2.962.275,5.9c.456,20.619,12.27,39.269,31.267,47.768l.873.39a50.663,50.663,0,0,0,54.1-8.1,117.872,117.872,0,0,1,157.389,1.641c13.505,12.347,33.319,14.932,50.022,7.459l6.275-2.806a47.46,47.46,0,0,0,28.077-43.328,117.567,117.567,0,0,1,28.99-77.789l.034-.041q1.848-2.12,3.794-4.146c.093-.1.184-.2.278-.294q1.86-1.927,3.806-3.768c.162-.154.324-.309.488-.462q1.879-1.762,3.836-3.44.332-.287.666-.569,1.906-1.615,3.882-3.149c.272-.211.544-.419.817-.627q1.941-1.482,3.942-2.885c.312-.219.628-.433.943-.649q1.981-1.357,4.012-2.64c.348-.218.7-.428,1.051-.644,1.348-.826,2.708-1.634,4.091-2.407.374-.21.754-.408,1.131-.613,1.383-.754,2.774-1.491,4.19-2.19.388-.192.782-.37,1.173-.557,1.422-.683,2.851-1.353,4.3-1.98.4-.171.8-.325,1.2-.492,1.469-.615,2.944-1.219,4.443-1.775.358-.134.724-.249,1.083-.379,1.558-.56,3.12-1.11,4.707-1.606.192-.06.39-.109.584-.169a117.069,117.069,0,0,1,15.92-3.69c.466-.075.925-.172,1.394-.241,1.147-.169,2.309-.286,3.466-.422.967-.114,1.929-.247,2.9-.338,1.019-.094,2.049-.143,3.074-.211,1.133-.075,2.264-.163,3.406-.206.952-.035,1.914-.032,2.872-.044,1.229-.017,2.457-.039,3.7-.017.915.016,1.837.065,2.757.1.957.038,1.907.046,2.869.107.375.024.744.07,1.119.1.241.018.479.018.72.038.562.044,1.114.119,1.673.171.946.089,1.891.179,2.831.29.891.106,1.777.233,2.663.359.866.123,1.733.245,2.593.388.944.156,1.88.334,2.816.513.8.152,1.593.3,2.384.47.979.208,1.95.439,2.921.672.735.176,1.472.35,2.2.541,1.005.262,2,.547,3,.835.689.2,1.378.4,2.062.607,1.008.313,2.007.648,3,.987.66.225,1.321.444,1.976.68,1,.359,1.984.741,2.97,1.127.643.251,1.287.5,1.924.76.966.4,1.919.817,2.872,1.24.648.286,1.3.569,1.941.868.91.424,1.807.867,2.7,1.313.673.334,1.347.663,2.013,1.009.839.438,1.666.894,2.494,1.35.707.39,1.416.777,2.115,1.18.753.436,1.493.889,2.236,1.341.758.461,1.517.919,2.264,1.4.65.416,1.289.848,1.931,1.275.822.549,1.643,1.1,2.451,1.664.533.375,1.056.763,1.582,1.147.9.653,1.793,1.309,2.672,1.986.407.314.8.639,1.207.958.98.776,1.954,1.558,2.908,2.363.277.234.545.474.818.709,1.064.914,2.117,1.84,3.148,2.791.146.135.287.273.432.408q1.718,1.6,3.376,3.263c.018.019.036.038.055.056a117.556,117.556,0,0,1,34,73.74q.255,3.321.328,6.607c.457,20.621,12.268,39.273,31.1,47.7a52.219,52.219,0,0,0,53.252-6.128c.618-.494,1.243-.976,1.843-1.5a118.762,118.762,0,0,1,13.98-10.515c.023-.016.047-.03.07-.045q2.293-1.478,4.658-2.847l.334-.193q2.25-1.3,4.561-2.495l.483-.251q2.268-1.162,4.592-2.229c.178-.082.354-.166.533-.247q2.367-1.074,4.789-2.043c.138-.056.273-.114.411-.169q2.6-1.029,5.245-1.939l.06-.023a117.064,117.064,0,0,1,16.8-4.381c.232-.043.47-.074.7-.115,1.612-.284,3.232-.542,4.866-.76.546-.073,1.1-.126,1.645-.192,1.328-.158,2.66-.306,4-.419.705-.06,1.413-.1,2.121-.148,1.193-.079,2.387-.15,3.589-.193.809-.03,1.622-.044,2.436-.057.632-.01,1.258-.044,1.893-.044.474,0,.942.029,1.414.034.931.01,1.864.035,2.8.067q1.5.053,2.992.143c.562.033,1.118.039,1.683.08.547.04,1.086.11,1.631.158q.867.076,1.728.167,2,.2,3.981.477c.454.063.907.127,1.36.195q2.076.311,4.13.7c.426.08.851.16,1.276.244q2.01.4,3.995.869c.477.112.954.223,1.429.341q1.816.453,3.611.965c.6.169,1.192.336,1.783.512,1.017.306,2.024.632,3.03.964.766.253,1.532.5,2.291.772s1.529.56,2.29.847c.979.368,1.956.739,2.923,1.132.471.192.936.4,1.4.6,1.237.522,2.468,1.055,3.683,1.618.116.053.23.111.345.165a120.857,120.857,0,0,1,29.833,19.906l.053.05s17.732,13.262,26.372,33.565c13.913,32.7,12.076,53.144,12.076,53.144" fill="#43efd4"/>
        <path id="Trazado_153309" data-name="Trazado 153309" d="M123.539,50.774a87.282,87.282,0,1,1-87.282,87.282,87.283,87.283,0,0,1,87.282-87.282" fill="#fff"/>
        <line id="Línea_214" data-name="Línea 214" transform="translate(405.639 142.749)" fill="none" stroke="#22786a" stroke-linecap="round" stroke-miterlimit="10" stroke-width="2"/>
        <line id="Línea_215" data-name="Línea 215" y1="51.467" transform="translate(405.639 87.165)" fill="none" stroke="#22786a" stroke-linecap="round" stroke-miterlimit="10" stroke-width="2" stroke-dasharray="0 4.117"/>
        <line id="Línea_216" data-name="Línea 216" transform="translate(405.639 85.106)" fill="none" stroke="#22786a" stroke-linecap="round" stroke-miterlimit="10" stroke-width="2"/>
        <line id="Línea_217" data-name="Línea 217" transform="translate(969.838 143.224)" fill="none" stroke="#22786a" stroke-linecap="round" stroke-miterlimit="10" stroke-width="2"/>
        <line id="Línea_218" data-name="Línea 218" y1="52.305" transform="translate(969.838 87.044)" fill="none" stroke="#22786a" stroke-linecap="round" stroke-miterlimit="10" stroke-width="2" stroke-dasharray="0 3.874"/>
        <line id="Línea_219" data-name="Línea 219" transform="translate(969.838 85.106)" fill="none" stroke="#22786a" stroke-linecap="round" stroke-miterlimit="10" stroke-width="2"/>
        <line id="Línea_220" data-name="Línea 220" transform="translate(123.54 259.25)" fill="none" stroke="#22786a" stroke-linecap="round" stroke-miterlimit="10" stroke-width="2"/>
        <line id="Línea_221" data-name="Línea 221" y2="51.746" transform="translate(123.54 263.39)" fill="none" stroke="#22786a" stroke-linecap="round" stroke-miterlimit="10" stroke-width="2" stroke-dasharray="0 4.14"/>
        <line id="Línea_222" data-name="Línea 222" transform="translate(123.54 317.206)" fill="none" stroke="#22786a" stroke-linecap="round" stroke-miterlimit="10" stroke-width="2"/>
        <line id="Línea_223" data-name="Línea 223" transform="translate(687.738 258.914)" fill="none" stroke="#22786a" stroke-linecap="round" stroke-miterlimit="10" stroke-width="2"/>
        <line id="Línea_224" data-name="Línea 224" y2="52.463" transform="translate(687.738 262.8)" fill="none" stroke="#22786a" stroke-linecap="round" stroke-miterlimit="10" stroke-width="2" stroke-dasharray="0 3.886"/>
        <line id="Línea_225" data-name="Línea 225" transform="translate(687.738 317.206)" fill="none" stroke="#22786a" stroke-linecap="round" stroke-miterlimit="10" stroke-width="2"/>
        <path id="Trazado_153310" data-name="Trazado 153310" d="M492.921,264.258a87.283,87.283,0,1,1-87.282-87.282,87.282,87.282,0,0,1,87.282,87.282" fill="#fff"/>
        <path id="Trazado_153311" data-name="Trazado 153311" d="M773.869,123.925a87.282,87.282,0,1,1-100.262-72,87.281,87.281,0,0,1,100.262,72" fill="#fff"/>
        <path id="Trazado_153312" data-name="Trazado 153312" d="M1057.12,264.258a87.282,87.282,0,1,1-87.282-87.282,87.281,87.281,0,0,1,87.282,87.282" fill="#fff"/>
        <path id="Trazado_153313" data-name="Trazado 153313" d="M68.915,93.535c.981-2.854,3.056-3.9,5.965-3.749,2.014.1,4.037.007,6.056.024,1.308.011,2.058.626,2.069,1.64s-.751,1.649-2.035,1.656c-2.275.012-4.551,0-6.827.007-1.459.006-1.921.461-1.921,1.9q-.006,33.537,0,67.074c0,1.56.442,1.934,2.22,1.934h85.344c.367,0,.735-.01,1.1,0,1.207.042,1.9.671,1.881,1.685a1.644,1.644,0,0,1-1.852,1.607c-2.716.025-5.432.008-8.149.009h-1.5c0,.9,0,1.762,0,2.623,0,3.439-1.343,4.772-4.812,4.773q-7.048,0-14.1,0h-1.37c.251.51.418.863.6,1.212q3.38,6.609,6.761,13.218c.183.358.508.766.451,1.1a3.174,3.174,0,0,1-.726,1.762,1.361,1.361,0,0,1-1.97-.238,5.165,5.165,0,0,1-.684-1.12c-2.562-4.989-5.135-9.973-7.658-14.983a1.521,1.521,0,0,0-1.605-.964q-8.039.053-16.077,0a1.516,1.516,0,0,0-1.6.964c-2.519,5.011-5.094,9.994-7.654,14.985a6.835,6.835,0,0,1-.544.954,1.517,1.517,0,0,1-2.051.483,1.491,1.491,0,0,1-.8-1.945,7.016,7.016,0,0,1,.455-1q3.378-6.61,6.761-13.218c.164-.322.314-.65.551-1.142-.5-.026-.872-.061-1.247-.062q-7.158,0-14.316,0c-3.313,0-4.644-1.353-4.645-4.7,0-.842,0-1.684,0-2.7h-1.2c-2.973,0-5.95-.091-8.918.026-2.918.114-4.983-.907-5.952-3.768Zm79.046,73.873H88.291v2.378c0,1.633,0,1.635,1.615,1.635h56.378c.257,0,.515-.011.771,0,.647.023.931-.27.913-.929-.027-.989-.007-1.979-.007-3.083" fill="#003680"/>
        <path id="Trazado_153314" data-name="Trazado 153314" d="M171.373,149.166c3.081,5.335,6.131,10.6,9.164,15.876a6.369,6.369,0,0,1,.658,5.983,6.247,6.247,0,0,1-11.069,1.038c-1.048-1.635-1.973-3.348-2.945-5.03-2.056-3.556-4.12-7.105-6.145-10.678a1.212,1.212,0,0,0-1.513-.767,21.56,21.56,0,1,1,17.449-24.083,20.845,20.845,0,0,1-4.489,16.3c-.338.433-.694.851-1.11,1.361M155.56,116.12a18.276,18.276,0,1,0,18.32,18.024c.025-9.779-8.378-18.046-18.32-18.024m8.249,38.363c.1.2.179.4.287.586q4.256,7.379,8.518,14.753c.844,1.456,2.013,2.08,3.315,1.811,2.178-.45,3.058-2.626,1.857-4.726-2.71-4.739-5.452-9.459-8.182-14.186-.236-.409-.475-.814-.7-1.2l-5.1,2.958" fill="#003680"/>
        <path id="Trazado_153315" data-name="Trazado 153315" d="M121.922,121.923a5.871,5.871,0,0,1,4.913-1.346,1.208,1.208,0,0,0,.968-.436c2.762-3.8,5.471-7.635,8.238-11.429.443-.607.138-.971-.092-1.473a5.3,5.3,0,0,1,.517-5.715,5.16,5.16,0,0,1,5.319-2.136,5.243,5.243,0,0,1,4.339,3.895A5.474,5.474,0,0,1,140,110.2a1.209,1.209,0,0,0-1.428.585q-3.94,5.571-7.946,11.1a1.21,1.21,0,0,0-.1,1.54,5.383,5.383,0,0,1-.777,6.24,5.545,5.545,0,0,1-6.044,1.433,5.37,5.37,0,0,1-3.469-5.238,1.477,1.477,0,0,0-.911-1.623c-1.5-.774-2.927-1.677-4.422-2.456a1.356,1.356,0,0,0-1.143.043,5.534,5.534,0,0,1-6.5-.025,1.232,1.232,0,0,0-1.049-.051c-1.588.839-3.119,1.788-4.712,2.616-.662.344-.681.795-.671,1.424a5.476,5.476,0,0,1-8.828,4.509,5.472,5.472,0,0,1,6.387-8.879,1.2,1.2,0,0,0,1.54.083c1.442-.875,2.915-1.7,4.4-2.5a1.186,1.186,0,0,0,.741-1.272,5.482,5.482,0,0,1,5.5-5.868,5.588,5.588,0,0,1,5.466,5.947,1.469,1.469,0,0,0,.592,1.085c1.721,1.049,3.491,2.016,5.292,3.039m-11.383-6.752a2.252,2.252,0,0,0-2.188,2.18,2.184,2.184,0,0,0,4.368.014,2.258,2.258,0,0,0-2.18-2.194m28.163-10.44a2.182,2.182,0,0,0,2.1,2.234,2.186,2.186,0,0,0,.1-4.37,2.2,2.2,0,0,0-2.205,2.136m-13.061,23.4a2.225,2.225,0,0,0,2.245-2.113,2.273,2.273,0,0,0-2.138-2.24,2.22,2.22,0,0,0-2.219,2.133,2.159,2.159,0,0,0,2.112,2.22m-28.1-2.187a2.244,2.244,0,0,0-2.2-2.167,2.28,2.28,0,0,0-2.168,2.209,2.215,2.215,0,0,0,2.21,2.143,2.185,2.185,0,0,0,2.155-2.185" fill="#003680"/>
        <path id="Trazado_153316" data-name="Trazado 153316" d="M108.97,89.759c0-1.133-.025-2.156,0-3.177a3.971,3.971,0,0,1,4-4.106q5.172-.118,10.35.008a4,4,0,0,1,3.946,4.061c.035,1.025.006,2.052.006,3.26h1.3q16.575,0,33.148,0c3.8,0,5.6,1.8,5.6,5.6q0,6.939,0,13.878a7.179,7.179,0,0,1-.019.881,1.676,1.676,0,0,1-1.705,1.661,1.614,1.614,0,0,1-1.568-1.764c-.025-2.937-.01-5.875-.012-8.812,0-1.982,0-3.965,0-5.947,0-1.786-.41-2.187-2.214-2.187H96.179c-2.532,0-5.064,0-7.6,0-1.456,0-2.271-.623-2.241-1.683.03-1.024.819-1.616,2.215-1.617q9.691-.009,19.383,0c.29,0,.579-.024,1.032-.044m15.008.008c0-1.065,0-2.013,0-2.961,0-.664-.306-1.05-.985-1.052-3.26-.008-6.521-.023-9.78.03a1.178,1.178,0,0,0-.882.72c-.1,1.072-.042,2.159-.042,3.263Z" fill="#003680"/>
        <path id="Trazado_153317" data-name="Trazado 153317" d="M115.552,144.721q0,5.342,0,10.682c0,1.9-.537,2.431-2.417,2.436-1.835,0-3.67.016-5.505,0-1.475-.016-2.1-.612-2.107-2.073q-.022-11.121,0-22.243c0-1.441.645-2.034,2.132-2.052,1.835-.022,3.67-.011,5.505,0s2.385.552,2.39,2.357c.009,3.633,0,7.267,0,10.9m-6.637,9.736h3.253v-19.63h-3.253Z" fill="#003680"/>
        <path id="Trazado_153318" data-name="Trazado 153318" d="M130.7,148.9q0,3.081,0,6.161c0,2.366-.4,2.774-2.723,2.775-1.687,0-3.374.009-5.06,0-1.625-.011-2.225-.586-2.229-2.167q-.015-6.822,0-13.644c0-1.481.583-2.069,2.063-2.088,1.98-.025,3.961-.028,5.941,0,1.429.021,1.979.577,2,2.032.03,2.31.008,4.621.009,6.932m-6.619,5.549h3.229V143.3h-3.229Z" fill="#003680"/>
        <path id="Trazado_153319" data-name="Trazado 153319" d="M100.392,148.941c0,2.2.007,4.4,0,6.6-.007,1.73-.577,2.288-2.332,2.295-1.834.008-3.667.012-5.5,0-1.563-.011-2.184-.572-2.192-2.094q-.036-6.878,0-13.754c.008-1.486.6-2.034,2.1-2.052,1.907-.022,3.814-.018,5.721,0,1.621.014,2.19.581,2.2,2.184.013,2.274,0,4.548,0,6.822m-6.63-5.637v11.154h3.253V143.236c-.835,0-1.6-.006-2.363,0-.286,0-.572.041-.89.065" fill="#003680"/>
        <path id="Trazado_153320" data-name="Trazado 153320" d="M139.166,154.536c1.647,0,3.142-.01,4.636,0,1.3.011,2.02.613,2.016,1.646s-.732,1.637-2.036,1.65q-2.91.028-5.82,0c-1.486-.014-2.079-.6-2.1-2.054q-.024-2.033,0-4.064c.013-1.282.638-2.024,1.66-2.013s1.615.752,1.637,2.052c.015.875,0,1.749,0,2.78" fill="#003680"/>
        <path id="Trazado_153321" data-name="Trazado 153321" d="M168.12,134.569c-.271-1.356-.523-2.716-.824-4.066-.111-.5-.367-.959-.507-1.451a1.62,1.62,0,0,1,.979-2.153,1.582,1.582,0,0,1,2.068.971,14.464,14.464,0,0,1,1.416,7.266,15.579,15.579,0,0,1-12.915,14.684c-8.481,1.774-17.453-4.827-18.293-13.459-.8-8.179,3.743-14.945,11.669-17.113a15.1,15.1,0,0,1,13.158,2.522,1.65,1.65,0,0,1,.554,2.309,1.59,1.59,0,0,1-2.407.38,12.908,12.908,0,0,0-7.843-2.43,12.363,12.363,0,0,0-1.055,24.633c7.341.843,13.487-4.524,14-12.093" fill="#003680"/>
        <path id="Trazado_153322" data-name="Trazado 153322" d="M259.826,382.369H21.266A21.266,21.266,0,0,1,0,361.1V311.926H240.783a19.043,19.043,0,0,1,19.043,19.044Z" fill="#43efd4"/>
      </g>
    </g>
    <path id="Trazado_154772" data-name="Trazado 154772" d="M12.369-7.783H5.287v4.82H13.6V0H1.6V-17.9H13.574v2.988H5.287v4.266h7.082ZM22.734-3.676A1.145,1.145,0,0,0,22.088-4.7a7.332,7.332,0,0,0-2.072-.67q-4.746-1-4.746-4.033a3.655,3.655,0,0,1,1.469-2.957,5.927,5.927,0,0,1,3.842-1.186,6.379,6.379,0,0,1,4.051,1.193,3.759,3.759,0,0,1,1.518,3.1H22.6a1.719,1.719,0,0,0-.492-1.26,2.081,2.081,0,0,0-1.537-.5,2.127,2.127,0,0,0-1.389.406,1.281,1.281,0,0,0-.492,1.033,1.1,1.1,0,0,0,.559.953A5.755,5.755,0,0,0,21.135-8a15.415,15.415,0,0,1,2.238.6q2.816,1.033,2.816,3.578A3.47,3.47,0,0,1,24.627-.879,6.736,6.736,0,0,1,20.594.246a7.035,7.035,0,0,1-2.969-.6A4.982,4.982,0,0,1,15.59-1.986a3.8,3.8,0,0,1-.738-2.244h3.369a1.855,1.855,0,0,0,.7,1.451,2.78,2.78,0,0,0,1.746.5,2.573,2.573,0,0,0,1.543-.387A1.205,1.205,0,0,0,22.734-3.676Zm10-12.9v3.27H35V-10.7H32.729v6.639A1.585,1.585,0,0,0,33.012-3a1.42,1.42,0,0,0,1.082.32,5.666,5.666,0,0,0,1.045-.086V-.074a7.315,7.315,0,0,1-2.152.32q-3.738,0-3.811-3.775V-10.7H27.234V-13.3h1.943v-3.27Zm11.729,6.6a9.653,9.653,0,0,0-1.279-.1A2.6,2.6,0,0,0,40.537-8.7V0H36.984V-13.3H40.34l.1,1.586A3.292,3.292,0,0,1,43.4-13.549a3.723,3.723,0,0,1,1.107.16ZM53.508,0a3.946,3.946,0,0,1-.357-1.193A4.3,4.3,0,0,1,49.8.246a4.723,4.723,0,0,1-3.24-1.131A3.638,3.638,0,0,1,45.27-3.738a3.759,3.759,0,0,1,1.568-3.246,7.735,7.735,0,0,1,4.531-1.143H53v-.762a2.192,2.192,0,0,0-.473-1.475,1.862,1.862,0,0,0-1.494-.553,2.117,2.117,0,0,0-1.408.43,1.462,1.462,0,0,0-.51,1.18H45.566a3.569,3.569,0,0,1,.713-2.139A4.714,4.714,0,0,1,48.3-12.99a7.349,7.349,0,0,1,2.926-.559,5.806,5.806,0,0,1,3.9,1.236A4.323,4.323,0,0,1,56.57-8.84v5.766A6.36,6.36,0,0,0,57.1-.209V0ZM50.57-2.471a3.06,3.06,0,0,0,1.451-.35A2.3,2.3,0,0,0,53-3.762V-6.049H51.676q-2.668,0-2.84,1.844L48.824-4A1.423,1.423,0,0,0,49.291-2.9,1.815,1.815,0,0,0,50.57-2.471Zm12.984-14.1v3.27h2.275V-10.7H63.553v6.639A1.585,1.585,0,0,0,63.836-3a1.42,1.42,0,0,0,1.082.32,5.666,5.666,0,0,0,1.045-.086V-.074a7.315,7.315,0,0,1-2.152.32Q60.074.246,60-3.529V-10.7H58.057V-13.3H60v-3.27ZM73.93.246a6.531,6.531,0,0,1-4.764-1.8,6.381,6.381,0,0,1-1.838-4.783v-.344A8.036,8.036,0,0,1,68.1-10.26,5.685,5.685,0,0,1,70.3-12.695a6.16,6.16,0,0,1,3.24-.855,5.521,5.521,0,0,1,4.3,1.721A6.994,6.994,0,0,1,79.4-6.947V-5.5H70.93a3.3,3.3,0,0,0,1.039,2.09,3.141,3.141,0,0,0,2.195.787,3.835,3.835,0,0,0,3.209-1.488l1.746,1.955A5.334,5.334,0,0,1,76.955-.387,7.1,7.1,0,0,1,73.93.246Zm-.406-10.93a2.22,2.22,0,0,0-1.715.716,3.709,3.709,0,0,0-.842,2.05H75.91V-8.2a2.645,2.645,0,0,0-.639-1.834A2.291,2.291,0,0,0,73.525-10.684Zm.32-8.2h3.873l-3.406,3.811H71.422ZM80.9-6.75a7.8,7.8,0,0,1,1.457-4.93,4.721,4.721,0,0,1,3.928-1.869,4.14,4.14,0,0,1,3.406,1.5L89.84-13.3h3.221V-.443a5.686,5.686,0,0,1-.793,3.037,5.093,5.093,0,0,1-2.232,1.967,7.845,7.845,0,0,1-3.369.676,7.3,7.3,0,0,1-2.852-.584,5.063,5.063,0,0,1-2.1-1.506L83.287.984a4.162,4.162,0,0,0,3.221,1.488,3.046,3.046,0,0,0,2.2-.756A2.836,2.836,0,0,0,89.5-.43v-.713A4.11,4.11,0,0,1,86.262.246a4.709,4.709,0,0,1-3.879-1.875A7.794,7.794,0,0,1,80.9-6.6Zm3.553.253A4.881,4.881,0,0,0,85.18-3.65a2.306,2.306,0,0,0,1.992,1.031A2.466,2.466,0,0,0,89.5-3.842v-5.62a2.46,2.46,0,0,0-2.3-1.223,2.32,2.32,0,0,0-2.01,1.05A5.5,5.5,0,0,0,84.455-6.5ZM99.541,0H95.975V-13.3h3.566ZM95.766-16.746a1.75,1.75,0,0,1,.535-1.316,2.009,2.009,0,0,1,1.457-.516,2.014,2.014,0,0,1,1.451.516,1.74,1.74,0,0,1,.541,1.316,1.744,1.744,0,0,1-.547,1.328,2.019,2.019,0,0,1-1.445.516,2.019,2.019,0,0,1-1.445-.516A1.744,1.744,0,0,1,95.766-16.746ZM108-2.619a2.331,2.331,0,0,0,1.6-.541,1.9,1.9,0,0,0,.639-1.439h3.332a4.558,4.558,0,0,1-.738,2.477,4.868,4.868,0,0,1-1.986,1.746,6.215,6.215,0,0,1-2.785.621,5.775,5.775,0,0,1-4.5-1.814,7.177,7.177,0,0,1-1.648-5.01v-.234a7.094,7.094,0,0,1,1.635-4.906,5.708,5.708,0,0,1,4.488-1.832,5.6,5.6,0,0,1,4,1.42,5.028,5.028,0,0,1,1.531,3.781h-3.332a2.442,2.442,0,0,0-.639-1.687,2.132,2.132,0,0,0-1.623-.649,2.14,2.14,0,0,0-1.875.905,5.245,5.245,0,0,0-.633,2.937v.369a5.312,5.312,0,0,0,.627,2.955A2.167,2.167,0,0,0,108-2.619ZM123.307,0a3.946,3.946,0,0,1-.357-1.193A4.3,4.3,0,0,1,119.594.246a4.723,4.723,0,0,1-3.24-1.131,3.638,3.638,0,0,1-1.285-2.852,3.759,3.759,0,0,1,1.568-3.246,7.735,7.735,0,0,1,4.531-1.143H122.8v-.762a2.192,2.192,0,0,0-.473-1.475,1.862,1.862,0,0,0-1.494-.553,2.117,2.117,0,0,0-1.408.43,1.462,1.462,0,0,0-.51,1.18h-3.553a3.569,3.569,0,0,1,.713-2.139,4.714,4.714,0,0,1,2.016-1.543,7.349,7.349,0,0,1,2.926-.559,5.806,5.806,0,0,1,3.9,1.236,4.323,4.323,0,0,1,1.445,3.473v5.766A6.36,6.36,0,0,0,126.9-.209V0Zm-2.939-2.471a3.06,3.06,0,0,0,1.451-.35,2.3,2.3,0,0,0,.984-.941V-6.049h-1.328q-2.668,0-2.84,1.844L118.623-4A1.423,1.423,0,0,0,119.09-2.9,1.815,1.815,0,0,0,120.369-2.471Z" transform="translate(305.984 5209.531)" fill="#003680"/>
    <g id="Grupo_89445" data-name="Grupo 89445" transform="translate(246 4847.293)">
      <g id="Grupo_89444" data-name="Grupo 89444" clip-path="url(#clip-path)">
        <path id="Trazado_153323" data-name="Trazado 153323" d="M373.408,317.4a11.165,11.165,0,0,1-4.847-2.294,9.1,9.1,0,0,1-3.034-5.83,15.461,15.461,0,0,1-.074-1.815q0-40.271-.015-80.541c0-4.037,1.5-7.2,5.2-8.94a12,12,0,0,1,4.538-.934c3.346-.134,6.7-.056,10.053-.029a1.421,1.421,0,0,0,1.373-.737,6.022,6.022,0,0,1,4.974-2.879c1.459-.058,2.922-.067,4.383-.043a5.233,5.233,0,0,0,4.368-2.028,8.967,8.967,0,0,1,14.193,0,5.229,5.229,0,0,0,4.368,2.027c1.461-.024,2.924-.015,4.383.043a6.016,6.016,0,0,1,4.974,2.879,1.423,1.423,0,0,0,1.372.737c3.743-.01,7.491-.089,11.229.062a8.936,8.936,0,0,1,8.508,8.452q.042.639.042,1.282,0,40.377.011,80.755c0,4-1.57,7.035-5.17,8.876a19.723,19.723,0,0,1-2.8.956Zm12.01-89.443c-2.194,0-4.287,0-6.381,0-2.116,0-2.64.528-2.64,2.656q0,36.571,0,73.142c0,2.166.544,2.708,2.725,2.708h56.567c2.239,0,2.764-.529,2.764-2.776q0-36.465,0-72.929c0-.285.011-.571,0-.855a1.83,1.83,0,0,0-1.955-1.938c-1.247-.033-2.495-.009-3.743-.01h-3.318c0,.475,0,.794,0,1.113.016,1.642-.682,2.621-2.581,2.567-3.526-.1-7.057-.028-10.586-.028q-14.275,0-28.551,0a2,2,0,0,1-2.292-2.178c-.027-.453-.005-.908-.005-1.473m-.032-7.249c-.4-.019-.75-.049-1.1-.049q-4.547-.006-9.091,0c-3.911.01-6.091,2.182-6.091,6.085q0,40.483,0,80.966c0,3.816,2.229,6.044,6.044,6.045q32.3.006,64.6,0c3.747,0,5.989-2.242,5.99-5.99q.008-40.59,0-81.179c0-3.692-2.226-5.906-5.927-5.924-3.137-.015-6.275-.005-9.412,0-.308,0-.615.042-.939.066v3.584c2.222,0,4.387,0,6.551,0,3.9.01,6.083,2.191,6.084,6.094q0,36.793,0,73.586c0,3.889-2.215,6.117-6.088,6.118q-28.611.007-57.222-.009a7.978,7.978,0,0,1-2.112-.258c-2.5-.694-3.923-2.826-3.924-5.8q0-36.846,0-73.692c0-.25,0-.5.012-.749a5.411,5.411,0,0,1,5.27-5.274c1.246-.045,2.5-.017,3.743-.019,1.2,0,2.4,0,3.61,0Zm40.238,7.156c0-2.67.006-5.262,0-7.855a2.754,2.754,0,0,0-2.973-3c-1.317-.023-2.635-.01-3.953-.005a8.376,8.376,0,0,1-6.816-3.159c-2.625-3.151-6.294-3.136-8.934.028a8.332,8.332,0,0,1-6.721,3.13c-1.461,0-2.922-.023-4.381.027a2.6,2.6,0,0,0-2.564,2.16c-.084,2.871-.027,5.745-.027,8.672Z" fill="#003680"/>
        <path id="Trazado_153324" data-name="Trazado 153324" d="M417.6,249.437c-1.06,1.1-2.115,2.205-3.183,3.3a1.846,1.846,0,0,1-2.4.484c-1.163-.654-1.242-1.962-.159-3.064,1.949-1.984,3.927-3.94,5.892-5.908,2.371-2.374,2.55-2.374,4.925,0,1.99,1.993,3.986,3.98,5.968,5.982a1.822,1.822,0,0,1,.41,2.331,1.607,1.607,0,0,1-2,.818,3.544,3.544,0,0,1-1.291-.893c-1.3-1.261-2.561-2.559-3.965-3.97-.246,1.076-.411,1.97-.655,2.842-3.252,11.614-10.784,18.807-22.49,21.585a33.92,33.92,0,0,1-5.514.589,1.82,1.82,0,0,1-2.129-1.743,1.874,1.874,0,0,1,2.052-1.869,24.927,24.927,0,0,0,9.07-1.778c8.4-3.483,13.56-9.729,15.729-18.487l-.254-.22" fill="#003680"/>
        <path id="Trazado_153325" data-name="Trazado 153325" d="M390.991,245.452l4.6-4.608q.451-.454.907-.906c1.2-1.19,2.186-1.352,3.057-.506s.738,1.872-.443,3.054c-1.811,1.813-3.633,3.615-5.745,5.715.769.632,1.518,1.173,2.178,1.806q2.006,1.921,3.927,3.93a1.78,1.78,0,0,1,.091,2.667,1.828,1.828,0,0,1-2.671-.129c-1.951-1.923-3.864-3.884-5.87-5.908l-3.9,3.91c-.578.58-1.154,1.164-1.739,1.737-1.079,1.057-2.182,1.185-2.979.356-.773-.8-.649-1.875.369-2.906q2.026-2.055,4.083-4.078c.507-.5,1.071-.934,1.68-1.46-1.949-1.945-3.735-3.721-5.513-5.505a5.355,5.355,0,0,1-.836-.962,1.679,1.679,0,0,1,.279-2.235,1.582,1.582,0,0,1,2.147-.216,14.4,14.4,0,0,1,1.65,1.508c1.562,1.549,3.11,3.113,4.729,4.736" fill="#003680"/>
        <path id="Trazado_153326" data-name="Trazado 153326" d="M392.8,282.73a7.281,7.281,0,1,1,.032,14.562,7.281,7.281,0,0,1-.032-14.562m.16,3.646a3.637,3.637,0,0,0-.285,7.269,3.637,3.637,0,1,0,.285-7.269" fill="#003680"/>
        <path id="Trazado_153327" data-name="Trazado 153327" d="M422.079,268.133a7.29,7.29,0,0,1-.042,14.579,7.29,7.29,0,1,1,.042-14.579m3.572,7.3a3.578,3.578,0,0,0-3.547-3.642,3.656,3.656,0,0,0-3.731,3.6,3.734,3.734,0,0,0,3.688,3.678,3.659,3.659,0,0,0,3.59-3.636" fill="#003680"/>
        <path id="Trazado_153328" data-name="Trazado 153328" d="M427.527,297.923c-.821.869-1.457,1.59-2.143,2.259a1.868,1.868,0,0,1-2.823.2,1.817,1.817,0,0,1,.234-2.737c.7-.7,1.473-1.331,2.357-2.12-.928-.858-1.688-1.505-2.383-2.215a1.829,1.829,0,1,1,2.564-2.566c.713.685,1.364,1.435,2.161,2.282.807-.844,1.469-1.58,2.18-2.267a1.828,1.828,0,0,1,2.746-.2,1.883,1.883,0,0,1-.161,2.753c-.339.365-.694.716-1.055,1.059s-.739.667-1.3,1.169c.841.755,1.611,1.385,2.308,2.088a1.837,1.837,0,1,1-2.571,2.559c-.683-.671-1.311-1.4-2.115-2.26" fill="#003680"/>
        <path id="Trazado_153329" data-name="Trazado 153329" d="M407.424,226.1c-.57,0-1.14.016-1.708,0a3.533,3.533,0,0,1-3.729-3.46,26.711,26.711,0,0,1,.025-4.157,3.517,3.517,0,0,1,3.546-3.313c1.243-.052,2.492-.052,3.736,0a3.517,3.517,0,0,1,3.544,3.315,26.836,26.836,0,0,1,.025,4.157,3.533,3.533,0,0,1-3.731,3.458c-.569.017-1.139,0-1.708,0m-1.763-3.712h3.519v-3.549h-3.519Z" fill="#003680"/>
        <path id="Trazado_153330" data-name="Trazado 153330" d="M742.434,146.172c-.869,2.557-2.68,3.587-5.335,3.437-1.734-.1-3.478-.019-5.147-.019-.727,2.035-1.345,4-2.131,5.9-.774,1.868-1.717,3.666-2.644,5.617.147.162.366.424.606.666,1.23,1.237,2.485,2.45,3.694,3.707a4.181,4.181,0,0,1,.044,6.117q-5.083,5.187-10.273,10.267a4.162,4.162,0,0,1-6.038-.036c-1.491-1.426-2.942-2.894-4.413-4.342-.023-.023-.064-.029.2.085l-11.716,4.842c0,1.766.008,3.756,0,5.747a4.294,4.294,0,0,1-4.622,4.582q-6.942.012-13.885,0a4.278,4.278,0,0,1-4.563-4.532c-.011-1.992,0-3.984,0-5.818l-11.669-4.825c-1.128,1.132-2.474,2.49-3.828,3.839-2.3,2.3-4.663,2.3-6.964,0q-4.76-4.755-9.514-9.517c-2.1-2.106-2.084-4.536.02-6.655q1.994-2.009,3.994-4.01a.711.711,0,0,0,.1-.152c-.893-1.87-1.855-3.692-2.642-5.587s-1.4-3.868-2.115-5.886c-1.931,0-3.921.006-5.912,0a4.29,4.29,0,0,1-4.624-4.578q-.013-6.942,0-13.883a4.288,4.288,0,0,1,4.6-4.606c1.922-.009,3.845-.009,5.767-.015.068,0,.136-.034-.035.011l4.836-11.685c-1.191-1.185-2.58-2.56-3.959-3.946-2.108-2.118-2.122-4.55-.027-6.654q4.824-4.844,9.667-9.667c2.114-2.106,4.544-2.107,6.658-.011,1.387,1.376,2.759,2.768,4.081,4.1,1.958-.93,3.784-1.887,5.681-2.673s3.86-1.4,5.891-2.127c0-1.709.074-3.488-.018-5.259a4.693,4.693,0,0,1,3.436-5.221h16.238c2.559.865,3.585,2.678,3.436,5.329-.1,1.733-.018,3.476-.018,4.938L711,98.5c1.248-1.254,2.662-2.7,4.108-4.12A4.2,4.2,0,0,1,721.3,94.3q5.145,5.049,10.2,10.193a4.2,4.2,0,0,1-.072,6.2c-1.239,1.277-2.516,2.518-3.771,3.781a2.753,2.753,0,0,0-.321.384l4.819,11.668c1.47,0,3.213.08,4.946-.019,2.654-.151,4.466.878,5.333,3.436Zm-24.308,32.534,10.254-10.261c-.181-.192-.417-.451-.664-.7-1.559-1.562-3.13-3.113-4.678-4.686a2.168,2.168,0,0,1-.367-2.987c.319-.555.666-1.094.982-1.65a40.628,40.628,0,0,0,4.277-10.876c.412-1.758,1.022-2.224,2.831-2.229.605,0,1.21,0,1.815,0h5.505V130.792c-2.462,0-4.845,0-7.228,0-1.9,0-2.5-.448-2.919-2.254a40.809,40.809,0,0,0-4.969-12.075c-1.054-1.728-.968-2.378.477-3.823,1.678-1.677,3.357-3.353,4.922-4.916L718.082,97.438c-1.606,1.608-3.288,3.3-4.975,4.979-1.38,1.377-2.071,1.458-3.749.431a40.429,40.429,0,0,0-12.073-4.975c-1.822-.422-2.279-1.02-2.28-2.9,0-2.41,0-4.821,0-7.267H680.476c0,2.586.007,5.107,0,7.628a2.077,2.077,0,0,1-1.692,2.374,44.08,44.08,0,0,0-13.23,5.5,2.066,2.066,0,0,1-2.8-.436q-2.173-2.131-4.3-4.305a12.788,12.788,0,0,1-.885-1.069l-10.382,10.381c1.674,1.67,3.472,3.445,5.248,5.241a2.121,2.121,0,0,1,.415,2.979,42.244,42.244,0,0,0-5.353,12.946,2.136,2.136,0,0,1-2.386,1.836c-2.243.014-4.486,0-6.729,0h-.995v14.526c2.576,0,5.1-.006,7.615,0a2.229,2.229,0,0,1,2.561,2.027,41.12,41.12,0,0,0,5.093,12.368c.969,1.573.876,2.273-.421,3.574-1.731,1.735-3.468,3.464-5.14,5.133l10.267,10.253c.176-.167.435-.4.681-.646,1.589-1.583,3.164-3.18,4.766-4.75a2.023,2.023,0,0,1,2.8-.408,43.473,43.473,0,0,0,13.14,5.448,2.1,2.1,0,0,1,1.734,2.353c.013,2.243,0,4.485,0,6.728v1.014H695c0-2.5,0-4.945,0-7.391,0-1.808.467-2.4,2.235-2.818a41.145,41.145,0,0,0,12.077-4.975c1.724-1.056,2.357-.968,3.82.492,1.683,1.679,3.364,3.361,4.989,4.984" fill="#003680"/>
        <path id="Trazado_153331" data-name="Trazado 153331" d="M719.005,138.1a31.221,31.221,0,1,1-16.955-27.776,9.759,9.759,0,0,1,.931.522,2.131,2.131,0,0,1,.817,2.87,2.2,2.2,0,0,1-2.965.821,52.027,52.027,0,0,0-6.844-2.624,26.851,26.851,0,1,0,18.047,14.545,2.387,2.387,0,0,1,.044-2.7,2.112,2.112,0,0,1,3.655.55,30.1,30.1,0,0,1,2.962,9.86c.161,1.3.209,2.622.308,3.934" fill="#003680"/>
        <path id="Trazado_153332" data-name="Trazado 153332" d="M684.721,133.35c3.357-3.368,6.57-6.6,9.786-9.819,1.62-1.624,2.58-1.621,4.212.01q3.363,3.357,6.719,6.722c1.294,1.3,1.3,2.393.014,3.682q-9.432,9.445-18.88,18.877c-1.3,1.295-2.386,1.3-3.672.015q-6.464-6.449-12.913-12.913c-1.212-1.215-1.23-2.323-.043-3.524q3.567-3.607,7.174-7.174a2.2,2.2,0,0,1,3.533.01c1.339,1.32,2.646,2.672,4.07,4.114M701,132.177c-1.473-1.473-2.992-2.991-4.57-4.57-3.18,3.193-6.415,6.446-9.656,9.694-1.584,1.587-2.524,1.579-4.131-.03-1.245-1.246-2.479-2.5-3.63-3.667l-4.476,4.466,10.268,10.292L701,132.177" fill="#003680"/>
        <path id="Trazado_153333" data-name="Trazado 153333" d="M710.856,117.972a2.1,2.1,0,0,1-2.073,2.134,2.13,2.13,0,1,1-.008-4.26,2.1,2.1,0,0,1,2.081,2.126" fill="#003680"/>
        <path id="Trazado_153334" data-name="Trazado 153334" d="M997.482,205.364a29.187,29.187,0,0,1,5.131,2.28,11.287,11.287,0,0,1,4.913,9.868q-.028,15.12-.006,30.239v33.786a67.108,67.108,0,0,1,6.545,3.364,21.448,21.448,0,0,1,9.108,22.5c-2.2,9.194-9.256,15.712-18.39,16.859a20.942,20.942,0,0,1-17.609-5.747,2.739,2.739,0,0,0-2.055-.789q-23.789.03-47.577.01a11.557,11.557,0,0,1-10.988-6.644,11.738,11.738,0,0,1-1.214-5.5q.031-14.188.01-28.378c0-14.189.028-28.378-.022-42.567a12.274,12.274,0,0,1,3.282-8.664q7.487-8.283,14.84-16.685a12.673,12.673,0,0,1,6.8-3.927Zm5.327,75.773c.022-.419.054-.76.054-1.1q0-31.226-.005-62.453a9.037,9.037,0,0,0-.19-2.074c-.822-3.453-3.555-5.487-7.363-5.489q-21.461-.012-42.922,0c-.233,0-.466.016-.7.006-.991-.042-1.4.3-1.388,1.415.069,4.883.038,9.768.027,14.653-.009,4.383-2.383,6.766-6.739,6.776-4.071.009-8.143,0-12.214,0H930v1.651q0,35.355,0,70.711c0,4.993,2.864,7.849,7.869,7.849q21.812,0,43.621,0h1.293c-8-15.523,4.264-32.483,20.022-31.944m16.208,21.649a17,17,0,1,0-17,17.036,16.94,16.94,0,0,0,17-17.036m-73.438-88.847c-4.271,4.8-8.384,9.427-12.631,14.2.52.034.813.069,1.106.07,3.212,0,6.424.009,9.636,0,1.606-.005,1.973-.372,1.978-2,.011-3.715,0-7.429,0-11.144,0-.291-.045-.582-.09-1.134" fill="#003680"/>
        <path id="Trazado_153335" data-name="Trazado 153335" d="M967.226,245.638q-8.715,0-17.429,0a8.466,8.466,0,0,1-1.39-.063,2.268,2.268,0,0,1-1.888-2.187,2.235,2.235,0,0,1,1.675-2.229,4.886,4.886,0,0,1,1.257-.166q17.836-.012,35.672-.008a2.617,2.617,0,0,1,2.687,1.441,2.284,2.284,0,0,1-2.225,3.2c-2.788.052-5.577.018-8.366.019q-5,0-9.993,0" fill="#003680"/>
        <path id="Trazado_153336" data-name="Trazado 153336" d="M967.226,279.863q-8.715,0-17.43,0a8.826,8.826,0,0,1-1.39-.066,2.261,2.261,0,0,1-1.887-2.184,2.224,2.224,0,0,1,1.673-2.231,6.278,6.278,0,0,1,1.492-.163q17.6-.014,35.208,0a5.87,5.87,0,0,1,1.49.175,2.27,2.27,0,0,1-.221,4.393,9.1,9.1,0,0,1-1.506.075q-8.714.008-17.429,0" fill="#003680"/>
        <path id="Trazado_153337" data-name="Trazado 153337" d="M962.555,262.788c-4.259,0-8.518.006-12.777-.007a6.745,6.745,0,0,1-1.606-.171,2.211,2.211,0,0,1-1.652-2.243,2.282,2.282,0,0,1,1.9-2.172,7.325,7.325,0,0,1,1.158-.058q13.009,0,26.019,0a6.831,6.831,0,0,1,1.273.074,2.238,2.238,0,0,1,1.795,2.138,2.166,2.166,0,0,1-1.617,2.256,6.532,6.532,0,0,1-1.6.176c-4.3.013-8.6.007-12.894.007" fill="#003680"/>
        <path id="Trazado_153338" data-name="Trazado 153338" d="M962.1,292.356c4.26,0,8.521-.049,12.779.042a3.6,3.6,0,0,1,2.324.951,2.14,2.14,0,0,1-1.052,3.454,5.36,5.36,0,0,1-1.6.2q-12.432.016-24.864.008c-.232,0-.465.009-.7-.007a2.38,2.38,0,0,1-2.474-2.382,2.31,2.31,0,0,1,2.571-2.256c4.338-.021,8.675-.007,13.013-.008" fill="#003680"/>
        <path id="Trazado_153339" data-name="Trazado 153339" d="M985.652,258.167a2.217,2.217,0,0,1,2.341,2.2,2.309,2.309,0,0,1-2.178,2.4,2.4,2.4,0,0,1-2.433-2.3,2.281,2.281,0,0,1,2.27-2.3" fill="#003680"/>
        <path id="Trazado_153340" data-name="Trazado 153340" d="M1000.24,308.03c1.536-2.95,2.9-5.861,4.534-8.612a56.832,56.832,0,0,1,4.265-5.922,2.329,2.329,0,0,1,3.545-.555,2.371,2.371,0,0,1-.008,3.516c-3.884,4.486-6.391,9.743-8.591,15.174-1.021,2.522-2.225,2.923-4.547,1.438q-4.011-2.564-8.017-5.133c-.228-.147-.461-.287-.677-.45a2.314,2.314,0,1,1,2.52-3.878c1.984,1.2,3.919,2.49,5.876,3.74.354.226.715.443,1.1.682" fill="#003680"/>
        <path id="Trazado_153341" data-name="Trazado 153341" d="M535.552,85.982H296.992a21.266,21.266,0,0,1-21.266-21.266V15.539H516.509a19.043,19.043,0,0,1,19.043,19.044Z" fill="#43efd4"/>
      </g>
    </g>
    <path id="Trazado_154770" data-name="Trazado 154770" d="M15.074-14.914H9.59V0H5.9V-14.914H.492V-17.9H15.074ZM21.4,0a3.946,3.946,0,0,1-.357-1.193A4.3,4.3,0,0,1,17.689.246,4.723,4.723,0,0,1,14.45-.885a3.638,3.638,0,0,1-1.285-2.852,3.759,3.759,0,0,1,1.568-3.246,7.735,7.735,0,0,1,4.531-1.143H20.9v-.762a2.192,2.192,0,0,0-.473-1.475,1.862,1.862,0,0,0-1.494-.553,2.117,2.117,0,0,0-1.408.43,1.462,1.462,0,0,0-.51,1.18H13.46a3.569,3.569,0,0,1,.713-2.139,4.714,4.714,0,0,1,2.016-1.543,7.349,7.349,0,0,1,2.926-.559,5.806,5.806,0,0,1,3.9,1.236A4.323,4.323,0,0,1,24.464-8.84v5.766a6.36,6.36,0,0,0,.529,2.865V0ZM18.464-2.471a3.06,3.06,0,0,0,1.451-.35,2.3,2.3,0,0,0,.984-.941V-6.049H19.571q-2.668,0-2.84,1.844L16.718-4A1.423,1.423,0,0,0,17.185-2.9,1.815,1.815,0,0,0,18.464-2.471Zm1.352-16.414h3.873l-3.406,3.811H17.394ZM32.726-2.619a2.331,2.331,0,0,0,1.6-.541A1.9,1.9,0,0,0,34.964-4.6H38.3a4.558,4.558,0,0,1-.738,2.477A4.868,4.868,0,0,1,35.573-.375a6.214,6.214,0,0,1-2.785.621,5.775,5.775,0,0,1-4.5-1.814,7.177,7.177,0,0,1-1.648-5.01v-.234a7.094,7.094,0,0,1,1.635-4.906,5.708,5.708,0,0,1,4.488-1.832,5.6,5.6,0,0,1,4,1.42A5.028,5.028,0,0,1,38.3-8.348H34.964a2.442,2.442,0,0,0-.639-1.687,2.132,2.132,0,0,0-1.623-.649,2.14,2.14,0,0,0-1.875.905,5.245,5.245,0,0,0-.633,2.937v.369a5.312,5.312,0,0,0,.627,2.955A2.167,2.167,0,0,0,32.726-2.619ZM44.579-16.574v3.27h2.275V-10.7H44.579v6.639A1.585,1.585,0,0,0,44.862-3a1.42,1.42,0,0,0,1.082.32,5.666,5.666,0,0,0,1.045-.086V-.074a7.315,7.315,0,0,1-2.152.32q-3.738,0-3.811-3.775V-10.7H39.083V-13.3h1.943v-3.27ZM52.583,0H49.017V-13.3h3.566ZM48.808-16.746a1.75,1.75,0,0,1,.535-1.316,2.009,2.009,0,0,1,1.457-.516,2.014,2.014,0,0,1,1.451.516,1.74,1.74,0,0,1,.541,1.316,1.745,1.745,0,0,1-.547,1.328A2.019,2.019,0,0,1,50.8-14.9a2.019,2.019,0,0,1-1.445-.516A1.745,1.745,0,0,1,48.808-16.746ZM61.042-2.619a2.331,2.331,0,0,0,1.6-.541A1.9,1.9,0,0,0,63.28-4.6h3.332a4.558,4.558,0,0,1-.738,2.477A4.868,4.868,0,0,1,63.888-.375,6.215,6.215,0,0,1,61.1.246a5.775,5.775,0,0,1-4.5-1.814,7.176,7.176,0,0,1-1.648-5.01v-.234a7.094,7.094,0,0,1,1.635-4.906,5.708,5.708,0,0,1,4.488-1.832,5.6,5.6,0,0,1,4,1.42,5.028,5.028,0,0,1,1.531,3.781H63.28a2.442,2.442,0,0,0-.639-1.687,2.132,2.132,0,0,0-1.623-.649,2.14,2.14,0,0,0-1.875.905,5.245,5.245,0,0,0-.633,2.937v.369a5.312,5.312,0,0,0,.627,2.955A2.167,2.167,0,0,0,61.042-2.619ZM76.349,0a3.946,3.946,0,0,1-.357-1.193A4.3,4.3,0,0,1,72.636.246,4.723,4.723,0,0,1,69.4-.885a3.638,3.638,0,0,1-1.285-2.852,3.759,3.759,0,0,1,1.568-3.246A7.735,7.735,0,0,1,74.21-8.127h1.635v-.762a2.192,2.192,0,0,0-.473-1.475,1.862,1.862,0,0,0-1.494-.553,2.117,2.117,0,0,0-1.408.43,1.462,1.462,0,0,0-.51,1.18H68.407a3.569,3.569,0,0,1,.713-2.139,4.714,4.714,0,0,1,2.016-1.543,7.349,7.349,0,0,1,2.926-.559,5.806,5.806,0,0,1,3.9,1.236A4.323,4.323,0,0,1,79.411-8.84v5.766a6.36,6.36,0,0,0,.529,2.865V0ZM73.411-2.471a3.06,3.06,0,0,0,1.451-.35,2.3,2.3,0,0,0,.984-.941V-6.049H74.517q-2.668,0-2.84,1.844L71.665-4A1.423,1.423,0,0,0,72.132-2.9,1.815,1.815,0,0,0,73.411-2.471Z" transform="translate(608.011 4906.839)" fill="#003680"/>
    <g id="Grupo_89447" data-name="Grupo 89447" transform="translate(246 4847.293)">
      <g id="Grupo_89446" data-name="Grupo 89446" clip-path="url(#clip-path)">
        <path id="Trazado_153342" data-name="Trazado 153342" d="M1099.751,85.982H861.191a21.266,21.266,0,0,1-21.266-21.266V15.539h240.783a19.043,19.043,0,0,1,19.043,19.044Z" fill="#43efd4"/>
      </g>
    </g>
    <path id="Trazado_154769" data-name="Trazado 154769" d="M16.156,0H12.467L5.287-11.779V0H1.6V-17.9H5.287L12.479-6.1V-17.9h3.676ZM18.59-6.775a7.89,7.89,0,0,1,.762-3.529,5.58,5.58,0,0,1,2.195-2.4,6.4,6.4,0,0,1,3.326-.848,6.058,6.058,0,0,1,4.4,1.648,6.612,6.612,0,0,1,1.9,4.475l.025.91A6.953,6.953,0,0,1,29.484-1.6,5.94,5.94,0,0,1,24.9.246,5.97,5.97,0,0,1,20.305-1.6,7.075,7.075,0,0,1,18.59-6.615Zm3.553.252a4.973,4.973,0,0,0,.713,2.9,2.352,2.352,0,0,0,2.041,1,2.358,2.358,0,0,0,2.016-.991,5.441,5.441,0,0,0,.725-3.171,4.923,4.923,0,0,0-.725-2.881,2.358,2.358,0,0,0-2.041-1.022,2.32,2.32,0,0,0-2.016,1.016A5.533,5.533,0,0,0,22.143-6.522ZM40.857-9.971a9.653,9.653,0,0,0-1.279-.1A2.6,2.6,0,0,0,36.934-8.7V0H33.381V-13.3h3.357l.1,1.586A3.292,3.292,0,0,1,39.8-13.549a3.723,3.723,0,0,1,1.107.16ZM45.9-13.3l.111,1.488a4.675,4.675,0,0,1,3.824-1.734,3.548,3.548,0,0,1,3.529,2.029,4.568,4.568,0,0,1,4-2.029,3.968,3.968,0,0,1,3.221,1.26A5.793,5.793,0,0,1,61.635-8.5V0H58.07V-8.5a2.543,2.543,0,0,0-.443-1.657,1.959,1.959,0,0,0-1.561-.524,2.218,2.218,0,0,0-2.213,1.528L53.865,0H50.311V-8.491a2.512,2.512,0,0,0-.455-1.676,1.978,1.978,0,0,0-1.549-.518,2.3,2.3,0,0,0-2.189,1.257V0H42.566V-13.3ZM72.074,0a3.946,3.946,0,0,1-.357-1.193A4.3,4.3,0,0,1,68.361.246a4.723,4.723,0,0,1-3.24-1.131,3.638,3.638,0,0,1-1.285-2.852A3.759,3.759,0,0,1,65.4-6.984a7.735,7.735,0,0,1,4.531-1.143H71.57v-.762a2.192,2.192,0,0,0-.473-1.475,1.862,1.862,0,0,0-1.494-.553,2.117,2.117,0,0,0-1.408.43,1.462,1.462,0,0,0-.51,1.18H64.131a3.569,3.569,0,0,1,.713-2.139,4.714,4.714,0,0,1,2.016-1.543,7.349,7.349,0,0,1,2.926-.559,5.806,5.806,0,0,1,3.9,1.236A4.323,4.323,0,0,1,75.135-8.84v5.766a6.36,6.36,0,0,0,.529,2.865V0ZM69.135-2.471a3.06,3.06,0,0,0,1.451-.35,2.3,2.3,0,0,0,.984-.941V-6.049H70.242q-2.668,0-2.84,1.844L67.389-4A1.423,1.423,0,0,0,67.856-2.9,1.815,1.815,0,0,0,69.135-2.471Zm12.984-14.1v3.27h2.275V-10.7H82.119v6.639A1.585,1.585,0,0,0,82.4-3a1.42,1.42,0,0,0,1.082.32,5.666,5.666,0,0,0,1.045-.086V-.074a7.315,7.315,0,0,1-2.152.32q-3.738,0-3.811-3.775V-10.7H76.623V-13.3h1.943v-3.27ZM90.123,0H86.557V-13.3h3.566ZM86.348-16.746a1.75,1.75,0,0,1,.535-1.316,2.009,2.009,0,0,1,1.457-.516,2.014,2.014,0,0,1,1.451.516,1.74,1.74,0,0,1,.541,1.316,1.744,1.744,0,0,1-.547,1.328,2.019,2.019,0,0,1-1.445.516,2.019,2.019,0,0,1-1.445-.516A1.744,1.744,0,0,1,86.348-16.746ZM98.029-4.34,100.5-13.3h3.713L99.725,0H96.332L91.844-13.3h3.713ZM113.1,0a3.946,3.946,0,0,1-.357-1.193A4.3,4.3,0,0,1,109.384.246a4.723,4.723,0,0,1-3.24-1.131,3.638,3.638,0,0,1-1.285-2.852,3.759,3.759,0,0,1,1.568-3.246,7.735,7.735,0,0,1,4.531-1.143h1.635v-.762a2.192,2.192,0,0,0-.473-1.475,1.862,1.862,0,0,0-1.494-.553,2.117,2.117,0,0,0-1.408.43,1.462,1.462,0,0,0-.51,1.18h-3.553a3.569,3.569,0,0,1,.713-2.139,4.714,4.714,0,0,1,2.016-1.543,7.349,7.349,0,0,1,2.926-.559,5.806,5.806,0,0,1,3.9,1.236,4.323,4.323,0,0,1,1.445,3.473v5.766a6.36,6.36,0,0,0,.529,2.865V0Zm-2.939-2.471a3.06,3.06,0,0,0,1.451-.35,2.3,2.3,0,0,0,.984-.941V-6.049h-1.328q-2.668,0-2.84,1.844L108.413-4A1.423,1.423,0,0,0,108.88-2.9,1.815,1.815,0,0,0,110.159-2.471Z" transform="translate(1159.661 4902.229)" fill="#003680"/>
    <rect id="Rectángulo_26614" data-name="Rectángulo 26614" width="1108.728" height="390.414" transform="translate(246 4847.293)" fill="none"/>
  </g>
</svg>
