<svg id="Grupo_89297" data-name="Grupo 89297" xmlns="http://www.w3.org/2000/svg" xmlns:xlink="http://www.w3.org/1999/xlink" width="99.03" height="104.811" viewBox="0 0 99.03 104.811">
  <defs>
    <clipPath id="clip-path">
      <rect id="Rectángulo_26449" data-name="Rectángulo 26449" width="99.03" height="104.811" fill="none"/>
    </clipPath>
    <clipPath id="clip-path-2">
      <rect id="Rectángulo_26448" data-name="Rectángulo 26448" width="99.03" height="104.811" transform="translate(0 0)" fill="none"/>
    </clipPath>
    <clipPath id="clip-path-3">
      <rect id="Rectángulo_26436" data-name="Rectángulo 26436" width="9.845" height="15.232" transform="translate(3.106 25.467)" fill="none"/>
    </clipPath>
    <clipPath id="clip-path-4">
      <rect id="Rectángulo_26437" data-name="Rectángulo 26437" width="20.894" height="37.335" transform="translate(8.613 50.25)" fill="none"/>
    </clipPath>
    <clipPath id="clip-path-5">
      <rect id="Rectángulo_26438" data-name="Rectángulo 26438" width="8.648" height="32.082" transform="translate(20.501 24.313)" fill="none"/>
    </clipPath>
    <clipPath id="clip-path-6">
      <rect id="Rectángulo_26439" data-name="Rectángulo 26439" width="4.562" height="26.429" transform="translate(12.108 22.746)" fill="none"/>
    </clipPath>
    <clipPath id="clip-path-7">
      <rect id="Rectángulo_26444" data-name="Rectángulo 26444" width="0.822" height="0.408" transform="translate(88.984 55.067)" fill="none"/>
    </clipPath>
    <clipPath id="clip-path-8">
      <rect id="Rectángulo_26445" data-name="Rectángulo 26445" width="19.471" height="48.652" transform="translate(74.204 55.326)" fill="none"/>
    </clipPath>
    <clipPath id="clip-path-9">
      <rect id="Rectángulo_26446" data-name="Rectángulo 26446" width="7.173" height="40.43" transform="translate(88.466 27.251)" fill="none"/>
    </clipPath>
  </defs>
  <g id="Grupo_89296" data-name="Grupo 89296" clip-path="url(#clip-path)">
    <g id="Grupo_89295" data-name="Grupo 89295">
      <g id="Grupo_89294" data-name="Grupo 89294" clip-path="url(#clip-path-2)">
        <path id="Trazado_152831" data-name="Trazado 152831" d="M69.256,87.257a.262.262,0,1,0,.512,0V85.325a.262.262,0,1,0-.512,0Z" fill="#9d9d9c"/>
        <path id="Trazado_152832" data-name="Trazado 152832" d="M61.258,87.261a.262.262,0,1,0,.512,0V85.329a.262.262,0,1,0-.512,0Z" fill="#9d9d9c"/>
        <path id="Trazado_152833" data-name="Trazado 152833" d="M52.464,88.061,52.47,103.3a1.518,1.518,0,0,0,1.519,1.514l23-.01a1.513,1.513,0,0,0,1.513-1.514L78.5,88.051a1.518,1.518,0,0,0-1.515-1.519l-23,.01a1.521,1.521,0,0,0-1.518,1.519" fill="#212121"/>
        <path id="Trazado_152834" data-name="Trazado 152834" d="M52.464,88.061l0,5.126a2.967,2.967,0,0,0,2.967,2.965l20.106-.009a2.961,2.961,0,0,0,2.96-2.967l0-5.125a1.518,1.518,0,0,0-1.515-1.519l-23,.01a1.521,1.521,0,0,0-1.518,1.519" fill="#3c3c3b"/>
        <path id="Trazado_152835" data-name="Trazado 152835" d="M64.941,98.776h1.088a.693.693,0,0,0,.692-.692l0-4.215H64.247l0,4.215a.691.691,0,0,0,.692.691" fill="#c5c5c5"/>
        <rect id="Rectángulo_26435" data-name="Rectángulo 26435" width="2.84" height="0.631" transform="translate(64.064 96.286)" fill="#9d9d9c"/>
        <path id="Trazado_152836" data-name="Trazado 152836" d="M63.695,95.674l3.578,0a.478.478,0,0,0,.479-.479v-.845a.48.48,0,0,0-.48-.48l-3.578,0a.479.479,0,0,0-.479.48v.845a.479.479,0,0,0,.48.479" fill="#b2b2b2"/>
        <path id="Trazado_152837" data-name="Trazado 152837" d="M64.535,98.09a.391.391,0,0,0,.391.391h1.118a.391.391,0,0,0,.391-.391V96.916h-1.9Z" fill="#fff"/>
        <path id="Trazado_152838" data-name="Trazado 152838" d="M63.667,94.8a.3.3,0,1,0,.3-.3.3.3,0,0,0-.3.3" fill="#3c3c3b"/>
        <path id="Trazado_152839" data-name="Trazado 152839" d="M66.692,94.8A.3.3,0,1,0,67,94.5a.3.3,0,0,0-.3.305" fill="#3c3c3b"/>
        <path id="Trazado_152840" data-name="Trazado 152840" d="M64.779,97.222a.125.125,0,0,0,.124.125h1.162a.125.125,0,1,0,0-.249H64.9a.124.124,0,0,0-.124.124" fill="#b2b2b2"/>
        <path id="Trazado_152841" data-name="Trazado 152841" d="M64.78,97.7a.124.124,0,0,0,.124.124h1.162a.125.125,0,1,0,0-.249H64.9a.125.125,0,0,0-.124.125" fill="#b2b2b2"/>
        <path id="Trazado_152842" data-name="Trazado 152842" d="M64.78,98.176a.125.125,0,0,0,.125.125h1.161a.125.125,0,1,0,0-.249H64.9a.125.125,0,0,0-.124.125" fill="#b2b2b2"/>
        <path id="Trazado_152843" data-name="Trazado 152843" d="M61.044,85.419a.717.717,0,0,0,.933.1,6.628,6.628,0,0,1,7.007,0,.717.717,0,0,0,.933-.1.669.669,0,0,0-.285-.946,7.854,7.854,0,0,0-8.3,0,.667.667,0,0,0-.284.945" fill="#212121"/>
        <path id="Trazado_152844" data-name="Trazado 152844" d="M5.4,20.553C2.449,24.127,1.322,30.192.111,35.35a3.976,3.976,0,0,0,1.627,4.259,14.477,14.477,0,0,0,8.473,1.981Z" fill="#006cff"/>
        <g id="Grupo_89275" data-name="Grupo 89275" opacity="0.3" style="mix-blend-mode: multiply;isolation: isolate">
          <g id="Grupo_89274" data-name="Grupo 89274">
            <g id="Grupo_89273" data-name="Grupo 89273" clip-path="url(#clip-path-3)">
              <path id="Trazado_152845" data-name="Trazado 152845" d="M5.394,25.467c-1.5,4.22-.289,8.935-2.288,11.091,3.429,1.271,6.7,1.13,9.845,4.141C9.212,35.661,5.394,25.467,5.394,25.467" fill="#456f96"/>
            </g>
          </g>
        </g>
        <path id="Trazado_152846" data-name="Trazado 152846" d="M8.5,103.67c0,.1.007.208.014.316h7.3l-.007-.122a.638.638,0,0,0-.015-.115.329.329,0,0,0-.007-.079,4.416,4.416,0,0,0-.2-.984,2.309,2.309,0,0,0-2.182-1.622,10.99,10.99,0,0,0-1.12-.057h-.294c-1.73,0-3.166.165-3.432,1.938a3.761,3.761,0,0,0-.057.725" fill="#212121"/>
        <path id="Trazado_152847" data-name="Trazado 152847" d="M8.49,103.67l.022.316.05.825h7.3l-.05-.825-.007-.122v-.122l-.007-.072Z" fill="#16191e"/>
        <path id="Trazado_152848" data-name="Trazado 152848" d="M24.017,103.261c.007.129.014.266.029.409l.014.316H35.9a1.794,1.794,0,0,0-.044-.316c-.33-1.694-2.462-2.57-4.859-2.922a19.3,19.3,0,0,0-5.262-.014,8.485,8.485,0,0,0-1.278.273c-.222.072-.531.194-.445,2.254" fill="#212121"/>
        <path id="Trazado_152849" data-name="Trazado 152849" d="M24.046,103.67l.014.316.051.825H35.955l-.05-.825c0-.029-.022-.316-.022-.316Z" fill="#16191e"/>
        <path id="Trazado_152850" data-name="Trazado 152850" d="M7.942,102.276c0,.3.236.52.614.671a8.432,8.432,0,0,0,2.853.255c.217-.019.444-.029.661-.038a30.742,30.742,0,0,0,3.514-.482c.331-.066.633-.113.888-.179l.614-17.835.019-.708.283-8.143L19.75,60.156v-.341l2.541,15.558.038.265c-.01,3.74-.152,7.793-.189,11.732-.066,6.187.1,12.1,1.369,16.125a.772.772,0,0,1,.208-.085,1.524,1.524,0,0,1,.3-.152c.548-.207,1.191-.4,1.89-.585A17.38,17.38,0,0,0,31,100.784c0-.038-.727-24.646-.727-24.646l-.765-13.574-.114-1.983L29.149,56.4l-.01-.142L29,53.628l-.2-3.372L28.7,48.631,28.676,48l-.066-1.086-.066-1.1c0-.028-.066-1.313-.066-1.313H8.509c-.038.482-.076.954-.085,1.436-.019.321-.029.652-.029.973a34.687,34.687,0,0,0,.152,3.467c.018.189.037.387.066.567a31.038,31.038,0,0,0,.576,3.362c.076.331.161.652.246.973.122.5.255,1,.415,1.483-.019.369-.038.737-.047,1.115-.019.463-.038.935-.057,1.407l-.1,1.994c-.028.633-.056,1.256-.085,1.879C9.35,67.287,9.17,71.245,9.2,74.268c0,.312.01.605.019.888.029,1.124-.066,2.928-.226,5.092-.52,7.216-1.691,18.457-1.049,22.028" fill="#3c3c3b"/>
        <g id="Grupo_89278" data-name="Grupo 89278" opacity="0.5">
          <g id="Grupo_89277" data-name="Grupo 89277">
            <g id="Grupo_89276" data-name="Grupo 89276" clip-path="url(#clip-path-4)">
              <path id="Trazado_152851" data-name="Trazado 152851" d="M8.613,50.949a30.253,30.253,0,0,0,.578,3.36c.075.327.155.648.241.969.123.5.262,1,.422,1.487-.037.835-.075,1.675-.112,2.526l-.1,1.99c-.027.631-.065,1.252-.091,1.878,1.937-.155,4.286-.123,6.731-.069.9,1.776.786,4,.588,6.03a9.257,9.257,0,0,1-.492,2.563,3.221,3.221,0,0,1-1.717,1.878,5.525,5.525,0,0,1,1.573,3.017,24.7,24.7,0,0,1,.321,3.446c.091,1.557.3,3.1.524,4.644l.027-.711.283-8.138,2.36-15.667v-.337l2.536,15.56.043.262c-.011,3.745-.15,7.795-.193,11.733.011.07.016.145.027.214q.216-2.254.321-4.521a8.882,8.882,0,0,1,.257-2.092c.128-.444.332-.867.482-1.311.529-1.557.379-3.328,1.187-4.767a1.221,1.221,0,0,0,.172-.4,1.015,1.015,0,0,0-.1-.482,25.251,25.251,0,0,1-1.38-10.829,29.948,29.948,0,0,0,6.4-.616L29.4,60.58l-.252-4.323-.15-2.627L28.8,50.253c-3.59-.053-7.181.487-10.771.659-3.141.144-6.282.01-9.417.037" fill="#1d1d1b"/>
            </g>
          </g>
        </g>
        <path id="Trazado_152852" data-name="Trazado 152852" d="M16.818,14.3l1.959-.3.289,1.877-2.151-.065Z" fill="#ebb677"/>
        <path id="Trazado_152853" data-name="Trazado 152853" d="M10.953,15.969,10.611,9.7c2.682-.1,6.269-.284,6.889-.426,0,0,.285,4.555.577,6.5,1.194,4.992-4.681,5.7-7.124.194" fill="#ffae80"/>
        <path id="Trazado_152854" data-name="Trazado 152854" d="M9.783,10.861a7.164,7.164,0,0,1-.986-3c-.719-6.081,2.876-5.757,5.12-6.094,2.638-.28,5.384,1.118,6.13,5.124a6.66,6.66,0,0,1-.183.764l1.2,2.12a.658.658,0,0,1-.335.938l-.555.245c.05.408.361,2.14.361,2.14.117,1.03-.087,2.694-1.472,2.775-.562-.088-1.93-1.011-2.649-4.623-.973.03-6.138.448-6.633-.391" fill="#ffae80"/>
        <path id="Trazado_152855" data-name="Trazado 152855" d="M10.861,13.491c7.22.818,5.322-2.47,5.4-3.211,0-.227,1.146-.192,1.141-.409-.1-3.713-1.579-5.96,1.441-5.979,1.088-.361,1.19-3.985-5.631-2.758-3.015.543-5.127,2.56-5.219,5.622C7.9,9.738,9.6,13.092,10.861,13.491" fill="#212121"/>
        <path id="Trazado_152856" data-name="Trazado 152856" d="M14.726,9.819c.146.948.921,1.948,1.391,1.876s.386-.874.248-1.823c-.092-.628-.2-1.5-.742-1.614-.478-.1-1.111.171-.9,1.561" fill="#ffae80"/>
        <path id="Trazado_152857" data-name="Trazado 152857" d="M28.673,48v.619a50.266,50.266,0,0,1-.31,5.814c-.012.083-.012.167-.024.25A4.494,4.494,0,0,1,23.2,58.825c-1.072-.155-2.18-.31-3.276-.441a58.446,58.446,0,0,0-10.126-.5c-.286.012-.56.047-.81.071A2.456,2.456,0,0,1,6.241,55.37C6.848,44.887,5.1,28.363,5.1,28.363L5.073,28.2,4.68,23.562v-.047c-.012-.143-.012-.286-.012-.417a5.077,5.077,0,0,1,2.514-4.313l3.038-1.739,1.251-.083,6.742-.441.072-.012h.131s2.752.822,4.146,1.275a.173.173,0,0,1,.083.024c.262.083.464.154.6.2a.63.63,0,0,1,.119.048c1.358.7,1.132,1.679,1.846,2.966,0,0,.1.417.25,1.167.119.513.262,1.2.429,2.026s.346,1.775.548,2.835c.048.3.095.608.155.917s.119.632.167.953c.226,1.239.429,2.585.631,4,.191,1.263.37,2.573.525,3.919.023.251.059.513.083.775.036.226.06.441.083.679v.1c.036.262.06.512.084.786s.059.525.083.775c.024.3.06.595.071.881.036.25.048.489.072.715l.107,1.6c.036.453.06.906.084,1.347.023.619.047,1.239.071,1.846.024.572.024,1.108.024,1.656" fill="#006cff"/>
        <path id="Trazado_152858" data-name="Trazado 152858" d="M17.348,15.361a21.454,21.454,0,0,0-6.636.223l-.5,1.453c.481.823,4.833.808,8.21-.527l-.143-.372a1.251,1.251,0,0,0-.93-.777" fill="#c21e1d"/>
        <g id="Grupo_89281" data-name="Grupo 89281" opacity="0.3" style="mix-blend-mode: multiply;isolation: isolate">
          <g id="Grupo_89280" data-name="Grupo 89280">
            <g id="Grupo_89279" data-name="Grupo 89279" clip-path="url(#clip-path-5)">
              <path id="Trazado_152859" data-name="Trazado 152859" d="M29.149,56.4c-.274-.655-.453-1.334-.786-1.966-1.751-3.359-1.942-6.278-2.156-10.257-.572-10.745-4.742-13.116-5.706-19.859,3.24,4.5,4.931,3.05,6.087,3.658.059.321.119.631.166.953.227,1.239.429,2.585.632,4,.19,1.263.369,2.574.524,3.92.024.25.06.512.083.774.036.227.06.441.084.679v.1c.036.262.059.512.083.786s.06.524.084.774c.023.3.059.6.071.882.036.25.048.488.072.714.035.537.071,1.061.107,1.6.036.452.059.905.083,1.346.024.619.048,1.239.072,1.846.024.572.024,1.108.024,1.656l.035.632.1,1.632.19,3.371.143,2.621Z" fill="#456f96"/>
            </g>
          </g>
        </g>
        <g id="Grupo_89284" data-name="Grupo 89284" opacity="0.3" style="mix-blend-mode: multiply;isolation: isolate">
          <g id="Grupo_89283" data-name="Grupo 89283">
            <g id="Grupo_89282" data-name="Grupo 89282" clip-path="url(#clip-path-6)">
              <path id="Trazado_152860" data-name="Trazado 152860" d="M15.613,42.671c-.691-3.366-2.1-6.546-2.91-9.885s-.979-7.043.7-10.04c-.459,4.044,1.148,7.994,2.124,11.946a39.306,39.306,0,0,1,.809,14.483,47.865,47.865,0,0,0-.726-6.5" fill="#456f96"/>
            </g>
          </g>
        </g>
        <path id="Trazado_152861" data-name="Trazado 152861" d="M52.431,44.556c-.058-.042-.085-.064-.113-.087a.669.669,0,0,1-1.016.868c.439.537-.125,1.425-.942.807l-.1-.07c.258.273-.2,1.109-1.051.511l-2.848-2.017a2.126,2.126,0,0,1-.65-.62l-.62-.912-1.845-.327.894-3.609,2.4.778,1.421-.326a1.1,1.1,0,0,1,.54.01l.922.246-.234.825-.11.833.175-.139.479-.382.324.241.648.484,1.1.817c.048.018.346.253.389.284l.77.579.276.24a.55.55,0,0,1,.065.062.633.633,0,0,1-.874.9" fill="#ffae80"/>
        <path id="Trazado_152862" data-name="Trazado 152862" d="M46.788,43.774a.578.578,0,0,0,.239-.782l-.049-.094a.577.577,0,0,0-.782-.239l-1.034.549a.539.539,0,0,0-.223.73l.1.193a.5.5,0,0,0,.681.209Z" fill="#ff9d6d"/>
        <path id="Trazado_152863" data-name="Trazado 152863" d="M47.835,44.641a.578.578,0,0,0,.247-.786l-.05-.094a.578.578,0,0,0-.774-.243l-1.313.672a.541.541,0,0,0-.231.734l.1.193a.5.5,0,0,0,.675.212Z" fill="#ff9d6d"/>
        <path id="Trazado_152864" data-name="Trazado 152864" d="M48.666,45.621a.587.587,0,0,0,.243-.795l-.05-.1a.587.587,0,0,0-.8-.244l-1.05.558a.549.549,0,0,0-.228.742l.1.2a.506.506,0,0,0,.3.249.512.512,0,0,0,.391-.037Z" fill="#ff9d6d"/>
        <path id="Trazado_152865" data-name="Trazado 152865" d="M49.523,46.324a.47.47,0,0,0,.171-.641l-.042-.079a.47.47,0,0,0-.627-.217l-.806.428a.439.439,0,0,0-.16.6l.087.162a.408.408,0,0,0,.546.189Z" fill="#ff9d6d"/>
        <path id="Trazado_152866" data-name="Trazado 152866" d="M53.758,38.936l-1.718.371s-1.4.161-1.569.212l-1.055.316-.688.205a.475.475,0,0,0-.31.292l-.632,1.753a.428.428,0,0,0,.253.548l.129.05a.9.9,0,0,0,1.168-.532l.239-.652a.382.382,0,0,1,.232-.231l.223-.075c.028-.008,3.255,2.436,3.275,2.458l.153-.815,1.517-.547Z" fill="#ff9d6d"/>
        <rect id="Rectángulo_26440" data-name="Rectángulo 26440" width="2.343" height="4.062" transform="translate(52.611 39.149) rotate(-16.579)" fill="#ededed"/>
        <path id="Trazado_152867" data-name="Trazado 152867" d="M44.558,44.112l-1.54-.461L44.195,38.9l1.655.627Z" fill="#ededed"/>
        <path id="Trazado_152868" data-name="Trazado 152868" d="M32.741,33.9C32.075,33.659,24.37,19,24.37,19c-.244-.67-4.8,3.21-4.661,5.69.261.25,9.086,14.983,9.44,15.1,3.033.973,13.755,4.323,13.755,4.323L44.195,38.9s-8.123-3.794-11.454-5" fill="#006cff"/>
        <path id="Trazado_152869" data-name="Trazado 152869" d="M76.906,16.5c-5.412,2.91-4.609,3.242-8.805,15.985L54.108,38.646l1.268,4.4c6.436-.891,13.4-2.421,16.921-4.562l9.112-14.651Z" fill="#003680"/>
        <path id="Trazado_152870" data-name="Trazado 152870" d="M94.16,51.594l-20.1-2.313c.3-3.479,3.271-32.721,3.271-32.721l2.462-.392L87.2,14.977S94.21,48.443,94.16,51.594" fill="#f6f6f6"/>
        <path id="Trazado_152871" data-name="Trazado 152871" d="M80.906,100.967c.264.077.643.225.614,3.011H68.98c0-3.782,8.917-3.891,11.926-3.011" fill="#16191e"/>
        <rect id="Rectángulo_26441" data-name="Rectángulo 26441" width="12.539" height="1.154" transform="translate(68.981 103.657)" fill="#3c3c3b"/>
        <path id="Trazado_152872" data-name="Trazado 152872" d="M73.936,53.325l.266,47.351,7.317,2.981,1.52-43.748.013.181,2.889,43.885h7.733l-.007-.318c0-.007-1.051-35.977-1.051-35.977l-.28-9.57-.058-1.857-.1-2.928c0-.247-.078-2.461-.215-5.292H74.118c-.111,2.338-.182,5.078-.182,5.292" fill="#003680"/>
        <path id="Trazado_152873" data-name="Trazado 152873" d="M91.969,48.052c0-.989.035-1.358,0-1.858H74.2a7.745,7.745,0,0,0,0,1.858Z" fill="#343038"/>
        <rect id="Rectángulo_26442" data-name="Rectángulo 26442" width="2.084" height="1.485" transform="translate(79.443 46.38)" fill="#acabb9"/>
        <path id="Trazado_152874" data-name="Trazado 152874" d="M89.807,100.967c2.136,0,3.866.225,3.866,3.011H85.941c0-2.914,1.73-3.011,3.866-3.011" fill="#16191e"/>
        <rect id="Rectángulo_26443" data-name="Rectángulo 26443" width="7.732" height="1.154" transform="translate(85.941 103.657)" fill="#3c3c3b"/>
        <g id="Grupo_89287" data-name="Grupo 89287" opacity="0.07">
          <g id="Grupo_89286" data-name="Grupo 89286">
            <g id="Grupo_89285" data-name="Grupo 89285" clip-path="url(#clip-path-7)">
              <path id="Trazado_152875" data-name="Trazado 152875" d="M89.807,55.067a7.982,7.982,0,0,1-.823.408c.275-.139.547-.274.823-.408"/>
            </g>
          </g>
        </g>
        <g id="Grupo_89290" data-name="Grupo 89290" opacity="0.3" style="mix-blend-mode: multiply;isolation: isolate">
          <g id="Grupo_89289" data-name="Grupo 89289">
            <g id="Grupo_89288" data-name="Grupo 89288" clip-path="url(#clip-path-8)">
              <path id="Trazado_152876" data-name="Trazado 152876" d="M93.675,103.658c-.011,0-2.873.32-2.873.32H85.939L83.05,60.088l-.011-.18-1.52,43.75L74.2,100.672h.06a6.052,6.052,0,0,0,6-5.671L82.06,60.1c-.666-2.046-2.846-3.528-5.075-4.778,2.938,1.694,8.624,1.606,12,.15-2.5,1.255-4.9,2.7-5.177,4.561l3.084,33.6a12.663,12.663,0,0,0,6,9.54l.774.481Z" fill="#456f96"/>
            </g>
          </g>
        </g>
        <path id="Trazado_152877" data-name="Trazado 152877" d="M85.66,13.876,85.051,7.7c-2.634.311-6.164.666-6.789.62,0,0,.407,4.49.413,6.433-.413,5.053,5.429,4.864,6.985-.882" fill="#ff9d6d"/>
        <path id="Trazado_152878" data-name="Trazado 152878" d="M83.214,48.034v3.577a4.912,4.912,0,0,0,5.253,4.9l3.811-.26,3.35-.234c.071-5.376-.2-14.148-.454-22.393-.085-2.708-.169-5.357-.234-7.811l.11-1.9a5.661,5.661,0,0,0-.383-1.513,4.652,4.652,0,0,1-.266-1.143c-.182-2.162-.656-.026-.838-2.006,0-.013.085-1.033.078-1.046l-5.525-2.791c0-.007-.916-.435-.916-.435l-.331.051a14.66,14.66,0,0,0-.993,2.351,60.778,60.778,0,0,0-2.234,13.583c-.058.792-.116,1.6-.162,2.434-.084,1.507-.143,3.084-.175,4.688a.663.663,0,0,0-.007.124c-.006.168-.006.331-.006.486-.013.455-.026.909-.033,1.364,0,.149-.006.292-.006.435,0,.377-.013.747-.013,1.123,0,.325-.007.649-.013.974v.591c-.007,1.208-.013,2.967-.013,4.85" fill="#003680"/>
        <path id="Trazado_152879" data-name="Trazado 152879" d="M74.378,18.365l.38-.23,2.576-1.574.353-.056L77.031,51.66c-.044,2.352-.749,4.2-3.094,4.022l-1.326-.206c.3-3.48,1.725-35.343,1.767-37.111" fill="#003680"/>
        <path id="Trazado_152880" data-name="Trazado 152880" d="M81.212,20.739l-1.594-.165L79.09,17.4l2.676.1Z" fill="#ea4a49"/>
        <path id="Trazado_152881" data-name="Trazado 152881" d="M80.222,17.432l-2.2,2.522a11.5,11.5,0,0,1-.6-3.724l1.268-1.377a2.35,2.35,0,0,0,1.531,2.579" fill="#dadada"/>
        <path id="Trazado_152882" data-name="Trazado 152882" d="M80.222,17.432l2.717,3.143c1.854-1.821,3.78-3.843,4.265-5.6L85.6,13.215c0,1.579-3.273,4.3-5.373,4.217" fill="#dadada"/>
        <path id="Trazado_152883" data-name="Trazado 152883" d="M81.212,20.739l-1.594-.165L78.8,35.207l1.626,2.555,1.74-2.062Z" fill="#ea4a49"/>
        <path id="Trazado_152884" data-name="Trazado 152884" d="M83.481,33.4c1.357-4.833,4.7-13.743,4.7-13.743s-2.132-1.107-1.982-1.276l2.341.082-.423-3.044-2.149-1.786A70.185,70.185,0,0,0,83.481,33.4" fill="#456f96"/>
        <path id="Trazado_152885" data-name="Trazado 152885" d="M77.228,33.247c-1.357-4.833-2.219-13.886-2.219-13.886s2.014-.742,1.864-.911l-1.7-.206L76.193,16.9,78.8,14.411C78.228,20,77.37,27.068,77.228,33.247" fill="#456f96"/>
        <path id="Trazado_152886" data-name="Trazado 152886" d="M86.563,9.651a7.092,7.092,0,0,0,.886-2.989C87.981.638,84.441,1.062,82.216.8c-2.613-.2-5.283,1.261-5.9,5.239a6.586,6.586,0,0,0,.2.748L75.392,8.91a.649.649,0,0,0,.358.916l.555.226c-.037.4-.294,2.124-.294,2.124-.086,1.02.164,2.657,1.534,2.7,3.944.11,5.646-1.533,5.784-5,.962,0,2.77.622,3.234-.221" fill="#ffae80"/>
        <path id="Trazado_152887" data-name="Trazado 152887" d="M85.576,12.28c-3.188.462-1.322-3.968-1.322-3.968s-.956.821-1.333,1.19c-.658-.088-.734-.011-1.325-.129.268-3.966,1.589-6.846-4.177-6.337C76.334,2.711,77.794-.752,82.9.149c2.98.525,5.285,2.372,5.317,5.4a8.315,8.315,0,0,1-2.639,6.733" fill="#2f2e29"/>
        <path id="Trazado_152888" data-name="Trazado 152888" d="M84.934,8.458c-.118.94-1.045,1.927-1.659,1.851s-.568-.872-.461-1.813c.07-.623.138-1.484.836-1.6.612-.1,1.454.181,1.284,1.559" fill="#ffae80"/>
        <g id="Grupo_89293" data-name="Grupo 89293" opacity="0.3" style="mix-blend-mode: multiply;isolation: isolate">
          <g id="Grupo_89292" data-name="Grupo 89292">
            <g id="Grupo_89291" data-name="Grupo 89291" clip-path="url(#clip-path-9)">
              <path id="Trazado_152889" data-name="Trazado 152889" d="M92.336,58.11l-.058-1.857,3.35-.234c.071-5.376-.2-14.147-.455-22.393L90.161,27.25V43.871L89.6,48.033l-1.137,8.48L92.615,67.68Z" fill="#456f96"/>
            </g>
          </g>
        </g>
        <path id="Trazado_152890" data-name="Trazado 152890" d="M93.049,58.24a4.546,4.546,0,0,1,.256-.825c.078-.258.1-.53.2-.781a4.618,4.618,0,0,1,1.351-1.95,1.98,1.98,0,0,1,2.562.461,2.242,2.242,0,0,1,.514.874l.849,2.547a2.382,2.382,0,0,1-.2,2.466c-.378.7-.431.637-.809,1.335a1.23,1.23,0,0,1-.272.379.934.934,0,0,1-.533.206c-.014.031-.03.061-.042.093a.654.654,0,0,1-.119.228.35.35,0,0,1-.3.091.67.67,0,0,1-.292-.127.452.452,0,0,0-.121.214.573.573,0,0,1-.082.191.388.388,0,0,1-.293.116.954.954,0,0,1-.3-.039.377.377,0,0,1-.21-.141c-.06.161-.088.305-.4.344a.521.521,0,0,1-.546-.7q.35-.918.7-1.836a3.213,3.213,0,0,0,.268-1.051,3.28,3.28,0,0,0-.083-.675c-.106-.538-.3-.995-.406-1.532a1.332,1.332,0,0,0-.387,1.1,3.714,3.714,0,0,1-.172,1.3,1.053,1.053,0,0,1-.549.544.34.34,0,0,1-.462-.347,7.218,7.218,0,0,0-.066-1.822,2.525,2.525,0,0,1-.06-.664" fill="#ffae80"/>
        <rect id="Rectángulo_26447" data-name="Rectángulo 26447" width="4.614" height="2.813" transform="translate(93.571 53.205) rotate(-0.937)" fill="#ededed"/>
        <path id="Trazado_152891" data-name="Trazado 152891" d="M91.985,37.213l-2.56-13.965c0-7.173,6.534-6.719,7.642.264l1.861,13.483-.067,17.579H92.942Z" fill="#003680"/>
      </g>
    </g>
  </g>
</svg>
