<svg id="Grupo_89316" data-name="Grupo 89316" xmlns="http://www.w3.org/2000/svg" xmlns:xlink="http://www.w3.org/1999/xlink" width="159.383" height="107.262" viewBox="0 0 159.383 107.262">
  <defs>
    <clipPath id="clip-path">
      <rect id="Rectángulo_26470" data-name="Rectángulo 26470" width="159.383" height="107.262" fill="none"/>
    </clipPath>
    <clipPath id="clip-path-2">
      <rect id="Rectángulo_26469" data-name="Rectángulo 26469" width="159.383" height="107.262" transform="translate(0 0)" fill="none"/>
    </clipPath>
    <clipPath id="clip-path-3">
      <rect id="Rectángulo_26460" data-name="Rectángulo 26460" width="9.862" height="46.936" transform="translate(142.054 48.482)" fill="none"/>
    </clipPath>
    <clipPath id="clip-path-4">
      <rect id="Rectángulo_26461" data-name="Rectángulo 26461" width="5.28" height="5.003" transform="translate(130.723 73.28)" fill="none"/>
    </clipPath>
    <clipPath id="clip-path-5">
      <rect id="Rectángulo_26465" data-name="Rectángulo 26465" width="0.796" height="0.395" transform="translate(5.957 59.008)" fill="none"/>
    </clipPath>
    <clipPath id="clip-path-6">
      <rect id="Rectángulo_26466" data-name="Rectángulo 26466" width="18.835" height="47.064" transform="translate(2.216 59.258)" fill="none"/>
    </clipPath>
    <clipPath id="clip-path-7">
      <rect id="Rectángulo_26467" data-name="Rectángulo 26467" width="20.671" height="33.295" transform="translate(0.316 26.632)" fill="none"/>
    </clipPath>
  </defs>
  <g id="Grupo_89315" data-name="Grupo 89315" clip-path="url(#clip-path)">
    <g id="Grupo_89314" data-name="Grupo 89314">
      <g id="Grupo_89313" data-name="Grupo 89313" clip-path="url(#clip-path-2)">
        <path id="Trazado_152892" data-name="Trazado 152892" d="M128.967,76.306c-.029-.84-.7-1-.862-.165l-.267,1.351a.613.613,0,0,0,.451.738c.317.063.505-.223.573-.568Z" fill="#ffae80"/>
        <path id="Trazado_152893" data-name="Trazado 152893" d="M126.7,76.729c-.195-.932-.98-.79-.916-.012l.013.865a.585.585,0,0,0,.632.535c.322-.026.452-.275.425-.6Z" fill="#ffae80"/>
        <path id="Trazado_152894" data-name="Trazado 152894" d="M127.94,76.027c.027-.844-.721-.961-.886-.13l-.267,1.351a.612.612,0,0,0,.451.738c.317.063.545-.162.613-.506Z" fill="#ffae80"/>
        <path id="Trazado_152895" data-name="Trazado 152895" d="M129.827,76.554c.03-.736-.6-.788-.741-.1l-.222,1.121a.487.487,0,1,0,.953.189Z" fill="#ffae80"/>
        <path id="Trazado_152896" data-name="Trazado 152896" d="M128.967,76.306c-.029-.84-.7-1-.862-.165l-.267,1.351a.613.613,0,0,0,.451.738c.317.063.505-.223.573-.568Z" fill="#ffae80"/>
        <path id="Trazado_152897" data-name="Trazado 152897" d="M126.7,76.729c-.195-.932-.98-.79-.916-.012l.013.865a.585.585,0,0,0,.632.535c.322-.026.452-.275.425-.6Z" fill="#ffae80"/>
        <path id="Trazado_152898" data-name="Trazado 152898" d="M127.94,76.027c.027-.844-.721-.961-.886-.13l-.267,1.351a.612.612,0,0,0,.451.738c.317.063.545-.162.613-.506Z" fill="#ffae80"/>
        <path id="Trazado_152899" data-name="Trazado 152899" d="M129.827,76.554c.03-.736-.6-.788-.741-.1l-.222,1.121a.487.487,0,1,0,.953.189Z" fill="#ffae80"/>
        <path id="Trazado_152900" data-name="Trazado 152900" d="M17.832,103.305l-3.53-.654.523-2.824,3.53.654Zm1.046-5.649L15.348,97l.523-2.824,3.53.653Zm1.046-5.649-3.53-.654.523-2.825,3.53.654Zm1.046-5.65L17.44,85.7l.523-2.826,3.53.654Zm1.046-5.65-3.53-.654.523-2.824,3.53.654Zm1.046-5.649-3.53-.654.523-2.824,3.53.653Z" fill="#43efd4"/>
        <path id="Trazado_152901" data-name="Trazado 152901" d="M23.121,69.473l-.081-.262-2.462-.456.442-2.389,2.321-.721.743,2.391.269.05-.095.511.148.476-.25.078-.048.258-.49-.091Z" fill="#43efd4"/>
        <path id="Trazado_152902" data-name="Trazado 152902" d="M27.012,68.261l-1.067-3.429,2.606-.81,1.066,3.428Zm5.211-1.621-1.066-3.429,2.605-.811,1.067,3.429Zm5.212-1.622L36.368,61.59l2.606-.811,1.066,3.429ZM42.646,63.4l-1.067-3.429,2.606-.81,1.067,3.428Z" fill="#43efd4"/>
        <path id="Trazado_152903" data-name="Trazado 152903" d="M47.857,61.776l-.894-2.828c.009-.02-.172-.6-.172-.6l.5-.156.208-.48.558.242,2.736,1.187-.864,1.991Z" fill="#43efd4"/>
        <path id="Trazado_152904" data-name="Trazado 152904" d="M51.837,56.736l-3.294-1.428L49.587,52.9l3.294,1.428Zm2.087-4.81L50.631,50.5l1.044-2.406,3.293,1.429Zm2.088-4.811-3.294-1.429,1.044-2.405,3.294,1.428Z" fill="#43efd4"/>
        <path id="Trazado_152905" data-name="Trazado 152905" d="M58.1,42.3l-.4-.173-.665.018-.009-.31-2.222-.964.991-2.283,2.49-.067.064,2.421.284.123-.264.61.011.434-.2,0Z" fill="#43efd4"/>
        <path id="Trazado_152906" data-name="Trazado 152906" d="M61.114,42.039l-.1-3.588,2.732-.073.1,3.588Zm5.464-.146-.1-3.588,2.732-.073.1,3.588Zm5.464-.147-.1-3.588,2.732-.072.1,3.588Zm5.464-.145-.1-3.588,2.732-.074.1,3.588Zm5.463-.147-.1-3.587,2.732-.073.095,3.588Zm5.465-.146-.1-3.588,2.732-.073.1,3.588Zm6.5-.6-2.215-2.823,2.15-1.688,2.215,2.824Zm4.3-3.374-2.216-2.824,2.15-1.687,2.216,2.824Zm4.3-3.374-2.215-2.824,2.151-1.687,2.215,2.824Zm4.3-3.373-2.216-2.824,2.151-1.687,2.216,2.824Zm4.3-3.374-2.215-2.824,2.15-1.687,2.215,2.823Zm4.3-3.375-2.216-2.823,2.15-1.687,2.216,2.823Zm4.3-3.373-2.215-2.824,2.15-1.687,2.215,2.824Zm4.3-3.374-2.216-2.824,2.151-1.687,2.216,2.824Z" fill="#43efd4"/>
        <rect id="Rectángulo_26450" data-name="Rectángulo 26450" width="1.347" height="3.591" transform="matrix(0.787, -0.617, 0.617, 0.787, 127.119, 10.896)" fill="#43efd4"/>
        <path id="Trazado_152907" data-name="Trazado 152907" d="M131.5,17.019,135.772,6.39l-11.34,1.616Z" fill="#43efd4"/>
        <rect id="Rectángulo_26451" data-name="Rectángulo 26451" width="0.269" height="107.127" transform="translate(15.165 0)" fill="#575756"/>
        <rect id="Rectángulo_26452" data-name="Rectángulo 26452" width="125.157" height="0.27" transform="translate(6.831 106.992)" fill="#575756"/>
        <rect id="Rectángulo_26453" data-name="Rectángulo 26453" width="125.157" height="0.27" transform="translate(6.831 81.34)" fill="#575756"/>
        <rect id="Rectángulo_26454" data-name="Rectángulo 26454" width="125.157" height="0.27" transform="translate(6.831 55.688)" fill="#575756"/>
        <rect id="Rectángulo_26455" data-name="Rectángulo 26455" width="125.157" height="0.27" transform="translate(6.831 30.037)" fill="#575756"/>
        <rect id="Rectángulo_26456" data-name="Rectángulo 26456" width="125.157" height="0.27" transform="translate(6.831 4.385)" fill="#575756"/>
        <rect id="Rectángulo_26457" data-name="Rectángulo 26457" width="0.269" height="107.127" transform="translate(49.873 0)" fill="#575756"/>
        <rect id="Rectángulo_26458" data-name="Rectángulo 26458" width="0.269" height="107.127" transform="translate(84.581 0)" fill="#575756"/>
        <rect id="Rectángulo_26459" data-name="Rectángulo 26459" width="0.27" height="107.127" transform="translate(119.289 0)" fill="#575756"/>
        <path id="Trazado_152908" data-name="Trazado 152908" d="M145.768,49.851c-.413,4.171-2.84,8.807-5.373,15.164a46.332,46.332,0,0,1-7.556,8.239l-1.062.424-.738.783-3.179-1.7,7.776-11.31,4.431-12.968c1.538-4.23,6.471-2.388,5.7,1.368" fill="#acabb9"/>
        <path id="Trazado_152909" data-name="Trazado 152909" d="M143.861,41.615l-3.351-4.286c-1.8,1.467-4.253,3.388-4.739,3.648,0,0,2.411,3.136,3.329,4.572,2.067,3.939,6.306,1.054,4.761-3.934" fill="#ff9d6d"/>
        <path id="Trazado_152910" data-name="Trazado 152910" d="M142.545,38.06a6.2,6.2,0,0,0-.748-2.631c-2.435-4.713-4.858-2.736-6.632-1.889-2.03,1.08-3.322,3.416-1.913,6.654a5.7,5.7,0,0,0,.5.459l.166,2.1a.571.571,0,0,0,.7.511l.517-.093c.163.316.78,1.711.78,1.711.416.8,1.369,1.891,2.4,1.277,2.973-1.771,3.463-3.788,1.937-6.421.714-.45,2.344-.84,2.292-1.683" fill="#ffae80"/>
        <path id="Trazado_152911" data-name="Trazado 152911" d="M143.048,40.472c-2.145,1.839-2.843-2.318-2.843-2.318s-.323,1.056-.429,1.507c-.529.244-.549.337-1.042.527-1.664-3.064-2.038-5.819-6.072-2.733-.956.268-1.5-2.983,2.7-4.713,2.455-1.011,5.029-.725,6.474,1.5a7.288,7.288,0,0,1,1.208,6.228" fill="#2f2e29"/>
        <path id="Trazado_152912" data-name="Trazado 152912" d="M140.777,37.942c.355.751.132,1.918-.359,2.15s-.831-.379-1.194-1.127c-.24-.494-.594-1.164-.129-1.575.406-.361,1.161-.55,1.682.552" fill="#ffae80"/>
        <path id="Trazado_152913" data-name="Trazado 152913" d="M146.717,107.127l2.03-.072v-.742c.019-1.6,0-1.173-.523-5.3l-3.766-.917-.548,1.131a5.007,5.007,0,0,1-3.231,2.689c-1.833.472-3.29,1.276-3.444,2.523-.018,0-.02.689-.02.689Z" fill="#1d1d1b"/>
        <path id="Trazado_152914" data-name="Trazado 152914" d="M149.057,104.513a111.65,111.65,0,0,0-4.2-19.8L156.795,70.14l-8.643-2.907L138,80.126a3.491,3.491,0,0,0-.839,3.181l3.792,20.158Z" fill="#232323"/>
        <path id="Trazado_152915" data-name="Trazado 152915" d="M158.36,107.127l-.107-.7c-.221-1.551-.172-1.14-1.319-5.15l-3.9-.892-.377,1.1a4.014,4.014,0,0,1-2.823,2.611c-1.759.459-3.094,1.24-3.061,2.451-.018,0,.071.582.071.582Z" fill="#1d1d1b"/>
        <path id="Trazado_152916" data-name="Trazado 152916" d="M150.911,85.206a123.915,123.915,0,0,1,7.323,19.842l-7.718-1.454L147.4,95.428c0-.009-4.415-11.586-4.415-11.586a3.072,3.072,0,0,1,.332-3.087l5.214-8.319,1.579-2.5,1.849-2.953.144-.233.179.107,6.7,4.129-.871,1.525Z" fill="#3c3c3b"/>
        <path id="Trazado_152917" data-name="Trazado 152917" d="M158.118,72.507a4.827,4.827,0,0,1-.359.4l-4.6,1.535a5.64,5.64,0,0,1-3.509-1.069,7.266,7.266,0,0,1-1.113-.942,10.706,10.706,0,0,1-2.172-3.284,11.153,11.153,0,0,1-.448-1.221,10.422,10.422,0,0,1-.314-1.185l2.414-.933,8.768-3.365c.179.242.368.5.556.8a13.253,13.253,0,0,1,.736,1.239l.054.1c1.229,2.324,2.073,5.42-.009,7.924" fill="#3c3c3b"/>
        <path id="Trazado_152918" data-name="Trazado 152918" d="M158.127,64.582l-5.842,2.27-.323.126-3.1,1.2-2.5.969-.108.045-.556-1.176.215-.09,2.432-1,8.992-3.679.736,1.229Z" fill="#232323"/>
        <path id="Trazado_152919" data-name="Trazado 152919" d="M137.36,70.813l-23.6,3.107L83.049,65.44,66.47,78.583,39.385,73.39,12.4,107.128h5.774L41.2,78.306l26.445,5.071L84.051,70.372l29.388,8.116,24.506-3.226Z" fill="#43efd4"/>
        <path id="Trazado_152920" data-name="Trazado 152920" d="M136.938,77.644l7.1-5.448-8.267-3.425Z" fill="#43efd4"/>
        <path id="Trazado_152921" data-name="Trazado 152921" d="M157.337,63.245c0,.009-8.992,3.689-8.992,3.689l-2.432,1-.216.089s-1.965-4.586-3.643-8.57c-.584-1.373-1.122-2.683-1.544-3.7-2.351-5.725-1.023-9.575,4.272-13.542,3.841-.691,10.168,10.464,12.555,21.036" fill="#cecdde"/>
        <path id="Trazado_152922" data-name="Trazado 152922" d="M144.977,42.321l-1.162-.9-4.3,5.115.5,2.658Z" fill="#acabb9"/>
        <g id="Grupo_89300" data-name="Grupo 89300" opacity="0.5" style="mix-blend-mode: multiply;isolation: isolate">
          <g id="Grupo_89299" data-name="Grupo 89299">
            <g id="Grupo_89298" data-name="Grupo 89298" clip-path="url(#clip-path-3)">
              <path id="Trazado_152923" data-name="Trazado 152923" d="M151.917,71.08a13.392,13.392,0,0,0-2.271,2.3c-1.992,2.549-3.464,5.9-5.125,9.038-.736,1.256,1.562,7.9,2.881,13l-4.414-11.577a3.07,3.07,0,0,1,.332-3.087l5.213-8.319a10.681,10.681,0,0,1-2.172-3.285l-.108.045L145.7,68.02s-1.966-4.586-3.644-8.571l6.273-10.966-.78,14.771a23.527,23.527,0,0,0,.466,2.558c.1.386.207.763.332,1.122a9.259,9.259,0,0,0,.521,1.247,6.23,6.23,0,0,0,1.248,1.75,4.99,4.99,0,0,0,1.8,1.149" fill="#acabb9"/>
            </g>
          </g>
        </g>
        <path id="Trazado_152924" data-name="Trazado 152924" d="M131.434,72.692c-.293.136-.492.49-.732.7-.141.124-.294.232-.432.36a3.439,3.439,0,0,1-.617.4c-.259.157-.548.259-.8.42-.2.125-.481.224-.376.533.08.238.419.278.62.249a2.794,2.794,0,0,0,.5-.092,4.528,4.528,0,0,0,.452-.21,5.8,5.8,0,0,0,.967-.617,1.106,1.106,0,0,0,.294-.27,1,1,0,0,0,.117-.494,4.227,4.227,0,0,0,.024-.585,3.088,3.088,0,0,1-.014-.393" fill="#ffae80"/>
        <path id="Trazado_152925" data-name="Trazado 152925" d="M133.089,78.283c.07-.027.131-.054.191-.077a.729.729,0,0,0,.067-.042.634.634,0,0,0,.063-.056,1.013,1.013,0,0,0,.106-.1,1.619,1.619,0,0,0,.117-.152c.01-.013.022-.032.039-.059.055-.067.137-.169.241-.294a7.993,7.993,0,0,0,1.235-1.718,22.252,22.252,0,0,1,.855-2.5q.162-.388.315-.691a15.477,15.477,0,0,1,1.3-1.876s-.305-.281-.333-.289a3.168,3.168,0,0,1-.576-.119c-.568-.206-1.388-.981-1.895-1.109-.248.6-1.6,2.911-2.181,3.1a5.84,5.84,0,0,0-1.075.294.174.174,0,0,0-.045.019,11.686,11.686,0,0,0-1.368,1.865,1.468,1.468,0,0,0-.091.15,1.209,1.209,0,0,0-.147.559c0,.029,0,.062,0,.1a15.828,15.828,0,0,1-.436,1.786c-.026.556.548,1.134.9.619a.306.306,0,0,0,.017-.066c-.03.393.555,1.159,1.013.226a.347.347,0,0,1,.016-.061l-.006.057c-.078.3.406.727,1.125-.06.021.176.242.574.552.508" fill="#ffae80"/>
        <g id="Grupo_89303" data-name="Grupo 89303" opacity="0.1">
          <g id="Grupo_89302" data-name="Grupo 89302">
            <g id="Grupo_89301" data-name="Grupo 89301" clip-path="url(#clip-path-4)">
              <path id="Trazado_152926" data-name="Trazado 152926" d="M133.089,78.283c.07-.027.131-.054.191-.077a.729.729,0,0,0,.067-.042.634.634,0,0,0,.063-.056,1.013,1.013,0,0,0,.106-.1,1.619,1.619,0,0,0,.117-.152c.01-.013.022-.032.039-.059.055-.067.142-.169.241-.294a7.993,7.993,0,0,0,1.235-1.718,22.252,22.252,0,0,1,.855-2.5,9.205,9.205,0,0,0-1.02,1.591,1.857,1.857,0,0,1-.3.519.688.688,0,0,1-.53.247c-.153-.011-.3-.093-.457-.1-.211-.011-.407.114-.619.113-.289,0-.537-.217-.825-.28a2.359,2.359,0,0,0-.789.081.782.782,0,0,1-.738-.184.859.859,0,0,0,.861.4,1.39,1.39,0,0,1,.542-.067c.2.053.325.268.521.331.3.1.64-.182.92-.044.092.048.161.132.247.188.194.126.505.537-.725,2.208" fill="#1d1d1b"/>
            </g>
          </g>
        </g>
        <path id="Trazado_152927" data-name="Trazado 152927" d="M148.366,46.961c.115,4.19-1.686,8.547-3.4,15.172a46.317,46.317,0,0,1-6.46,9.125l-1,.554-.633.869-3.368-1.286L139.8,59.2l2.554-12.4c.994-4.389,6.306-3.659,6.015.164" fill="#cecdde"/>
        <path id="Trazado_152928" data-name="Trazado 152928" d="M36.006,13.209l-.748,1.529c-.978-.46-1.942-.946-2.925-1.4l.725-1.481-.2-.235a1.891,1.891,0,0,1-.341-1.482c.028-.135.539-1.787.562-1.864l.737.383.822-1.681c1.616.712,2.684,1.3,4.107,2.067l-.777,1.987c-.607,1.484-1.137,1.957-1.965,2.173" fill="#ff9d6d"/>
        <path id="Trazado_152929" data-name="Trazado 152929" d="M34.7,9.093a.716.716,0,0,1-.913.345l-.109-.052a.654.654,0,0,1-.316-.871l2.882-5.338a.613.613,0,0,1,.814-.3l.079.034a.571.571,0,0,1,.276.759Z" fill="#ff9d6d"/>
        <path id="Trazado_152930" data-name="Trazado 152930" d="M36.247,8.79a.7.7,0,0,1-.355.353.574.574,0,0,1-.468,0l-.1-.046a.62.62,0,0,1-.264-.833l.692-1.522a.648.648,0,0,1,.332-.33.532.532,0,0,1,.437,0l.2.094a.541.541,0,0,1,.23.727Z" fill="#ffae80"/>
        <path id="Trazado_152931" data-name="Trazado 152931" d="M37.332,9.458a.632.632,0,0,1-.82.342l-.1-.046a.565.565,0,0,1-.3-.351.68.68,0,0,1,.04-.492l.565-1.2a.591.591,0,0,1,.766-.319l.205.095a.5.5,0,0,1,.262.306.6.6,0,0,1-.034.429Z" fill="#ffae80"/>
        <path id="Trazado_152932" data-name="Trazado 152932" d="M38.343,9.912a.512.512,0,0,1-.682.238l-.086-.04a.508.508,0,0,1-.254-.673l.433-.922a.477.477,0,0,1,.637-.222l.177.082a.443.443,0,0,1,.221.587Z" fill="#ffae80"/>
        <path id="Trazado_152933" data-name="Trazado 152933" d="M35.143,8.853l-.624.266a.374.374,0,0,0-.214.237l-.064.221a2.107,2.107,0,0,1,.435,2.885l1.33.748-.53,1.629c-1.067-.494-2.115-1.027-3.185-1.516l.457-.849.31-.612-.2-.236a1.889,1.889,0,0,1-.341-1.482c.028-.134.539-1.786.562-1.863a.465.465,0,0,1,.241-.233l1-.422L35,7.343a.419.419,0,0,1,.549.218l.055.126a.883.883,0,0,1-.463,1.166" fill="#ffae80"/>
        <path id="Trazado_152934" data-name="Trazado 152934" d="M35.879,14.349l-3.248-2.331-1.094,2.234,3.708,2.19Z" fill="#e6dcdc"/>
        <path id="Trazado_152935" data-name="Trazado 152935" d="M13.584,19.241,11.57,25.223c.256.292,8.787,2.661,17.419,3.4A91.276,91.276,0,0,0,35.834,15.5L32.02,12.935c-.281.267-2.933,3.848-6.483,8.714-5.292-.926-12.062-2.533-11.953-2.408" fill="#003680"/>
        <path id="Trazado_152936" data-name="Trazado 152936" d="M22.992,39.543l5.174,1.07a6.416,6.416,0,0,1,2.125,2.132,10.027,10.027,0,0,1-1.624,3.172,8.754,8.754,0,0,1-3.143-.281c-.319-.195-.211-.647.16-.823-.709-.519-1.61-1.153-1.735-1.8L21.774,42.6Z" fill="#ffae80"/>
        <path id="Trazado_152937" data-name="Trazado 152937" d="M23.717,43.1l-.705-.176.532-2.964,1.06.154Z" fill="#16191e"/>
        <path id="Trazado_152938" data-name="Trazado 152938" d="M25.049,40.418c-.073.3-.53.446-1.021.326s-.829-.46-.756-.76.53-.445,1.021-.326.829.46.756.76" fill="#575756"/>
        <path id="Trazado_152939" data-name="Trazado 152939" d="M25.086,40.214c-.073.3-.53.446-1.021.326s-.829-.46-.756-.76.53-.445,1.021-.326.829.46.756.76" fill="#706f6f"/>
        <path id="Trazado_152940" data-name="Trazado 152940" d="M24.92,40.173c-.061.244-.432.362-.831.265s-.674-.374-.613-.617.43-.363.83-.265.672.373.614.617" fill="#ededed"/>
        <path id="Trazado_152941" data-name="Trazado 152941" d="M1.746,55.648l20.845-2.4c-.289-3.366-4.569-31.491-4.569-31.491l-2.382-.379L8.476,20.227S1.7,52.6,1.746,55.648" fill="#f6f6f6"/>
        <path id="Trazado_152942" data-name="Trazado 152942" d="M14.568,103.408c-.255.075-.623.218-.594,2.913H26.1c0-3.659-8.625-3.764-11.535-2.913" fill="#16191e"/>
        <rect id="Rectángulo_26462" data-name="Rectángulo 26462" width="12.129" height="1.116" transform="translate(13.974 106.011)" fill="#3c3c3b"/>
        <path id="Trazado_152943" data-name="Trazado 152943" d="M3.871,52.2c-.135,2.737-.209,4.883-.209,5.123l-.153,4.627L2.225,106c0,.006-.006.317-.006.317H9.7l2.8-42.457.012-.176,1.468,42.322,7.076-2.885.258-45.8c0-.207-.066-2.86-.175-5.123Z" fill="#003680"/>
        <path id="Trazado_152944" data-name="Trazado 152944" d="M3.865,52.221c0-.957-.033-1.314,0-1.8h17.19a7.465,7.465,0,0,1,0,1.8Z" fill="#16191e"/>
        <rect id="Rectángulo_26463" data-name="Rectángulo 26463" width="2.016" height="1.437" transform="translate(13.966 50.604)" fill="#acabb9"/>
        <path id="Trazado_152945" data-name="Trazado 152945" d="M5.957,103.408c-2.066,0-3.74.218-3.74,2.913H9.7c0-2.819-1.674-2.913-3.74-2.913" fill="#16191e"/>
        <rect id="Rectángulo_26464" data-name="Rectángulo 26464" width="7.479" height="1.116" transform="translate(2.218 106.011)" fill="#3c3c3b"/>
        <g id="Grupo_89306" data-name="Grupo 89306" opacity="0.07">
          <g id="Grupo_89305" data-name="Grupo 89305">
            <g id="Grupo_89304" data-name="Grupo 89304" clip-path="url(#clip-path-5)">
              <path id="Trazado_152946" data-name="Trazado 152946" d="M5.957,59.008a7.663,7.663,0,0,0,.8.4c-.267-.135-.529-.265-.8-.4"/>
            </g>
          </g>
        </g>
        <g id="Grupo_89309" data-name="Grupo 89309" opacity="0.3" style="mix-blend-mode: multiply;isolation: isolate">
          <g id="Grupo_89308" data-name="Grupo 89308">
            <g id="Grupo_89307" data-name="Grupo 89307" clip-path="url(#clip-path-6)">
              <path id="Trazado_152947" data-name="Trazado 152947" d="M2.216,106.012c.01,0,2.779.31,2.779.31H9.7l2.794-42.457.011-.175,1.47,42.322,7.076-2.888h-.058a5.856,5.856,0,0,1-5.809-5.487L13.452,63.88c.644-1.979,2.753-3.413,4.909-4.622-2.842,1.639-8.342,1.554-11.608.145,2.423,1.214,4.736,2.608,5.009,4.412l-2.983,32.5a12.25,12.25,0,0,1-5.8,9.229l-.749.465Z" fill="#456f96"/>
            </g>
          </g>
        </g>
        <path id="Trazado_152948" data-name="Trazado 152948" d="M9.968,19.162l.589-5.97c2.548.3,5.963.644,6.568.6,0,0-.394,4.343-.4,6.223.4,4.889-5.251,4.7-6.756-.853" fill="#ff9d6d"/>
        <path id="Trazado_152949" data-name="Trazado 152949" d="M12.337,55.664a4.753,4.753,0,0,1-5.083,4.743L.327,59.928c-.092-6.906.4-19.6.664-29.217l-.105-1.84a5.689,5.689,0,0,1,.369-1.466,4.6,4.6,0,0,0,.261-1.1c.172-2.088.634-.021.806-1.941,0-.009-.079-1-.075-1.008l5.343-2.7s.886-.425.886-.425l.32.055a13.563,13.563,0,0,1,.962,2.273,58.553,58.553,0,0,1,2.163,13.135c.059.769.109,1.555.155,2.357.08,1.458.139,2.983.173,4.537a1.058,1.058,0,0,1,0,.117c0,.164.008.32.008.475.013.437.021.878.03,1.315,0,.143,0,.286,0,.424,0,.362.013.723.017,1.084,0,.315,0,.63.008.941,0,.185,0,.374,0,.555.013,1.919.009,5.229.013,8.17" fill="#003680"/>
        <path id="Trazado_152950" data-name="Trazado 152950" d="M20.882,23.5l-.368-.223-2.492-1.522-.341-.055.635,34.008c.042,2.275.724,4.059,2.993,3.89l1.282-.2c-.288-3.366-1.668-34.188-1.709-35.9" fill="#003680"/>
        <path id="Trazado_152951" data-name="Trazado 152951" d="M14.271,25.8l1.542-.159.511-3.067-2.589.1Z" fill="#ea4a49"/>
        <path id="Trazado_152952" data-name="Trazado 152952" d="M15.229,22.6l2.127,2.439a11.155,11.155,0,0,0,.581-3.6L16.71,20.107A2.274,2.274,0,0,1,15.229,22.6" fill="#dadada"/>
        <path id="Trazado_152953" data-name="Trazado 152953" d="M15.229,22.6,12.6,25.641c-1.794-1.761-3.657-3.717-4.126-5.413l1.556-1.707c0,1.528,3.167,4.163,5.2,4.08" fill="#dadada"/>
        <path id="Trazado_152954" data-name="Trazado 152954" d="M14.271,25.8l1.542-.159L16.6,39.8l-1.573,2.471-1.683-1.994Z" fill="#ea4a49"/>
        <path id="Trazado_152955" data-name="Trazado 152955" d="M12.076,38.044C10.764,33.369,7.525,24.75,7.525,24.75s2.062-1.071,1.917-1.235l-2.265.08.41-2.945,2.078-1.727a67.85,67.85,0,0,1,2.411,19.121" fill="#456f96"/>
        <path id="Trazado_152956" data-name="Trazado 152956" d="M18.125,37.9a102.835,102.835,0,0,0,2.146-13.433s-1.947-.717-1.8-.881l1.642-.2L18.85,21.23l-1.724-.673c.555,5.4.862,11.366,1,17.343" fill="#456f96"/>
        <path id="Trazado_152957" data-name="Trazado 152957" d="M9.887,14.042a6.837,6.837,0,0,1,.166-3.011c1.475-5.661,4.562-4.123,6.676-3.642,2.445.669,4.4,2.868,3.672,6.693a6.293,6.293,0,0,1-.428.615L20.305,17a.628.628,0,0,1-.624.718l-.58.025c-.1.381-.423,2.03-.423,2.03-.254.958-1.014,2.367-2.274,1.958-3.629-1.184-4.645-3.235-3.643-6.437-.877-.311-2.726-.335-2.874-1.254" fill="#ffae80"/>
        <path id="Trazado_152958" data-name="Trazado 152958" d="M9.931,16.758c2.754,1.458,2.495-3.184,2.495-3.184s.6,1.058.828,1.517c.628.135.672.229,1.248.314,1.046-3.7.781-6.754,5.868-4.414,1.094.057.891-3.572-4.052-4.413-2.886-.491-5.586.442-6.6,3.187a8.043,8.043,0,0,0,.213,6.993" fill="#2f2e29"/>
        <path id="Trazado_152959" data-name="Trazado 152959" d="M11.76,13.485c-.2.894.324,2.1.909,2.226s.8-.61,1.009-1.5c.139-.59.357-1.4-.242-1.727-.525-.289-1.383-.308-1.676,1" fill="#ffae80"/>
        <g id="Grupo_89312" data-name="Grupo 89312" opacity="0.3" style="mix-blend-mode: multiply;isolation: isolate">
          <g id="Grupo_89311" data-name="Grupo 89311">
            <g id="Grupo_89310" data-name="Grupo 89310" clip-path="url(#clip-path-7)">
              <path id="Trazado_152960" data-name="Trazado 152960" d="M20.986,44.372a59.979,59.979,0,0,0-8.691.542,19.813,19.813,0,0,0-5.94,1.735C3.973,48.543,2.15,54.235.327,59.928c-.093-6.907.4-19.6.663-29.217l-.105-1.84a5.729,5.729,0,0,1,.37-1.466l5.621-.773,3.726,8.54,1.319.517,8.5,3.319Z" fill="#456f96"/>
            </g>
          </g>
        </g>
        <rect id="Rectángulo_26468" data-name="Rectángulo 26468" width="3.8" height="2.318" transform="translate(20.143 42.744) rotate(-79.437)" fill="#ededed"/>
        <path id="Trazado_152961" data-name="Trazado 152961" d="M.611,31.026l5,11.242,15.375,2.1,1.065-5.184L10.24,36.168,5.967,24.057c-2.377-3.223-7.778.572-5.356,6.969" fill="#003680"/>
      </g>
    </g>
  </g>
</svg>
