<svg xmlns="http://www.w3.org/2000/svg" width="1099.751" height="404.323" viewBox="0 0 1099.751 404.323">
  <g id="Grupo_90680" data-name="Grupo 90680" transform="translate(-246 -2037.832)">
    <path id="Trazado_153307" data-name="Trazado 153307" d="M817.651,390.414H579.091a21.266,21.266,0,0,1-21.266-21.266V319.971H798.608a19.043,19.043,0,0,1,19.043,19.044Z" transform="translate(246 2022.293)" fill="#43efd4"/>
    <path id="Trazado_154771" data-name="Trazado 154771" d="M5.52,24H1.832V6.1H5.52Zm6.455-13.3.111,1.537a4.645,4.645,0,0,1,3.824-1.783,3.86,3.86,0,0,1,3.148,1.242,5.794,5.794,0,0,1,1.057,3.713V24H16.561V15.472a2.314,2.314,0,0,0-.492-1.645,2.2,2.2,0,0,0-1.635-.511,2.443,2.443,0,0,0-2.25,1.282V24H8.631V10.7ZM23.779,24V13.3H21.8V10.7h1.98V9.566a4.593,4.593,0,0,1,1.285-3.473,4.976,4.976,0,0,1,3.6-1.236,8.375,8.375,0,0,1,1.807.244L30.43,7.832a4.53,4.53,0,0,0-1.082-.111q-2,0-2,1.9V10.7h2.643V13.3H27.344V24Zm7.5-6.775a7.89,7.89,0,0,1,.762-3.529,5.58,5.58,0,0,1,2.195-2.4,6.4,6.4,0,0,1,3.326-.848,6.058,6.058,0,0,1,4.4,1.648,6.612,6.612,0,0,1,1.9,4.475l.025.91A6.953,6.953,0,0,1,42.172,22.4a5.94,5.94,0,0,1-4.586,1.85A5.97,5.97,0,0,1,32.994,22.4a7.075,7.075,0,0,1-1.715-5.016Zm3.553.252a4.973,4.973,0,0,0,.713,2.9,2.562,2.562,0,0,0,4.057.012,5.441,5.441,0,0,0,.725-3.171,4.923,4.923,0,0,0-.725-2.881,2.358,2.358,0,0,0-2.041-1.022,2.32,2.32,0,0,0-2.016,1.016A5.533,5.533,0,0,0,34.832,17.478Zm18.713-3.449a9.654,9.654,0,0,0-1.279-.1A2.6,2.6,0,0,0,49.623,15.3V24H46.07V10.7h3.357l.1,1.586a3.292,3.292,0,0,1,2.963-1.832,3.723,3.723,0,0,1,1.107.16ZM58.586,10.7l.111,1.488a4.675,4.675,0,0,1,3.824-1.734,3.548,3.548,0,0,1,3.529,2.029,4.568,4.568,0,0,1,4-2.029,3.968,3.968,0,0,1,3.221,1.26A5.793,5.793,0,0,1,74.324,15.5V24H70.758V15.5a2.543,2.543,0,0,0-.443-1.657,1.959,1.959,0,0,0-1.561-.524,2.218,2.218,0,0,0-2.213,1.528L66.553,24H63V15.509a2.512,2.512,0,0,0-.455-1.676A1.978,1.978,0,0,0,61,13.316a2.3,2.3,0,0,0-2.189,1.257V24H55.254V10.7Zm24.59,13.549a6.531,6.531,0,0,1-4.764-1.8,6.381,6.381,0,0,1-1.838-4.783v-.344a8.036,8.036,0,0,1,.775-3.584,5.685,5.685,0,0,1,2.195-2.434,6.16,6.16,0,0,1,3.24-.855,5.521,5.521,0,0,1,4.3,1.721,6.994,6.994,0,0,1,1.568,4.881V18.5H80.176a3.3,3.3,0,0,0,1.039,2.09,3.141,3.141,0,0,0,2.195.787,3.835,3.835,0,0,0,3.209-1.488l1.746,1.955A5.334,5.334,0,0,1,86.2,23.613,7.1,7.1,0,0,1,83.176,24.246Zm-.406-10.93a2.22,2.22,0,0,0-1.715.716,3.709,3.709,0,0,0-.842,2.05h4.943V15.8a2.645,2.645,0,0,0-.639-1.834A2.291,2.291,0,0,0,82.77,13.316ZM6.9,51.6a2.331,2.331,0,0,0,1.6-.541,1.9,1.9,0,0,0,.639-1.439h3.332a4.558,4.558,0,0,1-.738,2.477,4.868,4.868,0,0,1-1.986,1.746,6.214,6.214,0,0,1-2.785.621,5.775,5.775,0,0,1-4.5-1.814,7.177,7.177,0,0,1-1.648-5.01V47.4A7.094,7.094,0,0,1,2.447,42.5a5.708,5.708,0,0,1,4.488-1.832,5.6,5.6,0,0,1,4,1.42,5.028,5.028,0,0,1,1.531,3.781H9.135A2.442,2.442,0,0,0,8.5,44.181a2.132,2.132,0,0,0-1.623-.649A2.14,2.14,0,0,0,5,44.437a5.245,5.245,0,0,0-.633,2.937v.369A5.312,5.312,0,0,0,4.992,50.7,2.167,2.167,0,0,0,6.9,51.6Zm7.045-4.156a7.89,7.89,0,0,1,.762-3.529,5.58,5.58,0,0,1,2.195-2.4,6.4,6.4,0,0,1,3.326-.848,6.058,6.058,0,0,1,4.4,1.648,6.612,6.612,0,0,1,1.9,4.475l.025.91a6.953,6.953,0,0,1-1.709,4.912,5.94,5.94,0,0,1-4.586,1.85,5.97,5.97,0,0,1-4.592-1.844A7.075,7.075,0,0,1,13.943,47.6Zm3.553.252a4.973,4.973,0,0,0,.713,2.9,2.352,2.352,0,0,0,2.041,1,2.358,2.358,0,0,0,2.016-.991,5.441,5.441,0,0,0,.725-3.171,4.923,4.923,0,0,0-.725-2.881,2.358,2.358,0,0,0-2.041-1.022,2.32,2.32,0,0,0-2.016,1.016A5.533,5.533,0,0,0,17.5,47.694Zm14.57-6.781.111,1.488A4.675,4.675,0,0,1,36,40.667,3.548,3.548,0,0,1,39.529,42.7a4.568,4.568,0,0,1,4-2.029,3.968,3.968,0,0,1,3.221,1.26A5.793,5.793,0,0,1,47.8,45.72v8.5H44.238v-8.5a2.543,2.543,0,0,0-.443-1.657,1.959,1.959,0,0,0-1.561-.524A2.218,2.218,0,0,0,40.02,45.06l.012,9.156H36.479V45.725a2.512,2.512,0,0,0-.455-1.676,1.978,1.978,0,0,0-1.549-.518,2.3,2.3,0,0,0-2.189,1.257v9.427H28.734v-13.3Zm30.443,6.775a7.979,7.979,0,0,1-1.4,4.924,4.474,4.474,0,0,1-3.768,1.85,4.144,4.144,0,0,1-3.258-1.4v6.27H50.533V40.913h3.3l.123,1.3a4.176,4.176,0,0,1,3.369-1.549,4.5,4.5,0,0,1,3.824,1.82A8.2,8.2,0,0,1,62.508,47.5Zm-3.553-.271a5.265,5.265,0,0,0-.658-2.874,2.141,2.141,0,0,0-1.912-1.011,2.326,2.326,0,0,0-2.3,1.283v5.463A2.365,2.365,0,0,0,56.41,51.6Q58.955,51.6,58.955,47.417Zm13.463,6.8a3.946,3.946,0,0,1-.357-1.193A4.3,4.3,0,0,1,68.7,54.462a4.723,4.723,0,0,1-3.24-1.131,3.638,3.638,0,0,1-1.285-2.852,3.759,3.759,0,0,1,1.568-3.246,7.735,7.735,0,0,1,4.531-1.143h1.635v-.762a2.192,2.192,0,0,0-.473-1.475,1.862,1.862,0,0,0-1.494-.553,2.117,2.117,0,0,0-1.408.43,1.462,1.462,0,0,0-.51,1.18H64.475a3.569,3.569,0,0,1,.713-2.139A4.714,4.714,0,0,1,67.2,41.227a7.349,7.349,0,0,1,2.926-.559,5.806,5.806,0,0,1,3.9,1.236,4.323,4.323,0,0,1,1.445,3.473v5.766a6.36,6.36,0,0,0,.529,2.865v.209Zm-2.939-2.471a3.06,3.06,0,0,0,1.451-.35,2.3,2.3,0,0,0,.984-.941V48.167H70.586q-2.668,0-2.84,1.844l-.012.209a1.423,1.423,0,0,0,.467,1.094A1.815,1.815,0,0,0,69.479,51.745Zm16.2-7.5a9.653,9.653,0,0,0-1.279-.1,2.6,2.6,0,0,0-2.643,1.365v8.7H78.209v-13.3h3.357l.1,1.586a3.292,3.292,0,0,1,2.963-1.832,3.723,3.723,0,0,1,1.107.16Zm9.049,9.971a3.946,3.946,0,0,1-.357-1.193,4.3,4.3,0,0,1-3.357,1.439,4.723,4.723,0,0,1-3.24-1.131A3.638,3.638,0,0,1,86.5,50.479a3.759,3.759,0,0,1,1.568-3.246,7.735,7.735,0,0,1,4.531-1.143h1.635v-.762a2.192,2.192,0,0,0-.473-1.475,1.862,1.862,0,0,0-1.494-.553,2.117,2.117,0,0,0-1.408.43,1.462,1.462,0,0,0-.51,1.18H86.791A3.569,3.569,0,0,1,87.5,42.77a4.714,4.714,0,0,1,2.016-1.543,7.349,7.349,0,0,1,2.926-.559,5.806,5.806,0,0,1,3.9,1.236,4.323,4.323,0,0,1,1.445,3.473v5.766a6.36,6.36,0,0,0,.529,2.865v.209Zm-2.939-2.471a3.06,3.06,0,0,0,1.451-.35,2.3,2.3,0,0,0,.984-.941V48.167H92.9q-2.668,0-2.84,1.844l-.012.209a1.423,1.423,0,0,0,.467,1.094A1.815,1.815,0,0,0,91.795,51.745Zm12.984-14.1v3.27h2.275V43.52h-2.275v6.639a1.585,1.585,0,0,0,.283,1.057,1.42,1.42,0,0,0,1.082.32,5.666,5.666,0,0,0,1.045-.086v2.693a7.315,7.315,0,0,1-2.152.32q-3.738,0-3.811-3.775V43.52H99.283V40.913h1.943v-3.27Zm8,16.574h-3.566v-13.3h3.566ZM109.008,37.47a1.75,1.75,0,0,1,.535-1.316,2.3,2.3,0,0,1,2.908,0,1.878,1.878,0,0,1-.006,2.643,2.279,2.279,0,0,1-2.889,0A1.745,1.745,0,0,1,109.008,37.47Zm11.68,12.406,2.471-8.963h3.713l-4.488,13.3h-3.393l-4.488-13.3h3.713Zm7.008-2.434a7.89,7.89,0,0,1,.762-3.529,5.58,5.58,0,0,1,2.195-2.4,6.4,6.4,0,0,1,3.326-.848,6.058,6.058,0,0,1,4.4,1.648,6.612,6.612,0,0,1,1.9,4.475l.025.91a6.953,6.953,0,0,1-1.709,4.912,6.624,6.624,0,0,1-9.178.006A7.076,7.076,0,0,1,127.7,47.6Zm3.553.252a4.973,4.973,0,0,0,.713,2.9,2.562,2.562,0,0,0,4.057.012,5.441,5.441,0,0,0,.725-3.171,4.923,4.923,0,0,0-.725-2.881,2.358,2.358,0,0,0-2.041-1.022,2.32,2.32,0,0,0-2.016,1.016A5.533,5.533,0,0,0,131.25,47.694Z" transform="translate(842.758 2346.741)" fill="#003680"/>
    <path id="Trazado_153308" data-name="Trazado 153308" d="M1087.9,263.853c0,.006,0,.266,0,.381v.027h0a118.228,118.228,0,0,1-69.372,107.574c-.09.041-.177.085-.266.126-1.6.724-3.231,1.4-4.871,2.051-.307.122-.607.256-.915.376-1.485.576-2.991,1.105-4.5,1.623-.481.165-.955.343-1.439.5-1.39.456-2.8.866-4.212,1.271-.624.179-1.243.371-1.871.54-1.312.353-2.641.663-3.971.971-.75.174-1.494.359-2.25.518-1.243.262-2.5.486-3.758.708-.861.153-1.718.313-2.585.448-1.184.182-2.379.329-3.575.476-.961.118-1.921.241-2.889.336-1.124.11-2.256.188-3.39.266-1.058.073-2.115.147-3.181.192s-2.15.061-3.228.078c-1.142.017-2.283.03-3.431.015-1.027-.014-2.056-.053-3.088-.093-1.218-.048-2.439-.1-3.666-.189-.4-.027-.79-.029-1.19-.061-.743-.059-1.477-.155-2.216-.228-.606-.059-1.205-.086-1.812-.153-.205-.023-.4-.071-.606-.1-2.622-.315-5.213-.729-7.782-1.216-.936-.176-1.87-.353-2.8-.551q-3.277-.707-6.487-1.6-1.945-.534-3.862-1.133-2.355-.741-4.667-1.582-2.736-.981-5.406-2.093c-.161-.068-.319-.141-.48-.209A118.648,118.648,0,0,1,855.738,294.8c-.075-.275-.143-.553-.216-.829q-1.05-4.053-1.815-8.205-.316-1.708-.58-3.432c-.152-1.005-.381-1.985-.507-3a122.378,122.378,0,0,1-.911-12.409c-.458-20.62-12.27-39.271-31.1-47.694a52.7,52.7,0,0,0-55.958,8.379,118.71,118.71,0,0,1-17.992,12.749l-.028.016q-2.367,1.368-4.8,2.627l-.445.227q-2.246,1.15-4.546,2.207c-.222.1-.444.2-.666.3q-2.229,1.008-4.508,1.923c-.246.1-.491.2-.738.3q-2.305.911-4.657,1.722c-.219.076-.436.157-.656.232q-2.536.862-5.124,1.612c-.089.026-.177.055-.266.081a117.2,117.2,0,0,1-16.9,3.52c-.481.065-.966.108-1.448.166-1.386.167-2.776.32-4.176.438-.671.057-1.349.094-2.024.139-1.219.082-2.44.154-3.67.2-.78.028-1.564.04-2.349.053-.642.011-1.279.044-1.924.044-.478,0-.95-.028-1.427-.034q-1.389-.017-2.784-.067-1.509-.052-3.008-.144c-.562-.033-1.119-.039-1.682-.08-.542-.04-1.076-.109-1.616-.156q-.871-.078-1.737-.168-2-.205-3.981-.477c-.452-.063-.9-.127-1.353-.2q-2.073-.311-4.125-.694c-.431-.081-.862-.162-1.292-.247q-2-.4-3.977-.866c-.483-.113-.965-.225-1.446-.344q-1.808-.451-3.591-.96c-.6-.171-1.208-.34-1.807-.52-1.011-.3-2.013-.628-3.012-.958-.771-.254-1.541-.506-2.3-.776s-1.518-.556-2.273-.841c-.988-.372-1.974-.746-2.949-1.143-.462-.188-.918-.388-1.377-.583-1.243-.524-2.48-1.06-3.7-1.626-.119-.055-.234-.114-.352-.169a118.515,118.515,0,0,1-29.817-19.9c-13.5-12.347-33.318-14.932-50.022-7.46l-6.274,2.808a47.458,47.458,0,0,0-28.08,43.383v.3A118.249,118.249,0,0,1,392.066,381.607c-53.593-6.009-96.929-48.756-103.6-102.271a122.386,122.386,0,0,1-.911-12.409c-.457-20.62-12.27-39.271-31.1-47.694a52.154,52.154,0,0,0-55.506,7.947,117.673,117.673,0,0,1-86.27,28.663C57.166,251.626,10.391,205.176,5.811,147.687A118.239,118.239,0,0,1,133.11,20.323C190.733,24.885,237.258,71.837,241.346,129.5q.21,2.962.275,5.9c.456,20.619,12.27,39.269,31.267,47.768l.873.39a50.663,50.663,0,0,0,54.1-8.1,117.872,117.872,0,0,1,157.389,1.641c13.505,12.347,33.319,14.932,50.022,7.459l6.275-2.806a47.46,47.46,0,0,0,28.077-43.328,117.567,117.567,0,0,1,28.99-77.789l.034-.041q1.848-2.12,3.794-4.146c.093-.1.184-.2.278-.294q1.86-1.927,3.806-3.768c.162-.154.324-.309.488-.462q1.879-1.762,3.836-3.44.332-.287.666-.569,1.906-1.615,3.882-3.149c.272-.211.544-.419.817-.627q1.941-1.482,3.942-2.885c.312-.219.628-.433.943-.649q1.981-1.357,4.012-2.64c.348-.218.7-.428,1.051-.644,1.348-.826,2.708-1.634,4.091-2.407.374-.21.754-.408,1.131-.613,1.383-.754,2.774-1.491,4.19-2.19.388-.192.782-.37,1.173-.557,1.422-.683,2.851-1.353,4.3-1.98.4-.171.8-.325,1.2-.492,1.469-.615,2.944-1.219,4.443-1.775.358-.134.724-.249,1.083-.379,1.558-.56,3.12-1.11,4.707-1.606.192-.06.39-.109.584-.169a117.069,117.069,0,0,1,15.92-3.69c.466-.075.925-.172,1.394-.241,1.147-.169,2.309-.286,3.466-.422.967-.114,1.929-.247,2.9-.338,1.019-.094,2.049-.143,3.074-.211,1.133-.075,2.264-.163,3.406-.206.952-.035,1.914-.032,2.872-.044,1.229-.017,2.457-.039,3.7-.017.915.016,1.837.065,2.757.1.957.038,1.907.046,2.869.107.375.024.744.07,1.119.1.241.018.479.018.72.038.562.044,1.114.119,1.673.171.946.089,1.891.179,2.831.29.891.106,1.777.233,2.663.359.866.123,1.733.245,2.593.388.944.156,1.88.334,2.816.513.8.152,1.593.3,2.384.47.979.208,1.95.439,2.921.672.735.176,1.472.35,2.2.541,1.005.262,2,.547,3,.835.689.2,1.378.4,2.062.607,1.008.313,2.007.648,3,.987.66.225,1.321.444,1.976.68,1,.359,1.984.741,2.97,1.127.643.251,1.287.5,1.924.76.966.4,1.919.817,2.872,1.24.648.286,1.3.569,1.941.868.91.424,1.807.867,2.7,1.313.673.334,1.347.663,2.013,1.009.839.438,1.666.894,2.494,1.35.707.39,1.416.777,2.115,1.18.753.436,1.493.889,2.236,1.341.758.461,1.517.919,2.264,1.4.65.416,1.289.848,1.931,1.275.822.549,1.643,1.1,2.451,1.664.533.375,1.056.763,1.582,1.147.9.653,1.793,1.309,2.672,1.986.407.314.8.639,1.207.958.98.776,1.954,1.558,2.908,2.363.277.234.545.474.818.709,1.064.914,2.117,1.84,3.148,2.791.146.135.287.273.432.408q1.718,1.6,3.376,3.263c.018.019.036.038.055.056a117.556,117.556,0,0,1,34,73.74q.255,3.321.328,6.607c.457,20.621,12.268,39.273,31.1,47.7a52.219,52.219,0,0,0,53.252-6.128c.618-.494,1.243-.976,1.843-1.5a118.762,118.762,0,0,1,13.98-10.515c.023-.016.047-.03.07-.045q2.293-1.478,4.658-2.847l.334-.193q2.25-1.3,4.561-2.495l.483-.251q2.268-1.162,4.592-2.229c.178-.082.354-.166.533-.247q2.367-1.074,4.789-2.043c.138-.056.273-.114.411-.169q2.6-1.029,5.245-1.939l.06-.023a117.064,117.064,0,0,1,16.8-4.381c.232-.043.47-.074.7-.115,1.612-.284,3.232-.542,4.866-.76.546-.073,1.1-.126,1.645-.192,1.328-.158,2.66-.306,4-.419.705-.06,1.413-.1,2.121-.148,1.193-.079,2.387-.15,3.589-.193.809-.03,1.622-.044,2.436-.057.632-.01,1.258-.044,1.893-.044.474,0,.942.029,1.414.034.931.01,1.864.035,2.8.067q1.5.053,2.992.143c.562.033,1.118.039,1.683.08.547.04,1.086.11,1.631.158q.867.076,1.728.167,2,.2,3.981.477c.454.063.907.127,1.36.195q2.076.311,4.13.7c.426.08.851.16,1.276.244q2.01.4,3.995.869c.477.112.954.223,1.429.341q1.816.453,3.611.965c.6.169,1.192.336,1.783.512,1.017.306,2.024.632,3.03.964.766.253,1.532.5,2.291.772s1.529.56,2.29.847c.979.368,1.956.739,2.923,1.132.471.192.936.4,1.4.6,1.237.522,2.468,1.055,3.683,1.618.116.053.23.111.345.165a120.857,120.857,0,0,1,29.833,19.906l.053.05s17.732,13.262,26.372,33.565c13.913,32.7,12.076,53.144,12.076,53.144" transform="translate(246 2022.293)" fill="#43efd4"/>
    <path id="Trazado_153309" data-name="Trazado 153309" d="M123.539,50.774a87.282,87.282,0,1,1-87.282,87.282,87.283,87.283,0,0,1,87.282-87.282" transform="translate(246 2022.293)" fill="#fff"/>
    <path id="Trazado_154774" data-name="Trazado 154774" d="M0,51.467V0" transform="translate(651.639 2109.458)" fill="none" stroke="#22786a" stroke-linecap="round" stroke-width="2" stroke-dasharray="0 4.117"/>
    <path id="Trazado_154775" data-name="Trazado 154775" d="M0,52.3V0" transform="translate(1215.838 2109.337)" fill="none" stroke="#22786a" stroke-linecap="round" stroke-width="2" stroke-dasharray="0 3.874"/>
    <path id="Trazado_154776" data-name="Trazado 154776" d="M0,0V51.746" transform="translate(369.54 2285.683)" fill="none" stroke="#22786a" stroke-linecap="round" stroke-width="2" stroke-dasharray="0 4.14"/>
    <path id="Trazado_154773" data-name="Trazado 154773" d="M0,0V52.463" transform="translate(933.738 2285.094)" fill="none" stroke="#22786a" stroke-linecap="round" stroke-width="2" stroke-dasharray="0 3.886"/>
    <path id="Trazado_153310" data-name="Trazado 153310" d="M492.921,264.258a87.283,87.283,0,1,1-87.282-87.282,87.282,87.282,0,0,1,87.282,87.282" transform="translate(246 2022.293)" fill="#fff"/>
    <path id="Trazado_153311" data-name="Trazado 153311" d="M773.869,123.925a87.282,87.282,0,1,1-100.262-72,87.281,87.281,0,0,1,100.262,72" transform="translate(246 2022.293)" fill="#fff"/>
    <path id="Trazado_153312" data-name="Trazado 153312" d="M1057.12,264.258a87.282,87.282,0,1,1-87.282-87.282,87.281,87.281,0,0,1,87.282,87.282" transform="translate(246 2022.293)" fill="#fff"/>
    <path id="Trazado_153322" data-name="Trazado 153322" d="M259.826,411.817H21.266C9.521,411.817,0,398.315,0,381.661V311.926H240.783c10.517,0,19.043,12.09,19.043,27.005Z" transform="translate(246 2030.338)" fill="#43efd4"/>
    <path id="Trazado_154772" data-name="Trazado 154772" d="M62.387,24H58.7V6.1h3.689Zm6.455-13.3.111,1.537a4.645,4.645,0,0,1,3.824-1.783,3.86,3.86,0,0,1,3.148,1.242,5.794,5.794,0,0,1,1.057,3.713V24H73.428V15.472a2.314,2.314,0,0,0-.492-1.645,2.2,2.2,0,0,0-1.635-.511,2.443,2.443,0,0,0-2.25,1.282V24H65.5V10.7ZM80.645,24V13.3H78.666V10.7h1.979V9.566A4.593,4.593,0,0,1,81.93,6.092a4.976,4.976,0,0,1,3.6-1.236,8.375,8.375,0,0,1,1.807.244L87.3,7.832a4.53,4.53,0,0,0-1.082-.111q-2,0-2,1.9V10.7h2.643V13.3H84.211V24Zm7.5-6.775a7.89,7.89,0,0,1,.762-3.529A5.58,5.58,0,0,1,91.1,11.3a6.4,6.4,0,0,1,3.326-.848,6.058,6.058,0,0,1,4.4,1.648,6.612,6.612,0,0,1,1.9,4.475l.025.91A6.953,6.953,0,0,1,99.039,22.4a6.624,6.624,0,0,1-9.178.006,7.075,7.075,0,0,1-1.715-5.016Zm3.553.252a4.973,4.973,0,0,0,.713,2.9,2.562,2.562,0,0,0,4.057.012,5.441,5.441,0,0,0,.725-3.171,4.923,4.923,0,0,0-.725-2.881,2.358,2.358,0,0,0-2.041-1.022,2.32,2.32,0,0,0-2.016,1.016A5.533,5.533,0,0,0,91.7,17.478Zm18.713-3.449a9.653,9.653,0,0,0-1.279-.1,2.6,2.6,0,0,0-2.643,1.365V24h-3.553V10.7h3.357l.1,1.586a3.292,3.292,0,0,1,2.963-1.832,3.723,3.723,0,0,1,1.107.16Zm5.041-3.332.111,1.488a4.675,4.675,0,0,1,3.824-1.734,3.548,3.548,0,0,1,3.529,2.029,4.568,4.568,0,0,1,4-2.029,3.968,3.968,0,0,1,3.221,1.26A5.793,5.793,0,0,1,131.19,15.5V24h-3.566V15.5a2.543,2.543,0,0,0-.443-1.657,1.959,1.959,0,0,0-1.561-.524,2.218,2.218,0,0,0-2.213,1.528L123.42,24h-3.553V15.509a2.512,2.512,0,0,0-.455-1.676,1.978,1.978,0,0,0-1.549-.518,2.3,2.3,0,0,0-2.189,1.257V24h-3.553V10.7Zm24.59,13.549a6.531,6.531,0,0,1-4.764-1.8,6.381,6.381,0,0,1-1.838-4.783v-.344a8.036,8.036,0,0,1,.775-3.584,5.685,5.685,0,0,1,2.195-2.434,6.16,6.16,0,0,1,3.24-.855,5.521,5.521,0,0,1,4.3,1.721,6.994,6.994,0,0,1,1.568,4.881V18.5h-8.471a3.3,3.3,0,0,0,1.039,2.09,3.141,3.141,0,0,0,2.195.787,3.835,3.835,0,0,0,3.209-1.488l1.746,1.955a5.334,5.334,0,0,1-2.164,1.764A7.1,7.1,0,0,1,140.043,24.246Zm-.406-10.93a2.22,2.22,0,0,0-1.715.716,3.709,3.709,0,0,0-.842,2.05h4.943V15.8a2.645,2.645,0,0,0-.639-1.834A2.291,2.291,0,0,0,139.637,13.316ZM27.93,54.216H24.365v-13.3H27.93ZM24.156,37.47a1.75,1.75,0,0,1,.535-1.316,2.3,2.3,0,0,1,2.908,0,1.878,1.878,0,0,1-.006,2.643,2.279,2.279,0,0,1-2.889,0A1.745,1.745,0,0,1,24.156,37.47Zm9.971,3.443.111,1.537a4.645,4.645,0,0,1,3.824-1.783,3.86,3.86,0,0,1,3.148,1.242,5.794,5.794,0,0,1,1.057,3.713v8.594H38.713V45.689a2.314,2.314,0,0,0-.492-1.645,2.2,2.2,0,0,0-1.635-.511,2.443,2.443,0,0,0-2.25,1.282v9.4H30.783v-13.3Zm11.8,13.3V43.52h-1.98V40.913h1.98V39.782a4.593,4.593,0,0,1,1.285-3.473,4.976,4.976,0,0,1,3.6-1.236,8.375,8.375,0,0,1,1.807.244l-.037,2.732a4.53,4.53,0,0,0-1.082-.111q-2,0-2,1.9v1.079h2.643V43.52H49.5v10.7Zm7.5-6.775a7.89,7.89,0,0,1,.762-3.529,5.58,5.58,0,0,1,2.195-2.4,6.4,6.4,0,0,1,3.326-.848,6.058,6.058,0,0,1,4.4,1.648,6.612,6.612,0,0,1,1.9,4.475l.025.91a6.953,6.953,0,0,1-1.709,4.912,6.624,6.624,0,0,1-9.178.006A7.075,7.075,0,0,1,53.43,47.6Zm3.553.252a4.973,4.973,0,0,0,.713,2.9,2.562,2.562,0,0,0,4.057.012,5.441,5.441,0,0,0,.725-3.171,4.923,4.923,0,0,0-.725-2.881,2.358,2.358,0,0,0-2.041-1.022A2.32,2.32,0,0,0,57.7,44.548,5.533,5.533,0,0,0,56.983,47.694ZM67.7,47.466a7.8,7.8,0,0,1,1.457-4.93,4.721,4.721,0,0,1,3.928-1.869,4.14,4.14,0,0,1,3.406,1.5l.148-1.254h3.221V53.774a5.686,5.686,0,0,1-.793,3.037,5.093,5.093,0,0,1-2.232,1.967,7.845,7.845,0,0,1-3.369.676,7.3,7.3,0,0,1-2.852-.584,5.063,5.063,0,0,1-2.1-1.506L70.09,55.2a4.162,4.162,0,0,0,3.221,1.488,3.046,3.046,0,0,0,2.2-.756,2.836,2.836,0,0,0,.787-2.145v-.713a4.11,4.11,0,0,1-3.234,1.389,4.709,4.709,0,0,1-3.879-1.875A7.794,7.794,0,0,1,67.7,47.614Zm3.553.253a4.881,4.881,0,0,0,.725,2.847A2.306,2.306,0,0,0,73.975,51.6,2.466,2.466,0,0,0,76.3,50.375v-5.62A2.46,2.46,0,0,0,74,43.532a2.32,2.32,0,0,0-2.01,1.05A5.5,5.5,0,0,0,71.258,47.719Zm18.811-3.474a9.653,9.653,0,0,0-1.279-.1,2.6,2.6,0,0,0-2.643,1.365v8.7H82.594v-13.3h3.357l.1,1.586a3.292,3.292,0,0,1,2.963-1.832,3.723,3.723,0,0,1,1.107.16Zm9.049,9.971a3.946,3.946,0,0,1-.357-1.193,4.3,4.3,0,0,1-3.357,1.439,4.723,4.723,0,0,1-3.24-1.131,3.638,3.638,0,0,1-1.285-2.852,3.759,3.759,0,0,1,1.568-3.246,7.735,7.735,0,0,1,4.531-1.143h1.635v-.762a2.192,2.192,0,0,0-.473-1.475,1.862,1.862,0,0,0-1.494-.553,2.117,2.117,0,0,0-1.408.43,1.462,1.462,0,0,0-.51,1.18H91.176a3.569,3.569,0,0,1,.713-2.139,4.714,4.714,0,0,1,2.016-1.543,7.349,7.349,0,0,1,2.926-.559,5.806,5.806,0,0,1,3.9,1.236,4.323,4.323,0,0,1,1.445,3.473v5.766a6.36,6.36,0,0,0,.529,2.865v.209ZM96.18,51.745a3.06,3.06,0,0,0,1.451-.35,2.3,2.3,0,0,0,.984-.941V48.167H97.287q-2.668,0-2.84,1.844l-.012.209a1.423,1.423,0,0,0,.467,1.094A1.815,1.815,0,0,0,96.18,51.745Zm1.352-16.414h3.873L98,39.143H95.11Zm8.238,18.885V43.52h-1.98V40.913h1.98V40.3a4.989,4.989,0,0,1,1.543-3.867,6.208,6.208,0,0,1,4.285-1.359,14.213,14.213,0,0,1,4.033.725l-.516,2.939a15.735,15.735,0,0,0-1.869-.461,9.182,9.182,0,0,0-1.426-.1q-2.484,0-2.484,2.2v.541h2.619V43.52h-2.619v10.7Zm11.52,0h-3.566v-13.3h3.566Zm8.471-2.619a2.331,2.331,0,0,0,1.6-.541A1.9,1.9,0,0,0,128,49.618h3.332a4.558,4.558,0,0,1-.738,2.477,4.868,4.868,0,0,1-1.986,1.746,6.214,6.214,0,0,1-2.785.621,5.775,5.775,0,0,1-4.5-1.814,7.177,7.177,0,0,1-1.648-5.01V47.4a7.094,7.094,0,0,1,1.635-4.906,5.708,5.708,0,0,1,4.488-1.832,5.6,5.6,0,0,1,4,1.42,5.028,5.028,0,0,1,1.531,3.781H128a2.442,2.442,0,0,0-.639-1.687,2.376,2.376,0,0,0-3.5.256,5.245,5.245,0,0,0-.633,2.937v.369a5.312,5.312,0,0,0,.627,2.955A2.167,2.167,0,0,0,125.762,51.6Zm7.045-4.156a7.89,7.89,0,0,1,.762-3.529,5.58,5.58,0,0,1,2.195-2.4,6.4,6.4,0,0,1,3.326-.848,6.058,6.058,0,0,1,4.4,1.648,6.612,6.612,0,0,1,1.9,4.475l.025.91a6.953,6.953,0,0,1-1.709,4.912,6.624,6.624,0,0,1-9.178.006,7.075,7.075,0,0,1-1.715-5.016Zm3.553.252a4.973,4.973,0,0,0,.713,2.9,2.562,2.562,0,0,0,4.057.012,5.441,5.441,0,0,0,.725-3.171,4.923,4.923,0,0,0-.725-2.881,2.358,2.358,0,0,0-2.041-1.022,2.32,2.32,0,0,0-2.016,1.016A5.533,5.533,0,0,0,136.36,47.694Zm23.631,6.768a6.531,6.531,0,0,1-4.764-1.8,6.381,6.381,0,0,1-1.838-4.783V47.54a8.036,8.036,0,0,1,.775-3.584,5.685,5.685,0,0,1,2.195-2.434,6.16,6.16,0,0,1,3.24-.855,5.521,5.521,0,0,1,4.3,1.721,6.994,6.994,0,0,1,1.568,4.881V48.72h-8.471a3.3,3.3,0,0,0,1.039,2.09,3.141,3.141,0,0,0,2.195.787,3.835,3.835,0,0,0,3.209-1.488l1.746,1.955a5.334,5.334,0,0,1-2.164,1.764A7.1,7.1,0,0,1,159.991,54.462Zm-.406-10.93a2.22,2.22,0,0,0-1.715.716,3.709,3.709,0,0,0-.842,2.05h4.943v-.284a2.645,2.645,0,0,0-.639-1.834A2.291,2.291,0,0,0,159.586,43.532Zm11.164-2.619.111,1.537a4.645,4.645,0,0,1,3.824-1.783,3.86,3.86,0,0,1,3.148,1.242,5.794,5.794,0,0,1,1.057,3.713v8.594h-3.553V45.689a2.314,2.314,0,0,0-.492-1.645,2.2,2.2,0,0,0-1.635-.511,2.443,2.443,0,0,0-2.25,1.282v9.4h-3.553v-13.3ZM43.127,67.859v3.27H45.4v2.607H43.127v6.639a1.585,1.585,0,0,0,.283,1.057,1.42,1.42,0,0,0,1.082.32,5.667,5.667,0,0,0,1.045-.086v2.693a7.315,7.315,0,0,1-2.152.32q-3.738,0-3.811-3.775V73.736H37.631V71.129h1.943v-3.27Zm8,16.574H47.565v-13.3h3.566ZM47.356,67.687a1.75,1.75,0,0,1,.535-1.316,2.3,2.3,0,0,1,2.908,0,1.878,1.878,0,0,1-.006,2.643,2.279,2.279,0,0,1-2.889,0A1.745,1.745,0,0,1,47.356,67.687ZM60.18,84.679a6.531,6.531,0,0,1-4.764-1.8A6.381,6.381,0,0,1,53.578,78.1v-.344a8.036,8.036,0,0,1,.775-3.584,5.685,5.685,0,0,1,2.195-2.434,6.16,6.16,0,0,1,3.24-.855,5.521,5.521,0,0,1,4.3,1.721,6.994,6.994,0,0,1,1.568,4.881v1.451H57.18a3.3,3.3,0,0,0,1.039,2.09,3.141,3.141,0,0,0,2.195.787,3.835,3.835,0,0,0,3.209-1.488l1.746,1.955A5.334,5.334,0,0,1,63.2,84.045,7.1,7.1,0,0,1,60.18,84.679Zm-.406-10.93a2.22,2.22,0,0,0-1.715.716,3.709,3.709,0,0,0-.842,2.05H62.16v-.284A2.645,2.645,0,0,0,61.52,74.4,2.291,2.291,0,0,0,59.774,73.748ZM71,71.129l.111,1.488a4.675,4.675,0,0,1,3.824-1.734,3.548,3.548,0,0,1,3.529,2.029,4.568,4.568,0,0,1,4-2.029,3.968,3.968,0,0,1,3.221,1.26,5.793,5.793,0,0,1,1.057,3.793v8.5H83.172v-8.5a2.543,2.543,0,0,0-.443-1.657,1.959,1.959,0,0,0-1.561-.524,2.218,2.218,0,0,0-2.213,1.528l.012,9.156H75.414V75.942a2.512,2.512,0,0,0-.455-1.676,1.978,1.978,0,0,0-1.549-.518,2.3,2.3,0,0,0-2.189,1.257v9.427H67.668v-13.3ZM101.442,77.9a7.979,7.979,0,0,1-1.4,4.924,4.474,4.474,0,0,1-3.768,1.85,4.144,4.144,0,0,1-3.258-1.4v6.27H89.467V71.129h3.3l.123,1.3a4.176,4.176,0,0,1,3.369-1.549,4.5,4.5,0,0,1,3.824,1.82,8.2,8.2,0,0,1,1.365,5.016Zm-3.553-.271a5.265,5.265,0,0,0-.658-2.874,2.141,2.141,0,0,0-1.912-1.011,2.326,2.326,0,0,0-2.3,1.283v5.463a2.365,2.365,0,0,0,2.324,1.32Q97.889,81.814,97.889,77.633Zm5.2.025a7.89,7.89,0,0,1,.762-3.529,5.58,5.58,0,0,1,2.195-2.4,6.4,6.4,0,0,1,3.326-.848,6.058,6.058,0,0,1,4.4,1.648,6.612,6.612,0,0,1,1.9,4.475l.025.91a6.953,6.953,0,0,1-1.709,4.912,6.624,6.624,0,0,1-9.178.006,7.075,7.075,0,0,1-1.715-5.016Zm3.553.252a4.973,4.973,0,0,0,.713,2.9,2.562,2.562,0,0,0,4.057.012,5.441,5.441,0,0,0,.725-3.171,4.923,4.923,0,0,0-.725-2.881,2.358,2.358,0,0,0-2.041-1.022,2.32,2.32,0,0,0-2.016,1.016A5.533,5.533,0,0,0,106.643,77.91Zm24.984-3.449a9.654,9.654,0,0,0-1.279-.1,2.6,2.6,0,0,0-2.643,1.365v8.7h-3.553v-13.3h3.357l.1,1.586a3.292,3.292,0,0,1,2.963-1.832,3.723,3.723,0,0,1,1.107.16Zm7.6,10.217a6.531,6.531,0,0,1-4.764-1.8,6.381,6.381,0,0,1-1.838-4.783v-.344a8.036,8.036,0,0,1,.775-3.584,5.685,5.685,0,0,1,2.195-2.434,6.16,6.16,0,0,1,3.24-.855,5.521,5.521,0,0,1,4.3,1.721,6.994,6.994,0,0,1,1.568,4.881v1.451h-8.471a3.3,3.3,0,0,0,1.039,2.09,3.141,3.141,0,0,0,2.195.787,3.835,3.835,0,0,0,3.209-1.488l1.746,1.955a5.334,5.334,0,0,1-2.164,1.764A7.1,7.1,0,0,1,139.225,84.679Zm-.406-10.93a2.22,2.22,0,0,0-1.715.716,3.709,3.709,0,0,0-.842,2.05H141.2v-.284a2.645,2.645,0,0,0-.639-1.834A2.291,2.291,0,0,0,138.819,73.748Zm15.6,10.684a3.945,3.945,0,0,1-.357-1.193,4.3,4.3,0,0,1-3.357,1.439,4.723,4.723,0,0,1-3.24-1.131,3.638,3.638,0,0,1-1.285-2.852,3.759,3.759,0,0,1,1.568-3.246,7.735,7.735,0,0,1,4.531-1.143h1.635v-.762a2.192,2.192,0,0,0-.473-1.475,1.862,1.862,0,0,0-1.494-.553,2.117,2.117,0,0,0-1.408.43,1.462,1.462,0,0,0-.51,1.18h-3.553a3.569,3.569,0,0,1,.713-2.139,4.714,4.714,0,0,1,2.016-1.543,7.349,7.349,0,0,1,2.926-.559,5.806,5.806,0,0,1,3.9,1.236,4.323,4.323,0,0,1,1.445,3.473v5.766a6.36,6.36,0,0,0,.529,2.865v.209Zm-2.939-2.471a3.06,3.06,0,0,0,1.451-.35,2.3,2.3,0,0,0,.984-.941V78.384H152.59q-2.668,0-2.84,1.844l-.012.209a1.423,1.423,0,0,0,.467,1.094A1.815,1.815,0,0,0,151.483,81.961Zm12.48,2.471H160.4V65.548h3.566Z" transform="translate(271.968 2345.636)" fill="#003680"/>
    <g id="Grupo_90526" data-name="Grupo 90526">
      <path id="Trazado_153334" data-name="Trazado 153334" d="M997.482,205.364a29.187,29.187,0,0,1,5.131,2.28,11.287,11.287,0,0,1,4.913,9.868q-.028,15.12-.006,30.239v33.786a67.108,67.108,0,0,1,6.545,3.364,21.448,21.448,0,0,1,9.108,22.5c-2.2,9.194-9.256,15.712-18.39,16.859a20.942,20.942,0,0,1-17.609-5.747,2.739,2.739,0,0,0-2.055-.789q-23.789.03-47.577.01a11.557,11.557,0,0,1-10.988-6.644,11.738,11.738,0,0,1-1.214-5.5q.031-14.188.01-28.378c0-14.189.028-28.378-.022-42.567a12.274,12.274,0,0,1,3.282-8.664q7.487-8.283,14.84-16.685a12.673,12.673,0,0,1,6.8-3.927Zm5.327,75.773c.022-.419.054-.76.054-1.1q0-31.226-.005-62.453a9.037,9.037,0,0,0-.19-2.074c-.822-3.453-3.555-5.487-7.363-5.489q-21.461-.012-42.922,0c-.233,0-.466.016-.7.006-.991-.042-1.4.3-1.388,1.415.069,4.883.038,9.768.027,14.653-.009,4.383-2.383,6.766-6.739,6.776-4.071.009-8.143,0-12.214,0H930v1.651q0,35.355,0,70.711c0,4.993,2.864,7.849,7.869,7.849q21.812,0,43.621,0h1.293c-8-15.523,4.264-32.483,20.022-31.944m16.208,21.649a17,17,0,1,0-17,17.036,16.94,16.94,0,0,0,17-17.036m-73.438-88.847c-4.271,4.8-8.384,9.427-12.631,14.2.52.034.813.069,1.106.07,3.212,0,6.424.009,9.636,0,1.606-.005,1.973-.372,1.978-2,.011-3.715,0-7.429,0-11.144,0-.291-.045-.582-.09-1.134" transform="translate(246 2022.293)" fill="#003680"/>
      <path id="Trazado_153335" data-name="Trazado 153335" d="M967.226,245.638q-8.715,0-17.429,0a8.466,8.466,0,0,1-1.39-.063,2.268,2.268,0,0,1-1.888-2.187,2.235,2.235,0,0,1,1.675-2.229,4.886,4.886,0,0,1,1.257-.166q17.836-.012,35.672-.008a2.617,2.617,0,0,1,2.687,1.441,2.284,2.284,0,0,1-2.225,3.2c-2.788.052-5.577.018-8.366.019q-5,0-9.993,0" transform="translate(246 2022.293)" fill="#003680"/>
      <path id="Trazado_153336" data-name="Trazado 153336" d="M967.226,279.863q-8.715,0-17.43,0a8.826,8.826,0,0,1-1.39-.066,2.261,2.261,0,0,1-1.887-2.184,2.224,2.224,0,0,1,1.673-2.231,6.278,6.278,0,0,1,1.492-.163q17.6-.014,35.208,0a5.87,5.87,0,0,1,1.49.175,2.27,2.27,0,0,1-.221,4.393,9.1,9.1,0,0,1-1.506.075q-8.714.008-17.429,0" transform="translate(246 2022.293)" fill="#003680"/>
      <path id="Trazado_153337" data-name="Trazado 153337" d="M962.555,262.788c-4.259,0-8.518.006-12.777-.007a6.745,6.745,0,0,1-1.606-.171,2.211,2.211,0,0,1-1.652-2.243,2.282,2.282,0,0,1,1.9-2.172,7.325,7.325,0,0,1,1.158-.058q13.009,0,26.019,0a6.831,6.831,0,0,1,1.273.074,2.238,2.238,0,0,1,1.795,2.138,2.166,2.166,0,0,1-1.617,2.256,6.532,6.532,0,0,1-1.6.176c-4.3.013-8.6.007-12.894.007" transform="translate(246 2022.293)" fill="#003680"/>
      <path id="Trazado_153338" data-name="Trazado 153338" d="M962.1,292.356c4.26,0,8.521-.049,12.779.042a3.6,3.6,0,0,1,2.324.951,2.14,2.14,0,0,1-1.052,3.454,5.36,5.36,0,0,1-1.6.2q-12.432.016-24.864.008c-.232,0-.465.009-.7-.007a2.38,2.38,0,0,1-2.474-2.382,2.31,2.31,0,0,1,2.571-2.256c4.338-.021,8.675-.007,13.013-.008" transform="translate(246 2022.293)" fill="#003680"/>
      <path id="Trazado_153339" data-name="Trazado 153339" d="M985.652,258.167a2.217,2.217,0,0,1,2.341,2.2,2.309,2.309,0,0,1-2.178,2.4,2.4,2.4,0,0,1-2.433-2.3,2.281,2.281,0,0,1,2.27-2.3" transform="translate(246 2022.293)" fill="#003680"/>
      <path id="Trazado_153340" data-name="Trazado 153340" d="M1000.24,308.03c1.536-2.95,2.9-5.861,4.534-8.612a56.832,56.832,0,0,1,4.265-5.922,2.329,2.329,0,0,1,3.545-.555,2.371,2.371,0,0,1-.008,3.516c-3.884,4.486-6.391,9.743-8.591,15.174-1.021,2.522-2.225,2.923-4.547,1.438q-4.011-2.564-8.017-5.133c-.228-.147-.461-.287-.677-.45a2.314,2.314,0,1,1,2.52-3.878c1.984,1.2,3.919,2.49,5.876,3.74.354.226.715.443,1.1.682" transform="translate(246 2022.293)" fill="#003680"/>
    </g>
    <g id="Grupo_90527" data-name="Grupo 90527" transform="translate(-280.328 -129.241)">
      <path id="Trazado_153334-2" data-name="Trazado 153334" d="M997.482,205.364a29.187,29.187,0,0,1,5.131,2.28,11.287,11.287,0,0,1,4.913,9.868q-.028,15.12-.006,30.239v33.786a67.108,67.108,0,0,1,6.545,3.364,21.448,21.448,0,0,1,9.108,22.5c-2.2,9.194-9.256,15.712-18.39,16.859a20.942,20.942,0,0,1-17.609-5.747,2.739,2.739,0,0,0-2.055-.789q-23.789.03-47.577.01a11.557,11.557,0,0,1-10.988-6.644,11.738,11.738,0,0,1-1.214-5.5q.031-14.188.01-28.378c0-14.189.028-28.378-.022-42.567a12.274,12.274,0,0,1,3.282-8.664q7.487-8.283,14.84-16.685a12.673,12.673,0,0,1,6.8-3.927Zm5.327,75.773c.022-.419.054-.76.054-1.1q0-31.226-.005-62.453a9.037,9.037,0,0,0-.19-2.074c-.822-3.453-3.555-5.487-7.363-5.489q-21.461-.012-42.922,0c-.233,0-.466.016-.7.006-.991-.042-1.4.3-1.388,1.415.069,4.883.038,9.768.027,14.653-.009,4.383-2.383,6.766-6.739,6.776-4.071.009-8.143,0-12.214,0H930v1.651q0,35.355,0,70.711c0,4.993,2.864,7.849,7.869,7.849q21.812,0,43.621,0h1.293c-8-15.523,4.264-32.483,20.022-31.944m16.208,21.649a17,17,0,1,0-17,17.036,16.94,16.94,0,0,0,17-17.036m-73.438-88.847c-4.271,4.8-8.384,9.427-12.631,14.2.52.034.813.069,1.106.07,3.212,0,6.424.009,9.636,0,1.606-.005,1.973-.372,1.978-2,.011-3.715,0-7.429,0-11.144,0-.291-.045-.582-.09-1.134" transform="translate(246 2022.293)" fill="#003680"/>
      <path id="Trazado_153335-2" data-name="Trazado 153335" d="M967.226,245.638q-8.715,0-17.429,0a8.466,8.466,0,0,1-1.39-.063,2.268,2.268,0,0,1-1.888-2.187,2.235,2.235,0,0,1,1.675-2.229,4.886,4.886,0,0,1,1.257-.166q17.836-.012,35.672-.008a2.617,2.617,0,0,1,2.687,1.441,2.284,2.284,0,0,1-2.225,3.2c-2.788.052-5.577.018-8.366.019q-5,0-9.993,0" transform="translate(246 2022.293)" fill="#003680"/>
      <path id="Trazado_153336-2" data-name="Trazado 153336" d="M967.226,279.863q-8.715,0-17.43,0a8.826,8.826,0,0,1-1.39-.066,2.261,2.261,0,0,1-1.887-2.184,2.224,2.224,0,0,1,1.673-2.231,6.278,6.278,0,0,1,1.492-.163q17.6-.014,35.208,0a5.87,5.87,0,0,1,1.49.175,2.27,2.27,0,0,1-.221,4.393,9.1,9.1,0,0,1-1.506.075q-8.714.008-17.429,0" transform="translate(246 2022.293)" fill="#003680"/>
      <path id="Trazado_153337-2" data-name="Trazado 153337" d="M962.555,262.788c-4.259,0-8.518.006-12.777-.007a6.745,6.745,0,0,1-1.606-.171,2.211,2.211,0,0,1-1.652-2.243,2.282,2.282,0,0,1,1.9-2.172,7.325,7.325,0,0,1,1.158-.058q13.009,0,26.019,0a6.831,6.831,0,0,1,1.273.074,2.238,2.238,0,0,1,1.795,2.138,2.166,2.166,0,0,1-1.617,2.256,6.532,6.532,0,0,1-1.6.176c-4.3.013-8.6.007-12.894.007" transform="translate(246 2022.293)" fill="#003680"/>
      <path id="Trazado_153338-2" data-name="Trazado 153338" d="M962.1,292.356c4.26,0,8.521-.049,12.779.042a3.6,3.6,0,0,1,2.324.951,2.14,2.14,0,0,1-1.052,3.454,5.36,5.36,0,0,1-1.6.2q-12.432.016-24.864.008c-.232,0-.465.009-.7-.007a2.38,2.38,0,0,1-2.474-2.382,2.31,2.31,0,0,1,2.571-2.256c4.338-.021,8.675-.007,13.013-.008" transform="translate(246 2022.293)" fill="#003680"/>
      <path id="Trazado_153339-2" data-name="Trazado 153339" d="M985.652,258.167a2.217,2.217,0,0,1,2.341,2.2,2.309,2.309,0,0,1-2.178,2.4,2.4,2.4,0,0,1-2.433-2.3,2.281,2.281,0,0,1,2.27-2.3" transform="translate(246 2022.293)" fill="#003680"/>
      <path id="Trazado_153340-2" data-name="Trazado 153340" d="M1000.24,308.03c1.536-2.95,2.9-5.861,4.534-8.612a56.832,56.832,0,0,1,4.265-5.922,2.329,2.329,0,0,1,3.545-.555,2.371,2.371,0,0,1-.008,3.516c-3.884,4.486-6.391,9.743-8.591,15.174-1.021,2.522-2.225,2.923-4.547,1.438q-4.011-2.564-8.017-5.133c-.228-.147-.461-.287-.677-.45a2.314,2.314,0,1,1,2.52-3.878c1.984,1.2,3.919,2.49,5.876,3.74.354.226.715.443,1.1.682" transform="translate(246 2022.293)" fill="#003680"/>
    </g>
    <g id="Grupo_90528" data-name="Grupo 90528" transform="translate(-564.711 -1.105)">
      <path id="Trazado_153334-3" data-name="Trazado 153334" d="M997.482,205.364a29.187,29.187,0,0,1,5.131,2.28,11.287,11.287,0,0,1,4.913,9.868q-.028,15.12-.006,30.239v33.786a67.108,67.108,0,0,1,6.545,3.364,21.448,21.448,0,0,1,9.108,22.5c-2.2,9.194-9.256,15.712-18.39,16.859a20.942,20.942,0,0,1-17.609-5.747,2.739,2.739,0,0,0-2.055-.789q-23.789.03-47.577.01a11.557,11.557,0,0,1-10.988-6.644,11.738,11.738,0,0,1-1.214-5.5q.031-14.188.01-28.378c0-14.189.028-28.378-.022-42.567a12.274,12.274,0,0,1,3.282-8.664q7.487-8.283,14.84-16.685a12.673,12.673,0,0,1,6.8-3.927Zm5.327,75.773c.022-.419.054-.76.054-1.1q0-31.226-.005-62.453a9.037,9.037,0,0,0-.19-2.074c-.822-3.453-3.555-5.487-7.363-5.489q-21.461-.012-42.922,0c-.233,0-.466.016-.7.006-.991-.042-1.4.3-1.388,1.415.069,4.883.038,9.768.027,14.653-.009,4.383-2.383,6.766-6.739,6.776-4.071.009-8.143,0-12.214,0H930v1.651q0,35.355,0,70.711c0,4.993,2.864,7.849,7.869,7.849q21.812,0,43.621,0h1.293c-8-15.523,4.264-32.483,20.022-31.944m16.208,21.649a17,17,0,1,0-17,17.036,16.94,16.94,0,0,0,17-17.036m-73.438-88.847c-4.271,4.8-8.384,9.427-12.631,14.2.52.034.813.069,1.106.07,3.212,0,6.424.009,9.636,0,1.606-.005,1.973-.372,1.978-2,.011-3.715,0-7.429,0-11.144,0-.291-.045-.582-.09-1.134" transform="translate(246 2022.293)" fill="#003680"/>
      <path id="Trazado_153335-3" data-name="Trazado 153335" d="M967.226,245.638q-8.715,0-17.429,0a8.466,8.466,0,0,1-1.39-.063,2.268,2.268,0,0,1-1.888-2.187,2.235,2.235,0,0,1,1.675-2.229,4.886,4.886,0,0,1,1.257-.166q17.836-.012,35.672-.008a2.617,2.617,0,0,1,2.687,1.441,2.284,2.284,0,0,1-2.225,3.2c-2.788.052-5.577.018-8.366.019q-5,0-9.993,0" transform="translate(246 2022.293)" fill="#003680"/>
      <path id="Trazado_153336-3" data-name="Trazado 153336" d="M967.226,279.863q-8.715,0-17.43,0a8.826,8.826,0,0,1-1.39-.066,2.261,2.261,0,0,1-1.887-2.184,2.224,2.224,0,0,1,1.673-2.231,6.278,6.278,0,0,1,1.492-.163q17.6-.014,35.208,0a5.87,5.87,0,0,1,1.49.175,2.27,2.27,0,0,1-.221,4.393,9.1,9.1,0,0,1-1.506.075q-8.714.008-17.429,0" transform="translate(246 2022.293)" fill="#003680"/>
      <path id="Trazado_153337-3" data-name="Trazado 153337" d="M962.555,262.788c-4.259,0-8.518.006-12.777-.007a6.745,6.745,0,0,1-1.606-.171,2.211,2.211,0,0,1-1.652-2.243,2.282,2.282,0,0,1,1.9-2.172,7.325,7.325,0,0,1,1.158-.058q13.009,0,26.019,0a6.831,6.831,0,0,1,1.273.074,2.238,2.238,0,0,1,1.795,2.138,2.166,2.166,0,0,1-1.617,2.256,6.532,6.532,0,0,1-1.6.176c-4.3.013-8.6.007-12.894.007" transform="translate(246 2022.293)" fill="#003680"/>
      <path id="Trazado_153338-3" data-name="Trazado 153338" d="M962.1,292.356c4.26,0,8.521-.049,12.779.042a3.6,3.6,0,0,1,2.324.951,2.14,2.14,0,0,1-1.052,3.454,5.36,5.36,0,0,1-1.6.2q-12.432.016-24.864.008c-.232,0-.465.009-.7-.007a2.38,2.38,0,0,1-2.474-2.382,2.31,2.31,0,0,1,2.571-2.256c4.338-.021,8.675-.007,13.013-.008" transform="translate(246 2022.293)" fill="#003680"/>
      <path id="Trazado_153339-3" data-name="Trazado 153339" d="M985.652,258.167a2.217,2.217,0,0,1,2.341,2.2,2.309,2.309,0,0,1-2.178,2.4,2.4,2.4,0,0,1-2.433-2.3,2.281,2.281,0,0,1,2.27-2.3" transform="translate(246 2022.293)" fill="#003680"/>
      <path id="Trazado_153340-3" data-name="Trazado 153340" d="M1000.24,308.03c1.536-2.95,2.9-5.861,4.534-8.612a56.832,56.832,0,0,1,4.265-5.922,2.329,2.329,0,0,1,3.545-.555,2.371,2.371,0,0,1-.008,3.516c-3.884,4.486-6.391,9.743-8.591,15.174-1.021,2.522-2.225,2.923-4.547,1.438q-4.011-2.564-8.017-5.133c-.228-.147-.461-.287-.677-.45a2.314,2.314,0,1,1,2.52-3.878c1.984,1.2,3.919,2.49,5.876,3.74.354.226.715.443,1.1.682" transform="translate(246 2022.293)" fill="#003680"/>
    </g>
    <g id="Grupo_90529" data-name="Grupo 90529" transform="translate(-844.527 -129.241)">
      <path id="Trazado_153334-4" data-name="Trazado 153334" d="M997.482,205.364a29.187,29.187,0,0,1,5.131,2.28,11.287,11.287,0,0,1,4.913,9.868q-.028,15.12-.006,30.239v33.786a67.108,67.108,0,0,1,6.545,3.364,21.448,21.448,0,0,1,9.108,22.5c-2.2,9.194-9.256,15.712-18.39,16.859a20.942,20.942,0,0,1-17.609-5.747,2.739,2.739,0,0,0-2.055-.789q-23.789.03-47.577.01a11.557,11.557,0,0,1-10.988-6.644,11.738,11.738,0,0,1-1.214-5.5q.031-14.188.01-28.378c0-14.189.028-28.378-.022-42.567a12.274,12.274,0,0,1,3.282-8.664q7.487-8.283,14.84-16.685a12.673,12.673,0,0,1,6.8-3.927Zm5.327,75.773c.022-.419.054-.76.054-1.1q0-31.226-.005-62.453a9.037,9.037,0,0,0-.19-2.074c-.822-3.453-3.555-5.487-7.363-5.489q-21.461-.012-42.922,0c-.233,0-.466.016-.7.006-.991-.042-1.4.3-1.388,1.415.069,4.883.038,9.768.027,14.653-.009,4.383-2.383,6.766-6.739,6.776-4.071.009-8.143,0-12.214,0H930v1.651q0,35.355,0,70.711c0,4.993,2.864,7.849,7.869,7.849q21.812,0,43.621,0h1.293c-8-15.523,4.264-32.483,20.022-31.944m16.208,21.649a17,17,0,1,0-17,17.036,16.94,16.94,0,0,0,17-17.036m-73.438-88.847c-4.271,4.8-8.384,9.427-12.631,14.2.52.034.813.069,1.106.07,3.212,0,6.424.009,9.636,0,1.606-.005,1.973-.372,1.978-2,.011-3.715,0-7.429,0-11.144,0-.291-.045-.582-.09-1.134" transform="translate(246 2022.293)" fill="#003680"/>
      <path id="Trazado_153335-4" data-name="Trazado 153335" d="M967.226,245.638q-8.715,0-17.429,0a8.466,8.466,0,0,1-1.39-.063,2.268,2.268,0,0,1-1.888-2.187,2.235,2.235,0,0,1,1.675-2.229,4.886,4.886,0,0,1,1.257-.166q17.836-.012,35.672-.008a2.617,2.617,0,0,1,2.687,1.441,2.284,2.284,0,0,1-2.225,3.2c-2.788.052-5.577.018-8.366.019q-5,0-9.993,0" transform="translate(246 2022.293)" fill="#003680"/>
      <path id="Trazado_153336-4" data-name="Trazado 153336" d="M967.226,279.863q-8.715,0-17.43,0a8.826,8.826,0,0,1-1.39-.066,2.261,2.261,0,0,1-1.887-2.184,2.224,2.224,0,0,1,1.673-2.231,6.278,6.278,0,0,1,1.492-.163q17.6-.014,35.208,0a5.87,5.87,0,0,1,1.49.175,2.27,2.27,0,0,1-.221,4.393,9.1,9.1,0,0,1-1.506.075q-8.714.008-17.429,0" transform="translate(246 2022.293)" fill="#003680"/>
      <path id="Trazado_153337-4" data-name="Trazado 153337" d="M962.555,262.788c-4.259,0-8.518.006-12.777-.007a6.745,6.745,0,0,1-1.606-.171,2.211,2.211,0,0,1-1.652-2.243,2.282,2.282,0,0,1,1.9-2.172,7.325,7.325,0,0,1,1.158-.058q13.009,0,26.019,0a6.831,6.831,0,0,1,1.273.074,2.238,2.238,0,0,1,1.795,2.138,2.166,2.166,0,0,1-1.617,2.256,6.532,6.532,0,0,1-1.6.176c-4.3.013-8.6.007-12.894.007" transform="translate(246 2022.293)" fill="#003680"/>
      <path id="Trazado_153338-4" data-name="Trazado 153338" d="M962.1,292.356c4.26,0,8.521-.049,12.779.042a3.6,3.6,0,0,1,2.324.951,2.14,2.14,0,0,1-1.052,3.454,5.36,5.36,0,0,1-1.6.2q-12.432.016-24.864.008c-.232,0-.465.009-.7-.007a2.38,2.38,0,0,1-2.474-2.382,2.31,2.31,0,0,1,2.571-2.256c4.338-.021,8.675-.007,13.013-.008" transform="translate(246 2022.293)" fill="#003680"/>
      <path id="Trazado_153339-4" data-name="Trazado 153339" d="M985.652,258.167a2.217,2.217,0,0,1,2.341,2.2,2.309,2.309,0,0,1-2.178,2.4,2.4,2.4,0,0,1-2.433-2.3,2.281,2.281,0,0,1,2.27-2.3" transform="translate(246 2022.293)" fill="#003680"/>
      <path id="Trazado_153340-4" data-name="Trazado 153340" d="M1000.24,308.03c1.536-2.95,2.9-5.861,4.534-8.612a56.832,56.832,0,0,1,4.265-5.922,2.329,2.329,0,0,1,3.545-.555,2.371,2.371,0,0,1-.008,3.516c-3.884,4.486-6.391,9.743-8.591,15.174-1.021,2.522-2.225,2.923-4.547,1.438q-4.011-2.564-8.017-5.133c-.228-.147-.461-.287-.677-.45a2.314,2.314,0,1,1,2.52-3.878c1.984,1.2,3.919,2.49,5.876,3.74.354.226.715.443,1.1.682" transform="translate(246 2022.293)" fill="#003680"/>
    </g>
    <path id="Trazado_153341" data-name="Trazado 153341" d="M535.552,85.982H296.992a21.266,21.266,0,0,1-21.266-21.266V15.539H516.509a19.043,19.043,0,0,1,19.043,19.044Z" transform="translate(246 2022.293)" fill="#43efd4"/>
    <path id="Trazado_154769" data-name="Trazado 154769" d="M5.52,24H1.832V6.1H5.52Zm5.271-13.3.111,1.537a4.645,4.645,0,0,1,3.824-1.783,3.86,3.86,0,0,1,3.148,1.242,5.794,5.794,0,0,1,1.057,3.713V24H15.378V15.472a2.314,2.314,0,0,0-.492-1.645,2.2,2.2,0,0,0-1.635-.511A2.443,2.443,0,0,0,11,14.6V24H7.448V10.7ZM21.412,24V13.3h-1.98V10.7h1.98V9.566A4.593,4.593,0,0,1,22.7,6.092a4.976,4.976,0,0,1,3.6-1.236A8.375,8.375,0,0,1,28.1,5.1l-.037,2.732a4.53,4.53,0,0,0-1.082-.111q-2,0-2,1.9V10.7h2.643V13.3H24.977V24Zm6.317-6.775a7.89,7.89,0,0,1,.762-3.529,5.58,5.58,0,0,1,2.195-2.4,6.4,6.4,0,0,1,3.326-.848,6.058,6.058,0,0,1,4.4,1.648,6.612,6.612,0,0,1,1.9,4.475l.025.91A6.953,6.953,0,0,1,38.622,22.4a5.94,5.94,0,0,1-4.586,1.85A5.97,5.97,0,0,1,29.443,22.4a7.075,7.075,0,0,1-1.715-5.016Zm3.553.252a4.973,4.973,0,0,0,.713,2.9,2.562,2.562,0,0,0,4.057.012,5.441,5.441,0,0,0,.725-3.171,4.923,4.923,0,0,0-.725-2.881,2.358,2.358,0,0,0-2.041-1.022,2.32,2.32,0,0,0-2.016,1.016A5.533,5.533,0,0,0,31.282,17.478Zm17.53-3.449a9.653,9.653,0,0,0-1.279-.1A2.6,2.6,0,0,0,44.889,15.3V24H41.336V10.7h3.357l.1,1.586a3.292,3.292,0,0,1,2.963-1.832,3.723,3.723,0,0,1,1.107.16ZM52.669,10.7l.111,1.488A4.675,4.675,0,0,1,56.6,10.451a3.548,3.548,0,0,1,3.529,2.029,4.568,4.568,0,0,1,4-2.029,3.968,3.968,0,0,1,3.221,1.26A5.793,5.793,0,0,1,68.406,15.5V24H64.841V15.5a2.543,2.543,0,0,0-.443-1.657,1.959,1.959,0,0,0-1.561-.524,2.218,2.218,0,0,0-2.213,1.528L60.636,24H57.083V15.509a2.512,2.512,0,0,0-.455-1.676,1.978,1.978,0,0,0-1.549-.518,2.3,2.3,0,0,0-2.189,1.257V24H49.337V10.7ZM76.075,24.246a6.531,6.531,0,0,1-4.764-1.8,6.381,6.381,0,0,1-1.838-4.783v-.344a8.036,8.036,0,0,1,.775-3.584,5.685,5.685,0,0,1,2.195-2.434,6.16,6.16,0,0,1,3.24-.855,5.521,5.521,0,0,1,4.3,1.721,6.994,6.994,0,0,1,1.568,4.881V18.5H73.075a3.3,3.3,0,0,0,1.039,2.09,3.141,3.141,0,0,0,2.195.787,3.835,3.835,0,0,0,3.209-1.488l1.746,1.955A5.334,5.334,0,0,1,79.1,23.613,7.1,7.1,0,0,1,76.075,24.246Zm-.406-10.93a2.22,2.22,0,0,0-1.715.716,3.709,3.709,0,0,0-.842,2.05h4.943V15.8a2.645,2.645,0,0,0-.639-1.834A2.291,2.291,0,0,0,75.67,13.316ZM86.913,17.25a8.017,8.017,0,0,1,1.4-4.955,4.528,4.528,0,0,1,3.818-1.844A4.074,4.074,0,0,1,95.335,11.9V5.115H98.9V24H95.692l-.172-1.414a4.181,4.181,0,0,1-3.418,1.66,4.516,4.516,0,0,1-3.768-1.85A8.275,8.275,0,0,1,86.913,17.25Zm3.553.253a5.28,5.28,0,0,0,.652,2.878,2.121,2.121,0,0,0,1.893,1,2.377,2.377,0,0,0,2.324-1.4V14.711a2.343,2.343,0,0,0-2.3-1.4Q90.467,13.316,90.467,17.5Zm16.128,6.743a6.531,6.531,0,0,1-4.764-1.8,6.381,6.381,0,0,1-1.838-4.783v-.344a8.036,8.036,0,0,1,.775-3.584,5.685,5.685,0,0,1,2.195-2.434,6.16,6.16,0,0,1,3.24-.855,5.521,5.521,0,0,1,4.3,1.721,6.994,6.994,0,0,1,1.568,4.881V18.5h-8.471a3.3,3.3,0,0,0,1.039,2.09,3.141,3.141,0,0,0,2.195.787,3.835,3.835,0,0,0,3.209-1.488l1.746,1.955a5.334,5.334,0,0,1-2.164,1.764A7.1,7.1,0,0,1,106.594,24.246Zm-.406-10.93a2.22,2.22,0,0,0-1.715.716,3.709,3.709,0,0,0-.842,2.05h4.943V15.8a2.645,2.645,0,0,0-.639-1.834A2.291,2.291,0,0,0,106.189,13.316ZM125.695,24a3.946,3.946,0,0,1-.357-1.193,4.3,4.3,0,0,1-3.357,1.439,4.723,4.723,0,0,1-3.24-1.131,3.638,3.638,0,0,1-1.285-2.852,3.759,3.759,0,0,1,1.568-3.246,7.735,7.735,0,0,1,4.531-1.143h1.635v-.762a2.192,2.192,0,0,0-.473-1.475,1.862,1.862,0,0,0-1.494-.553,2.117,2.117,0,0,0-1.408.43,1.462,1.462,0,0,0-.51,1.18h-3.553a3.569,3.569,0,0,1,.713-2.139,4.714,4.714,0,0,1,2.016-1.543,7.349,7.349,0,0,1,2.926-.559,5.806,5.806,0,0,1,3.9,1.236,4.323,4.323,0,0,1,1.445,3.473v5.766a6.36,6.36,0,0,0,.529,2.865V24Zm-2.939-2.471a3.06,3.06,0,0,0,1.451-.35,2.3,2.3,0,0,0,.984-.941V17.951h-1.328q-2.668,0-2.84,1.844L121.01,20a1.423,1.423,0,0,0,.467,1.094A1.815,1.815,0,0,0,122.756,21.529ZM133.573,10.7l.111,1.537a4.645,4.645,0,0,1,3.824-1.783,3.86,3.86,0,0,1,3.148,1.242,5.794,5.794,0,0,1,1.057,3.713V24h-3.553V15.472a2.314,2.314,0,0,0-.492-1.645,2.2,2.2,0,0,0-1.635-.511,2.443,2.443,0,0,0-2.25,1.282V24h-3.553V10.7ZM150.93,24a3.946,3.946,0,0,1-.357-1.193,4.3,4.3,0,0,1-3.357,1.439,4.723,4.723,0,0,1-3.24-1.131,3.638,3.638,0,0,1-1.285-2.852,3.759,3.759,0,0,1,1.568-3.246,7.735,7.735,0,0,1,4.531-1.143h1.635v-.762a2.192,2.192,0,0,0-.473-1.475,1.862,1.862,0,0,0-1.494-.553,2.117,2.117,0,0,0-1.408.43,1.462,1.462,0,0,0-.51,1.18h-3.553a3.569,3.569,0,0,1,.713-2.139,4.714,4.714,0,0,1,2.016-1.543,7.349,7.349,0,0,1,2.926-.559,5.806,5.806,0,0,1,3.9,1.236,4.323,4.323,0,0,1,1.445,3.473v5.766a6.36,6.36,0,0,0,.529,2.865V24Zm-2.939-2.471a3.06,3.06,0,0,0,1.451-.35,2.3,2.3,0,0,0,.984-.941V17.951H149.1q-2.668,0-2.84,1.844l-.012.209a1.422,1.422,0,0,0,.467,1.094A1.815,1.815,0,0,0,147.992,21.529Zm1.352-16.414h3.873l-3.406,3.811h-2.889ZM159.288,24h-3.566V5.115h3.566Zm5.493,0h-3.566V10.7h3.566ZM161.006,7.254a1.75,1.75,0,0,1,.535-1.316,2.3,2.3,0,0,1,2.908,0,1.74,1.74,0,0,1,.541,1.316,1.744,1.744,0,0,1-.547,1.328,2.279,2.279,0,0,1-2.889,0A1.744,1.744,0,0,1,161.006,7.254Zm12.722,13.07a1.145,1.145,0,0,0-.645-1.027,7.332,7.332,0,0,0-2.072-.67q-4.746-1-4.746-4.033a3.655,3.655,0,0,1,1.469-2.957,5.927,5.927,0,0,1,3.842-1.186,6.379,6.379,0,0,1,4.051,1.193,3.759,3.759,0,0,1,1.518,3.1h-3.553a1.719,1.719,0,0,0-.492-1.26,2.081,2.081,0,0,0-1.537-.5,2.127,2.127,0,0,0-1.389.406,1.281,1.281,0,0,0-.492,1.033,1.1,1.1,0,0,0,.559.953A5.755,5.755,0,0,0,172.13,16a15.415,15.415,0,0,1,2.238.6q2.816,1.033,2.816,3.578a3.47,3.47,0,0,1-1.561,2.945,6.736,6.736,0,0,1-4.033,1.125,7.035,7.035,0,0,1-2.969-.6,4.982,4.982,0,0,1-2.035-1.635,3.8,3.8,0,0,1-.738-2.244h3.369a1.855,1.855,0,0,0,.7,1.451,2.78,2.78,0,0,0,1.746.5,2.573,2.573,0,0,0,1.543-.387A1.205,1.205,0,0,0,173.728,20.324ZM182.036,24h-3.566V10.7h3.566ZM178.262,7.254a1.75,1.75,0,0,1,.535-1.316,2.3,2.3,0,0,1,2.908,0,1.74,1.74,0,0,1,.541,1.316,1.744,1.744,0,0,1-.547,1.328,2.279,2.279,0,0,1-2.889,0A1.744,1.744,0,0,1,178.262,7.254Zm12.722,13.07a1.145,1.145,0,0,0-.645-1.027,7.332,7.332,0,0,0-2.072-.67q-4.746-1-4.746-4.033a3.655,3.655,0,0,1,1.469-2.957,5.927,5.927,0,0,1,3.842-1.186,6.379,6.379,0,0,1,4.051,1.193,3.759,3.759,0,0,1,1.518,3.1h-3.553a1.719,1.719,0,0,0-.492-1.26,2.081,2.081,0,0,0-1.537-.5,2.127,2.127,0,0,0-1.389.406,1.281,1.281,0,0,0-.492,1.033,1.1,1.1,0,0,0,.559.953,5.755,5.755,0,0,0,1.887.627,15.415,15.415,0,0,1,2.238.6q2.816,1.033,2.816,3.578a3.47,3.47,0,0,1-1.561,2.945,6.736,6.736,0,0,1-4.033,1.125,7.035,7.035,0,0,1-2.969-.6,4.982,4.982,0,0,1-2.035-1.635,3.8,3.8,0,0,1-.738-2.244h3.369a1.855,1.855,0,0,0,.7,1.451,2.78,2.78,0,0,0,1.746.5,2.573,2.573,0,0,0,1.543-.387A1.205,1.205,0,0,0,190.984,20.324ZM.811,47.466a8.017,8.017,0,0,1,1.4-4.955,4.528,4.528,0,0,1,3.818-1.844,4.074,4.074,0,0,1,3.209,1.451V35.331H12.8V54.216H9.59L9.418,52.8A4.181,4.181,0,0,1,6,54.462a4.516,4.516,0,0,1-3.768-1.85A8.275,8.275,0,0,1,.811,47.466Zm3.553.253A5.28,5.28,0,0,0,5.016,50.6a2.121,2.121,0,0,0,1.893,1,2.377,2.377,0,0,0,2.324-1.4V44.928a2.343,2.343,0,0,0-2.3-1.4Q4.365,43.532,4.365,47.719Zm16.128,6.743a6.531,6.531,0,0,1-4.764-1.8,6.381,6.381,0,0,1-1.838-4.783V47.54a8.036,8.036,0,0,1,.775-3.584,5.685,5.685,0,0,1,2.195-2.434,6.16,6.16,0,0,1,3.24-.855,5.521,5.521,0,0,1,4.3,1.721,6.994,6.994,0,0,1,1.568,4.881V48.72H17.493a3.3,3.3,0,0,0,1.039,2.09,3.141,3.141,0,0,0,2.195.787,3.835,3.835,0,0,0,3.209-1.488l1.746,1.955a5.334,5.334,0,0,1-2.164,1.764A7.1,7.1,0,0,1,20.493,54.462Zm-.406-10.93a2.22,2.22,0,0,0-1.715.716,3.709,3.709,0,0,0-.842,2.05h4.943v-.284a2.645,2.645,0,0,0-.639-1.834A2.291,2.291,0,0,0,20.087,43.532Zm16.051-5.889v3.27h2.275V43.52H36.138v6.639a1.585,1.585,0,0,0,.283,1.057,1.42,1.42,0,0,0,1.082.32,5.666,5.666,0,0,0,1.045-.086v2.693a7.315,7.315,0,0,1-2.152.32q-3.738,0-3.811-3.775V43.52H30.642V40.913h1.943v-3.27Zm9.194,16.82a6.531,6.531,0,0,1-4.764-1.8,6.381,6.381,0,0,1-1.838-4.783V47.54a8.036,8.036,0,0,1,.775-3.584A5.685,5.685,0,0,1,41.7,41.522a6.16,6.16,0,0,1,3.24-.855,5.521,5.521,0,0,1,4.3,1.721A6.994,6.994,0,0,1,50.8,47.27V48.72H42.332a3.3,3.3,0,0,0,1.039,2.09,3.141,3.141,0,0,0,2.195.787,3.835,3.835,0,0,0,3.209-1.488l1.746,1.955a5.334,5.334,0,0,1-2.164,1.764A7.1,7.1,0,0,1,45.332,54.462Zm-.406-10.93a2.22,2.22,0,0,0-1.715.716,3.709,3.709,0,0,0-.842,2.05h4.943v-.284a2.645,2.645,0,0,0-.639-1.834A2.291,2.291,0,0,0,44.926,43.532Zm9.98-2.619.111,1.537a4.645,4.645,0,0,1,3.824-1.783,3.86,3.86,0,0,1,3.148,1.242,5.794,5.794,0,0,1,1.057,3.713v8.594H59.492V45.689A2.314,2.314,0,0,0,59,44.043a2.2,2.2,0,0,0-1.635-.511,2.443,2.443,0,0,0-2.25,1.282v9.4H51.562v-13.3ZM64,47.466a8.017,8.017,0,0,1,1.4-4.955,4.528,4.528,0,0,1,3.818-1.844,4.074,4.074,0,0,1,3.209,1.451V35.331h3.566V54.216H72.78L72.608,52.8a4.181,4.181,0,0,1-3.418,1.66,4.516,4.516,0,0,1-3.768-1.85A8.275,8.275,0,0,1,64,47.466Zm3.553.253a5.28,5.28,0,0,0,.652,2.878,2.121,2.121,0,0,0,1.893,1,2.377,2.377,0,0,0,2.324-1.4V44.928a2.343,2.343,0,0,0-2.3-1.4Q67.555,43.532,67.555,47.719Zm16.128,6.743a6.531,6.531,0,0,1-4.764-1.8,6.381,6.381,0,0,1-1.838-4.783V47.54a8.036,8.036,0,0,1,.775-3.584,5.685,5.685,0,0,1,2.195-2.434,6.16,6.16,0,0,1,3.24-.855,5.521,5.521,0,0,1,4.3,1.721,6.994,6.994,0,0,1,1.568,4.881V48.72H80.683a3.3,3.3,0,0,0,1.039,2.09,3.141,3.141,0,0,0,2.195.787,3.835,3.835,0,0,0,3.209-1.488l1.746,1.955a5.334,5.334,0,0,1-2.164,1.764A7.1,7.1,0,0,1,83.683,54.462Zm-.406-10.93a2.22,2.22,0,0,0-1.715.716,3.709,3.709,0,0,0-.842,2.05h4.943v-.284a2.645,2.645,0,0,0-.639-1.834A2.291,2.291,0,0,0,83.277,43.532Zm9.98-2.619.111,1.537a4.645,4.645,0,0,1,3.824-1.783,3.86,3.86,0,0,1,3.148,1.242,5.794,5.794,0,0,1,1.057,3.713v8.594H97.844V45.689a2.314,2.314,0,0,0-.492-1.645,2.2,2.2,0,0,0-1.635-.511,2.443,2.443,0,0,0-2.25,1.282v9.4H89.913v-13.3ZM108.439,51.6a2.331,2.331,0,0,0,1.6-.541,1.9,1.9,0,0,0,.639-1.439h3.332a4.558,4.558,0,0,1-.738,2.477,4.868,4.868,0,0,1-1.986,1.746,6.214,6.214,0,0,1-2.785.621,5.775,5.775,0,0,1-4.5-1.814,7.177,7.177,0,0,1-1.648-5.01V47.4a7.094,7.094,0,0,1,1.635-4.906,5.708,5.708,0,0,1,4.488-1.832,5.6,5.6,0,0,1,4,1.42,5.028,5.028,0,0,1,1.531,3.781h-3.332a2.442,2.442,0,0,0-.639-1.687,2.376,2.376,0,0,0-3.5.256,5.245,5.245,0,0,0-.633,2.937v.369a5.312,5.312,0,0,0,.627,2.955A2.167,2.167,0,0,0,108.439,51.6ZM118.6,54.216h-3.566v-13.3H118.6ZM114.829,37.47a1.75,1.75,0,0,1,.535-1.316,2.3,2.3,0,0,1,2.908,0,1.878,1.878,0,0,1-.006,2.643,2.279,2.279,0,0,1-2.889,0A1.745,1.745,0,0,1,114.829,37.47Zm13.226,16.746a3.946,3.946,0,0,1-.357-1.193,4.3,4.3,0,0,1-3.357,1.439,4.723,4.723,0,0,1-3.24-1.131,3.638,3.638,0,0,1-1.285-2.852,3.759,3.759,0,0,1,1.568-3.246,7.735,7.735,0,0,1,4.531-1.143h1.635v-.762a2.192,2.192,0,0,0-.473-1.475,1.862,1.862,0,0,0-1.494-.553,2.117,2.117,0,0,0-1.408.43,1.462,1.462,0,0,0-.51,1.18h-3.553a3.569,3.569,0,0,1,.713-2.139,4.714,4.714,0,0,1,2.016-1.543,7.349,7.349,0,0,1,2.926-.559,5.806,5.806,0,0,1,3.9,1.236,4.323,4.323,0,0,1,1.445,3.473v5.766a6.36,6.36,0,0,0,.529,2.865v.209Zm-2.939-2.471a3.06,3.06,0,0,0,1.451-.35,2.3,2.3,0,0,0,.984-.941V48.167h-1.328q-2.668,0-2.84,1.844l-.012.209a1.423,1.423,0,0,0,.467,1.094A1.815,1.815,0,0,0,125.117,51.745Z" transform="translate(549.73 2041.054)" fill="#003680"/>
    <path id="Trazado_153342" data-name="Trazado 153342" d="M1099.751,85.982H861.191a21.266,21.266,0,0,1-21.266-21.266V15.539h240.783a19.043,19.043,0,0,1,19.043,19.044Z" transform="translate(246 2022.293)" fill="#43efd4"/>
    <path id="Trazado_154770" data-name="Trazado 154770" d="M11.107,24H7.419V6.1h3.689Zm6.455-13.3.111,1.537A4.645,4.645,0,0,1,21.5,10.451a3.86,3.86,0,0,1,3.148,1.242A5.794,5.794,0,0,1,25.7,15.406V24H22.148V15.472a2.314,2.314,0,0,0-.492-1.645,2.2,2.2,0,0,0-1.635-.511,2.443,2.443,0,0,0-2.25,1.282V24H14.218V10.7ZM29.365,24V13.3h-1.98V10.7h1.98V9.566A4.593,4.593,0,0,1,30.65,6.092a4.976,4.976,0,0,1,3.6-1.236,8.375,8.375,0,0,1,1.807.244l-.037,2.732a4.53,4.53,0,0,0-1.082-.111q-2,0-2,1.9V10.7h2.643V13.3H32.931V24Zm7.5-6.775a7.89,7.89,0,0,1,.762-3.529,5.58,5.58,0,0,1,2.195-2.4,6.4,6.4,0,0,1,3.326-.848,6.058,6.058,0,0,1,4.4,1.648,6.612,6.612,0,0,1,1.9,4.475l.025.91A6.953,6.953,0,0,1,47.759,22.4a5.94,5.94,0,0,1-4.586,1.85A5.97,5.97,0,0,1,38.581,22.4a7.075,7.075,0,0,1-1.715-5.016Zm3.553.252a4.973,4.973,0,0,0,.713,2.9,2.562,2.562,0,0,0,4.057.012,5.441,5.441,0,0,0,.725-3.171,4.923,4.923,0,0,0-.725-2.881,2.358,2.358,0,0,0-2.041-1.022,2.32,2.32,0,0,0-2.016,1.016A5.533,5.533,0,0,0,40.419,17.478Zm18.713-3.449a9.654,9.654,0,0,0-1.279-.1A2.6,2.6,0,0,0,55.21,15.3V24H51.656V10.7h3.357l.1,1.586a3.292,3.292,0,0,1,2.963-1.832,3.723,3.723,0,0,1,1.107.16ZM64.173,10.7l.111,1.488a4.675,4.675,0,0,1,3.824-1.734,3.548,3.548,0,0,1,3.529,2.029,4.568,4.568,0,0,1,4-2.029,3.968,3.968,0,0,1,3.221,1.26A5.793,5.793,0,0,1,79.91,15.5V24H76.345V15.5a2.543,2.543,0,0,0-.443-1.657,1.959,1.959,0,0,0-1.561-.524,2.218,2.218,0,0,0-2.213,1.528L72.14,24H68.587V15.509a2.512,2.512,0,0,0-.455-1.676,1.978,1.978,0,0,0-1.549-.518,2.3,2.3,0,0,0-2.189,1.257V24H60.841V10.7Zm24.59,13.549A6.531,6.531,0,0,1,84,22.451a6.381,6.381,0,0,1-1.838-4.783v-.344a8.036,8.036,0,0,1,.775-3.584,5.685,5.685,0,0,1,2.195-2.434,6.16,6.16,0,0,1,3.24-.855,5.521,5.521,0,0,1,4.3,1.721,6.994,6.994,0,0,1,1.568,4.881V18.5H85.763a3.3,3.3,0,0,0,1.039,2.09A3.141,3.141,0,0,0,89,21.381a3.835,3.835,0,0,0,3.209-1.488l1.746,1.955a5.334,5.334,0,0,1-2.164,1.764A7.1,7.1,0,0,1,88.763,24.246Zm-.406-10.93a2.22,2.22,0,0,0-1.715.716,3.709,3.709,0,0,0-.842,2.05h4.943V15.8a2.645,2.645,0,0,0-.639-1.834A2.291,2.291,0,0,0,88.357,13.316Zm13.611,3.934a8.017,8.017,0,0,1,1.4-4.955,4.528,4.528,0,0,1,3.818-1.844A4.074,4.074,0,0,1,110.39,11.9V5.115h3.566V24h-3.209l-.172-1.414a4.181,4.181,0,0,1-3.418,1.66,4.516,4.516,0,0,1-3.768-1.85A8.275,8.275,0,0,1,101.968,17.25Zm3.553.253a5.28,5.28,0,0,0,.652,2.878,2.121,2.121,0,0,0,1.893,1,2.377,2.377,0,0,0,2.324-1.4V14.711a2.343,2.343,0,0,0-2.3-1.4Q105.521,13.316,105.521,17.5Zm17.311,6.743a6.531,6.531,0,0,1-4.764-1.8,6.381,6.381,0,0,1-1.838-4.783v-.344A8.036,8.036,0,0,1,117,13.74a5.685,5.685,0,0,1,2.195-2.434,6.16,6.16,0,0,1,3.24-.855,5.521,5.521,0,0,1,4.3,1.721,6.994,6.994,0,0,1,1.568,4.881V18.5h-8.471a3.3,3.3,0,0,0,1.039,2.09,3.141,3.141,0,0,0,2.195.787,3.835,3.835,0,0,0,3.209-1.488l1.746,1.955a5.334,5.334,0,0,1-2.164,1.764A7.1,7.1,0,0,1,122.832,24.246Zm-.406-10.93a2.22,2.22,0,0,0-1.715.716,3.709,3.709,0,0,0-.842,2.05h4.943V15.8a2.645,2.645,0,0,0-.639-1.834A2.291,2.291,0,0,0,122.427,13.316Zm18.418-5.889V10.7h2.275V13.3h-2.275v6.639A1.585,1.585,0,0,0,141.128,21a1.42,1.42,0,0,0,1.082.32,5.667,5.667,0,0,0,1.045-.086v2.693a7.315,7.315,0,0,1-2.152.32q-3.738,0-3.811-3.775V13.3h-1.943V10.7h1.943V7.426Zm10.377,16.82a6.531,6.531,0,0,1-4.764-1.8,6.381,6.381,0,0,1-1.838-4.783v-.344a8.036,8.036,0,0,1,.775-3.584,5.685,5.685,0,0,1,2.195-2.434,6.16,6.16,0,0,1,3.24-.855,5.521,5.521,0,0,1,4.3,1.721,6.994,6.994,0,0,1,1.568,4.881V18.5h-8.471a3.3,3.3,0,0,0,1.039,2.09,3.141,3.141,0,0,0,2.195.787,3.835,3.835,0,0,0,3.209-1.488l1.746,1.955a5.334,5.334,0,0,1-2.164,1.764A7.1,7.1,0,0,1,151.222,24.246Zm-.406-10.93a2.22,2.22,0,0,0-1.715.716,3.709,3.709,0,0,0-.842,2.05H153.2V15.8a2.645,2.645,0,0,0-.639-1.834A2.291,2.291,0,0,0,150.816,13.316Zm12.959,1.352,2.238-3.971h3.8l-3.787,6.516L169.972,24H166.16l-2.373-4.18L161.427,24H157.6l3.947-6.787L157.775,10.7h3.811Zm12-7.242V10.7h2.275V13.3h-2.275v6.639A1.585,1.585,0,0,0,176.058,21a1.42,1.42,0,0,0,1.082.32,5.667,5.667,0,0,0,1.045-.086v2.693a7.315,7.315,0,0,1-2.152.32q-3.738,0-3.811-3.775V13.3h-1.943V10.7h1.943V7.426Zm3.332,9.8a7.89,7.89,0,0,1,.762-3.529,5.58,5.58,0,0,1,2.195-2.4,6.4,6.4,0,0,1,3.326-.848,6.058,6.058,0,0,1,4.4,1.648,6.612,6.612,0,0,1,1.9,4.475l.025.91A6.953,6.953,0,0,1,190,22.4a6.624,6.624,0,0,1-9.178.006,7.075,7.075,0,0,1-1.715-5.016Zm3.553.252a4.973,4.973,0,0,0,.713,2.9,2.562,2.562,0,0,0,4.057.012,5.441,5.441,0,0,0,.725-3.171,4.923,4.923,0,0,0-.725-2.881,2.358,2.358,0,0,0-2.041-1.022,2.32,2.32,0,0,0-2.016,1.016A5.533,5.533,0,0,0,182.66,17.478ZM68.064,54.216a3.946,3.946,0,0,1-.357-1.193,4.3,4.3,0,0,1-3.357,1.439,4.723,4.723,0,0,1-3.24-1.131,3.638,3.638,0,0,1-1.285-2.852,3.759,3.759,0,0,1,1.568-3.246,7.735,7.735,0,0,1,4.531-1.143H67.56v-.762a2.192,2.192,0,0,0-.473-1.475,1.862,1.862,0,0,0-1.494-.553,2.117,2.117,0,0,0-1.408.43,1.462,1.462,0,0,0-.51,1.18H60.122a3.569,3.569,0,0,1,.713-2.139,4.714,4.714,0,0,1,2.016-1.543,7.349,7.349,0,0,1,2.926-.559,5.806,5.806,0,0,1,3.9,1.236,4.323,4.323,0,0,1,1.445,3.473v5.766a6.36,6.36,0,0,0,.529,2.865v.209Zm-2.939-2.471a3.06,3.06,0,0,0,1.451-.35,2.3,2.3,0,0,0,.984-.941V48.167H66.232q-2.668,0-2.84,1.844l-.012.209a1.423,1.423,0,0,0,.467,1.094A1.815,1.815,0,0,0,65.126,51.745Zm20.717-4.057a8.056,8.056,0,0,1-1.365,4.986,4.521,4.521,0,0,1-3.811,1.789,4.154,4.154,0,0,1-3.455-1.66l-.16,1.414h-3.2V35.331h3.553v6.775a4.047,4.047,0,0,1,3.234-1.439,4.558,4.558,0,0,1,3.818,1.789,8.067,8.067,0,0,1,1.383,5.035Zm-3.553-.271a5.322,5.322,0,0,0-.639-2.954,2.16,2.16,0,0,0-1.906-.931,2.343,2.343,0,0,0-2.336,1.394v5.266A2.375,2.375,0,0,0,79.769,51.6a2.195,2.195,0,0,0,2.262-1.7A8.8,8.8,0,0,0,82.29,47.417Zm9.492,6.8H88.216v-13.3h3.566ZM88.007,37.47a1.75,1.75,0,0,1,.535-1.316,2.3,2.3,0,0,1,2.908,0,1.878,1.878,0,0,1-.006,2.643,2.279,2.279,0,0,1-2.889,0A1.745,1.745,0,0,1,88.007,37.47ZM100.83,54.462a6.531,6.531,0,0,1-4.764-1.8,6.381,6.381,0,0,1-1.838-4.783V47.54A8.036,8.036,0,0,1,95,43.956,5.685,5.685,0,0,1,97.2,41.522a6.16,6.16,0,0,1,3.24-.855,5.521,5.521,0,0,1,4.3,1.721A6.994,6.994,0,0,1,106.3,47.27V48.72H97.83a3.3,3.3,0,0,0,1.039,2.09,3.141,3.141,0,0,0,2.195.787,3.835,3.835,0,0,0,3.209-1.488l1.746,1.955a5.334,5.334,0,0,1-2.164,1.764A7.1,7.1,0,0,1,100.83,54.462Zm-.406-10.93a2.22,2.22,0,0,0-1.715.716,3.709,3.709,0,0,0-.842,2.05h4.943v-.284a2.645,2.645,0,0,0-.639-1.834A2.291,2.291,0,0,0,100.425,43.532Zm15.369.713a9.653,9.653,0,0,0-1.279-.1,2.6,2.6,0,0,0-2.643,1.365v8.7h-3.553v-13.3h3.357l.1,1.586a3.292,3.292,0,0,1,2.963-1.832,3.723,3.723,0,0,1,1.107.16Zm6.578-6.6v3.27h2.275V43.52h-2.275v6.639a1.585,1.585,0,0,0,.283,1.057,1.42,1.42,0,0,0,1.082.32,5.666,5.666,0,0,0,1.045-.086v2.693a7.315,7.315,0,0,1-2.152.32q-3.738,0-3.811-3.775V43.52h-1.943V40.913h1.943v-3.27Zm3.332,9.8a7.89,7.89,0,0,1,.762-3.529,5.58,5.58,0,0,1,2.195-2.4,6.4,6.4,0,0,1,3.326-.848,6.058,6.058,0,0,1,4.4,1.648,6.612,6.612,0,0,1,1.9,4.475l.025.91a6.953,6.953,0,0,1-1.709,4.912,6.624,6.624,0,0,1-9.178.006A7.075,7.075,0,0,1,125.7,47.6Zm3.553.252a4.973,4.973,0,0,0,.713,2.9,2.562,2.562,0,0,0,4.057.012,5.441,5.441,0,0,0,.725-3.171,4.923,4.923,0,0,0-.725-2.881,2.358,2.358,0,0,0-2.041-1.022,2.32,2.32,0,0,0-2.016,1.016A5.533,5.533,0,0,0,129.257,47.694Z" transform="translate(1105 2043.039)" fill="#003680"/>
  </g>
</svg>
