<svg id="Grupo_90665" data-name="Grupo 90665" xmlns="http://www.w3.org/2000/svg" xmlns:xlink="http://www.w3.org/1999/xlink" width="281.945" height="268.586" viewBox="0 0 281.945 268.586">
  <defs>
    <clipPath id="clip-path">
      <rect id="Rectángulo_27238" data-name="Rectángulo 27238" width="281.945" height="268.586" fill="none"/>
    </clipPath>
    <clipPath id="clip-path-3">
      <rect id="Rectángulo_27194" data-name="Rectángulo 27194" width="266.565" height="231.506" fill="none"/>
    </clipPath>
    <clipPath id="clip-path-4">
      <rect id="Rectángulo_27195" data-name="Rectángulo 27195" width="16.32" height="16.32" fill="none"/>
    </clipPath>
    <clipPath id="clip-path-5">
      <rect id="Rectángulo_27196" data-name="Rectángulo 27196" width="8.421" height="8.421" fill="none"/>
    </clipPath>
    <clipPath id="clip-path-6">
      <rect id="Rectángulo_27197" data-name="Rectángulo 27197" width="11.283" height="11.284" fill="none"/>
    </clipPath>
    <clipPath id="clip-path-7">
      <rect id="Rectángulo_27198" data-name="Rectángulo 27198" width="25.692" height="25.692" fill="none"/>
    </clipPath>
    <clipPath id="clip-path-8">
      <rect id="Rectángulo_27199" data-name="Rectángulo 27199" width="33.128" height="30.635" fill="none"/>
    </clipPath>
    <clipPath id="clip-path-9">
      <rect id="Rectángulo_27200" data-name="Rectángulo 27200" width="23.905" height="24.86" fill="none"/>
    </clipPath>
    <clipPath id="clip-path-10">
      <rect id="Rectángulo_27201" data-name="Rectángulo 27201" width="31.142" height="29.929" fill="none"/>
    </clipPath>
    <clipPath id="clip-path-11">
      <rect id="Rectángulo_27202" data-name="Rectángulo 27202" width="271.76" height="201.502" fill="none"/>
    </clipPath>
    <clipPath id="clip-path-12">
      <rect id="Rectángulo_27203" data-name="Rectángulo 27203" width="247.854" height="212.253" fill="none"/>
    </clipPath>
    <clipPath id="clip-path-13">
      <rect id="Rectángulo_27204" data-name="Rectángulo 27204" width="5.525" height="5.525" fill="none"/>
    </clipPath>
    <clipPath id="clip-path-16">
      <rect id="Rectángulo_27207" data-name="Rectángulo 27207" width="4.297" height="4.297" fill="none"/>
    </clipPath>
    <clipPath id="clip-path-17">
      <rect id="Rectángulo_27208" data-name="Rectángulo 27208" width="1.842" height="1.842" fill="none"/>
    </clipPath>
    <clipPath id="clip-path-18">
      <rect id="Rectángulo_27209" data-name="Rectángulo 27209" width="6.636" height="6.636" fill="none"/>
    </clipPath>
    <clipPath id="clip-path-19">
      <rect id="Rectángulo_27210" data-name="Rectángulo 27210" width="2.602" height="2.602" fill="none"/>
    </clipPath>
    <clipPath id="clip-path-20">
      <rect id="Rectángulo_27211" data-name="Rectángulo 27211" width="2.212" height="2.212" fill="none"/>
    </clipPath>
    <clipPath id="clip-path-22">
      <rect id="Rectángulo_27213" data-name="Rectángulo 27213" width="237.278" height="169.74" fill="none"/>
    </clipPath>
    <clipPath id="clip-path-23">
      <rect id="Rectángulo_27215" data-name="Rectángulo 27215" width="81.208" height="43.75" fill="none"/>
    </clipPath>
    <clipPath id="clip-path-25">
      <rect id="Rectángulo_27217" data-name="Rectángulo 27217" width="91.121" height="49.02" fill="none"/>
    </clipPath>
    <clipPath id="clip-path-27">
      <rect id="Rectángulo_27218" data-name="Rectángulo 27218" width="123.661" height="133.548" fill="none"/>
    </clipPath>
    <clipPath id="clip-path-28">
      <rect id="Rectángulo_27219" data-name="Rectángulo 27219" width="98.338" height="120.985" fill="none"/>
    </clipPath>
    <clipPath id="clip-path-30">
      <rect id="Rectángulo_27222" data-name="Rectángulo 27222" width="41.925" height="43.951" fill="none"/>
    </clipPath>
    <clipPath id="clip-path-31">
      <rect id="Rectángulo_27223" data-name="Rectángulo 27223" width="34.434" height="10.412" fill="none"/>
    </clipPath>
    <clipPath id="clip-path-32">
      <rect id="Rectángulo_27224" data-name="Rectángulo 27224" width="56.121" height="21.045" fill="none"/>
    </clipPath>
    <clipPath id="clip-path-33">
      <rect id="Rectángulo_27225" data-name="Rectángulo 27225" width="85.267" height="128.122" fill="none"/>
    </clipPath>
    <clipPath id="clip-path-34">
      <rect id="Rectángulo_27226" data-name="Rectángulo 27226" width="77.693" height="128.122" fill="none"/>
    </clipPath>
    <clipPath id="clip-path-35">
      <rect id="Rectángulo_27227" data-name="Rectángulo 27227" width="73.679" height="19.694" fill="none"/>
    </clipPath>
    <clipPath id="clip-path-36">
      <rect id="Rectángulo_27228" data-name="Rectángulo 27228" width="77.704" height="77.704" fill="none"/>
    </clipPath>
    <clipPath id="clip-path-37">
      <rect id="Rectángulo_27229" data-name="Rectángulo 27229" width="38" height="38" fill="none"/>
    </clipPath>
    <clipPath id="clip-path-38">
      <rect id="Rectángulo_27230" data-name="Rectángulo 27230" width="80.159" height="80.159" fill="none"/>
    </clipPath>
    <clipPath id="clip-path-39">
      <rect id="Rectángulo_27231" data-name="Rectángulo 27231" width="7.881" height="7.593" fill="none"/>
    </clipPath>
    <clipPath id="clip-path-40">
      <rect id="Rectángulo_27232" data-name="Rectángulo 27232" width="41.685" height="44.394" fill="none"/>
    </clipPath>
    <clipPath id="clip-path-41">
      <path id="Trazado_154724" data-name="Trazado 154724" d="M85.242,239.917A6.643,6.643,0,0,0,78.6,246.56v68.956a6.188,6.188,0,0,0,6.188,6.188h90.086a6.188,6.188,0,0,0,6.188-6.188V263.709a6.189,6.189,0,0,0-6.188-6.188H122.633a6.62,6.62,0,0,1-6.62-6.62V246.56a6.643,6.643,0,0,0-6.643-6.643Z" transform="translate(-78.598 -239.917)" fill="none"/>
    </clipPath>
    <linearGradient id="linear-gradient" x1="-0.471" y1="1.483" x2="-0.465" y2="1.483" gradientUnits="objectBoundingBox">
      <stop offset="0" stop-color="#8ea8fe"/>
      <stop offset="1" stop-color="#b5a4ff"/>
    </linearGradient>
    <clipPath id="clip-path-43">
      <rect id="Rectángulo_27235" data-name="Rectángulo 27235" width="102.462" height="81.787" fill="none"/>
    </clipPath>
    <clipPath id="clip-path-44">
      <rect id="Rectángulo_27236" data-name="Rectángulo 27236" width="88.36" height="81.787" fill="none"/>
    </clipPath>
  </defs>
  <g id="Grupo_90664" data-name="Grupo 90664" clip-path="url(#clip-path)">
    <g id="Grupo_90653" data-name="Grupo 90653">
      <g id="Grupo_90652" data-name="Grupo 90652" clip-path="url(#clip-path)">
        <g id="Grupo_90540" data-name="Grupo 90540" transform="translate(15.38 21.638)" opacity="0.41">
          <g id="Grupo_90539" data-name="Grupo 90539">
            <g id="Grupo_90538" data-name="Grupo 90538" clip-path="url(#clip-path-3)">
              <path id="Trazado_154629" data-name="Trazado 154629" d="M291.484,183a79.659,79.659,0,0,0-.365-13.57c-2.4-21.147-13.245-41.089-29.213-55.158-5.7-5.02-12.179-9.517-15.886-16.142-6.243-11.159-5.77-23.983-13.519-35a65.549,65.549,0,0,0-31.812-24.051c-38.014-13.171-91.234,8.275-86.442,54.075.017.165.036.4.056.705A16.672,16.672,0,0,1,97.97,111.6c-35.072.832-65.263,27.872-71.722,62.125C22.093,195.755,28.9,219.9,45.009,235.482c12.028,11.632,28.167,18.023,44.313,22.414,32.373,8.805,66.441,10.65,99.821,7.284,31.246-3.152,64.205-12.135,84.412-36.174a78.934,78.934,0,0,0,17.928-46" transform="translate(-25.055 -35.25)" fill="#d9fff9"/>
            </g>
          </g>
        </g>
        <g id="Grupo_90543" data-name="Grupo 90543" transform="translate(113.009 5.872)" opacity="0.31">
          <g id="Grupo_90542" data-name="Grupo 90542">
            <g id="Grupo_90541" data-name="Grupo 90541" clip-path="url(#clip-path-4)">
              <path id="Trazado_154630" data-name="Trazado 154630" d="M200.419,17.726a8.16,8.16,0,1,1-8.16-8.16,8.16,8.16,0,0,1,8.16,8.16" transform="translate(-184.099 -9.566)" fill="#d9fff9"/>
            </g>
          </g>
        </g>
        <g id="Grupo_90546" data-name="Grupo 90546" transform="translate(227.22 4.846)" opacity="0.31">
          <g id="Grupo_90545" data-name="Grupo 90545">
            <g id="Grupo_90544" data-name="Grupo 90544" clip-path="url(#clip-path-5)">
              <path id="Trazado_154631" data-name="Trazado 154631" d="M378.577,12.1a4.21,4.21,0,1,1-4.21-4.21,4.21,4.21,0,0,1,4.21,4.21" transform="translate(-370.156 -7.894)" fill="#d9fff9"/>
            </g>
          </g>
        </g>
        <g id="Grupo_90549" data-name="Grupo 90549" transform="translate(77.162 26.658)" opacity="0.31">
          <g id="Grupo_90548" data-name="Grupo 90548">
            <g id="Grupo_90547" data-name="Grupo 90547" clip-path="url(#clip-path-6)">
              <path id="Trazado_154632" data-name="Trazado 154632" d="M136.985,49.069a5.642,5.642,0,1,1-5.642-5.642,5.642,5.642,0,0,1,5.642,5.642" transform="translate(-125.702 -43.427)" fill="#d9fff9"/>
            </g>
          </g>
        </g>
        <g id="Grupo_90552" data-name="Grupo 90552" transform="translate(4.901 224.068)" opacity="0.31">
          <g id="Grupo_90551" data-name="Grupo 90551">
            <g id="Grupo_90550" data-name="Grupo 90550" clip-path="url(#clip-path-7)">
              <path id="Trazado_154633" data-name="Trazado 154633" d="M33.676,377.867A12.846,12.846,0,1,1,20.83,365.021a12.846,12.846,0,0,1,12.846,12.846" transform="translate(-7.984 -365.021)" fill="#d9fff9"/>
            </g>
          </g>
        </g>
        <g id="Grupo_90555" data-name="Grupo 90555" transform="translate(246.791 14.611)" opacity="0.47">
          <g id="Grupo_90554" data-name="Grupo 90554">
            <g id="Grupo_90553" data-name="Grupo 90553" clip-path="url(#clip-path-8)">
              <path id="Trazado_154634" data-name="Trazado 154634" d="M433.56,45.669a14.519,14.519,0,0,0-6.285-19.546c-7.133-3.662-20.84-3.392-24.5,3.741s7.316,13.255,11.793,19.907c6.243,9.278,15.332,3.031,18.994-4.1" transform="translate(-402.038 -23.803)" fill="#bbf4fb"/>
            </g>
          </g>
        </g>
        <g id="Grupo_90558" data-name="Grupo 90558" transform="translate(241.282 232.635)" opacity="0.47">
          <g id="Grupo_90557" data-name="Grupo 90557">
            <g id="Grupo_90556" data-name="Grupo 90556" clip-path="url(#clip-path-9)">
              <path id="Trazado_154635" data-name="Trazado 154635" d="M398.9,402.056a11.122,11.122,0,0,0,15.378-3.312c3.332-5.161,4.164-15.632-1-18.964s-10.659,4.574-16.069,7.483c-7.546,4.058-3.473,11.46,1.689,14.792" transform="translate(-393.064 -378.976)" fill="#bbf4fb"/>
            </g>
          </g>
        </g>
        <g id="Grupo_90561" data-name="Grupo 90561" transform="translate(10.759)" opacity="0.47">
          <g id="Grupo_90560" data-name="Grupo 90560">
            <g id="Grupo_90559" data-name="Grupo 90559" clip-path="url(#clip-path-10)">
              <path id="Trazado_154636" data-name="Trazado 154636" d="M43.239,3.749a14.027,14.027,0,0,0-19.824.734c-5.272,5.676-8.606,18.5-2.929,23.768s14.241-3.338,21.6-5.762c10.262-3.38,6.83-13.468,1.153-18.74" transform="translate(-17.527 0)" fill="#bbf4fb"/>
            </g>
          </g>
        </g>
        <g id="Grupo_90564" data-name="Grupo 90564" transform="translate(0 21.116)" opacity="0.47">
          <g id="Grupo_90563" data-name="Grupo 90563">
            <g id="Grupo_90562" data-name="Grupo 90562" clip-path="url(#clip-path-11)">
              <path id="Trazado_154637" data-name="Trazado 154637" d="M5.18,78.311a57.841,57.841,0,0,0-4.015,35.495c2.854,13.92,11.521,24.615,8.514,39.466-1.832,9.046-2.29,17.425-3.219,26.376-1.907,18.379,10.025,34.573,24.829,43.317,12.023,7.1,26.119,9.768,39.943,9.578,12.441-.171,24.86-2.468,36.916-5.557,11.618-2.977,22.978-6.9,35.156-5.662,10.128,1.029,19.25,5.408,28.683,8.672,22.519,7.8,49.8,8.895,70.39-2.972a59.411,59.411,0,0,0,27.806-64.7c-2.524-11.139-6.783-22.368-5.46-33.975.921-8.087,4.621-15.894,3.943-24.006-.45-5.39-2.824-10.447-5.725-15.01-10.6-16.667-28.34-27.824-47.107-33.971-17.662-5.787-35.878-9.976-54.266-8.583C123.548,49.66,115.8,43.621,76.943,35.31,51.859,29.946,23.8,49.071,9.123,71.226A52.835,52.835,0,0,0,5.18,78.311" transform="translate(0 -34.399)" fill="#bbf4fb"/>
            </g>
          </g>
        </g>
        <g id="Grupo_90567" data-name="Grupo 90567" transform="translate(12.385 32.417)" opacity="0.81">
          <g id="Grupo_90566" data-name="Grupo 90566">
            <g id="Grupo_90565" data-name="Grupo 90565" clip-path="url(#clip-path-12)">
              <path id="Trazado_154638" data-name="Trazado 154638" d="M39.128,102.543c-.78,8.774,2.179,17.815-.295,26.5-2.961,10.4-11.532,18.193-15.026,28.406a65.762,65.762,0,0,0,1.355,46.705c3.022,7.087,7.436,13.674,13.465,18.228,9.293,7.022,21.469,8.562,32.921,7.671,17.042-1.326,35.026-8.7,52.161-6.692,9.456,1.11,12.343,11.345,17.227,18.1A56.594,56.594,0,0,0,162.3,259.086a60.569,60.569,0,0,0,49.354,1.381c16.713-7.118,31.281-24.5,30.323-44.159-.443-9.095-4.083-18.128-2.4-27.063,2.115-11.214,10.565-21.434,16.688-30.57a70.5,70.5,0,0,0,11.659-34.4c.009-.139.018-.279.026-.418A46.85,46.85,0,0,0,235.69,76.73l-42.884-14.1c-43.513-14.311-86.99-13.837-127,7.165C57.15,74.335,43.053,87.877,40.149,97.214a25.416,25.416,0,0,0-1.021,5.329" transform="translate(-20.176 -52.81)" fill="#bbf4fb"/>
            </g>
          </g>
        </g>
        <g id="Grupo_90570" data-name="Grupo 90570" transform="translate(271.953 217.642)" opacity="0.58">
          <g id="Grupo_90569" data-name="Grupo 90569">
            <g id="Grupo_90568" data-name="Grupo 90568" clip-path="url(#clip-path-13)">
              <path id="Trazado_154639" data-name="Trazado 154639" d="M448.553,357.314a2.762,2.762,0,1,1-2.762-2.762,2.763,2.763,0,0,1,2.762,2.762" transform="translate(-443.028 -354.552)" fill="#3e479b"/>
            </g>
          </g>
        </g>
        <g id="Grupo_90573" data-name="Grupo 90573" transform="translate(144.348 2.353)" opacity="0.58">
          <g id="Grupo_90572" data-name="Grupo 90572">
            <g id="Grupo_90571" data-name="Grupo 90571" clip-path="url(#clip-path-13)">
              <path id="Trazado_154640" data-name="Trazado 154640" d="M240.676,6.6a2.762,2.762,0,1,1-2.762-2.762A2.763,2.763,0,0,1,240.676,6.6" transform="translate(-235.151 -3.834)" fill="#3e479b"/>
            </g>
          </g>
        </g>
        <g id="Grupo_90576" data-name="Grupo 90576" transform="translate(44.556 243.116)" opacity="0.58">
          <g id="Grupo_90575" data-name="Grupo 90575">
            <g id="Grupo_90574" data-name="Grupo 90574" clip-path="url(#clip-path-13)">
              <path id="Trazado_154641" data-name="Trazado 154641" d="M78.109,398.813a2.762,2.762,0,1,1-2.762-2.762,2.763,2.763,0,0,1,2.762,2.762" transform="translate(-72.584 -396.051)" fill="#3e479b"/>
            </g>
          </g>
        </g>
        <g id="Grupo_90579" data-name="Grupo 90579" transform="translate(219.522 255.346)" opacity="0.58">
          <g id="Grupo_90578" data-name="Grupo 90578">
            <g id="Grupo_90577" data-name="Grupo 90577" clip-path="url(#clip-path-16)">
              <path id="Trazado_154642" data-name="Trazado 154642" d="M361.912,418.122a2.148,2.148,0,1,1-2.148-2.148,2.148,2.148,0,0,1,2.148,2.148" transform="translate(-357.615 -415.974)" fill="#cf9bfc"/>
            </g>
          </g>
        </g>
        <g id="Grupo_90582" data-name="Grupo 90582" transform="translate(34.203 51.24)" opacity="0.58">
          <g id="Grupo_90581" data-name="Grupo 90581">
            <g id="Grupo_90580" data-name="Grupo 90580" clip-path="url(#clip-path-17)">
              <path id="Trazado_154643" data-name="Trazado 154643" d="M57.56,84.394a.921.921,0,1,1-.921-.921.921.921,0,0,1,.921.921" transform="translate(-55.718 -83.473)" fill="#3e479b"/>
            </g>
          </g>
        </g>
        <g id="Grupo_90585" data-name="Grupo 90585" transform="translate(224.699 20.684)" opacity="0.58">
          <g id="Grupo_90584" data-name="Grupo 90584">
            <g id="Grupo_90583" data-name="Grupo 90583" clip-path="url(#clip-path-18)">
              <path id="Trazado_154644" data-name="Trazado 154644" d="M372.611,37.706a3.317,3.317,0,1,1-2.551-3.937,3.317,3.317,0,0,1,2.551,3.937" transform="translate(-366.049 -33.695)" fill="#cf9bfc"/>
            </g>
          </g>
        </g>
        <g id="Grupo_90588" data-name="Grupo 90588" transform="translate(51.414 7.878)" opacity="0.58">
          <g id="Grupo_90587" data-name="Grupo 90587">
            <g id="Grupo_90586" data-name="Grupo 90586" clip-path="url(#clip-path-19)">
              <path id="Trazado_154645" data-name="Trazado 154645" d="M86.33,14.407a1.3,1.3,0,1,1-1-1.544,1.3,1.3,0,0,1,1,1.544" transform="translate(-83.757 -12.834)" fill="#cf9bfc"/>
            </g>
          </g>
        </g>
        <g id="Grupo_90591" data-name="Grupo 90591" transform="translate(259.133 2.649)" opacity="0.58">
          <g id="Grupo_90590" data-name="Grupo 90590">
            <g id="Grupo_90589" data-name="Grupo 90589" clip-path="url(#clip-path-20)">
              <path id="Trazado_154646" data-name="Trazado 154646" d="M424.331,5.652a1.106,1.106,0,1,1-.85-1.312,1.106,1.106,0,0,1,.85,1.312" transform="translate(-422.144 -4.315)" fill="#3e479b"/>
            </g>
          </g>
        </g>
        <g id="Grupo_90594" data-name="Grupo 90594" transform="translate(25.224 266.374)" opacity="0.58">
          <g id="Grupo_90593" data-name="Grupo 90593">
            <g id="Grupo_90592" data-name="Grupo 90592" clip-path="url(#clip-path-20)">
              <path id="Trazado_154647" data-name="Trazado 154647" d="M43.279,435.276a1.106,1.106,0,1,1-.85-1.312,1.106,1.106,0,0,1,.85,1.312" transform="translate(-41.091 -433.939)" fill="#3e479b"/>
            </g>
          </g>
        </g>
        <g id="Grupo_90597" data-name="Grupo 90597" transform="translate(42.747 70.668)" opacity="0.66">
          <g id="Grupo_90596" data-name="Grupo 90596">
            <g id="Grupo_90595" data-name="Grupo 90595" clip-path="url(#clip-path-22)">
              <path id="Trazado_154648" data-name="Trazado 154648" d="M133.878,147.106l-4.885-.373a25.141,25.141,0,0,0-3.345-10.213l3.718-3.191a4.493,4.493,0,0,0-5.852-6.82L119.8,129.7a25.147,25.147,0,0,0-9.587-4.857l.373-4.885a4.493,4.493,0,1,0-8.96-.684l-.373,4.885A25.144,25.144,0,0,0,91.035,127.5l-3.191-3.718a4.493,4.493,0,1,0-6.819,5.852l3.19,3.718a25.147,25.147,0,0,0-4.857,9.587l-4.885-.373a4.493,4.493,0,0,0-.684,8.96l4.885.373a25.15,25.15,0,0,0,3.345,10.213L78.3,165.308a4.493,4.493,0,0,0,5.852,6.82l3.718-3.191a25.151,25.151,0,0,0,9.587,4.857l-.373,4.885a4.494,4.494,0,0,0,8.961.684l.373-4.885a25.15,25.15,0,0,0,10.213-3.345l3.191,3.718a4.493,4.493,0,0,0,6.82-5.852l-3.191-3.718a25.147,25.147,0,0,0,4.857-9.587l4.885.373a4.493,4.493,0,1,0,.684-8.96M102.44,167.571a18.306,18.306,0,1,1,19.646-16.859,18.306,18.306,0,0,1-19.646,16.859" transform="translate(-69.638 -115.123)" fill="#fff"/>
              <path id="Trazado_154649" data-name="Trazado 154649" d="M325.584,362.037a3.749,3.749,0,0,1-3.565-2.615l-.877-2.772a17.961,17.961,0,0,1-6.715-.579l-1.339,2.581a3.744,3.744,0,0,1-6.646-3.45l1.339-2.58a17.975,17.975,0,0,1-4.338-5.158l-2.772.878a3.744,3.744,0,0,1-2.261-7.138l2.772-.878a17.979,17.979,0,0,1,.579-6.715l-2.58-1.339a3.744,3.744,0,0,1,3.449-6.646l2.58,1.339a18,18,0,0,1,5.158-4.339l-.878-2.771a3.744,3.744,0,0,1,7.138-2.26l.878,2.772a17.951,17.951,0,0,1,6.715.579l1.339-2.581a3.744,3.744,0,1,1,6.646,3.45l-1.339,2.579a18.008,18.008,0,0,1,4.339,5.158l2.771-.877a3.744,3.744,0,1,1,2.26,7.138l-2.772.877a17.982,17.982,0,0,1-.579,6.716l2.581,1.338a3.744,3.744,0,0,1-3.45,6.647l-2.579-1.339a18,18,0,0,1-5.159,4.338l.878,2.772a3.75,3.75,0,0,1-3.574,4.876M322,355.308l1.185,3.744a2.517,2.517,0,0,0,4.8-1.52l-1.186-3.743.454-.239a16.807,16.807,0,0,0,5.53-4.651l.313-.406,3.485,1.808a2.516,2.516,0,1,0,2.318-4.466l-3.485-1.809.152-.49a16.805,16.805,0,0,0,.621-7.2l-.066-.509,3.743-1.185a2.516,2.516,0,1,0-1.519-4.8L334.6,331.03l-.239-.455a16.8,16.8,0,0,0-4.651-5.529l-.407-.313,1.81-3.485a2.516,2.516,0,0,0-4.467-2.318l-1.809,3.485-.491-.152a16.832,16.832,0,0,0-7.2-.621l-.51.066-1.185-3.744a2.517,2.517,0,1,0-4.8,1.52l1.186,3.743-.454.239a16.823,16.823,0,0,0-5.529,4.651l-.313.408-3.486-1.81a2.516,2.516,0,0,0-2.317,4.467l3.485,1.809-.152.49a16.8,16.8,0,0,0-.621,7.2l.066.509-3.743,1.185a2.516,2.516,0,0,0,1.519,4.8l3.743-1.185.239.454a16.812,16.812,0,0,0,4.651,5.529l.406.313-1.808,3.485A2.516,2.516,0,0,0,312,358.086l1.809-3.485.49.152a16.834,16.834,0,0,0,7.2.621Zm-2.7-3.427a13.4,13.4,0,1,1,4.051-.63,13.308,13.308,0,0,1-4.051.63m.029-25.517a12.157,12.157,0,1,0,5.577,1.37,12.173,12.173,0,0,0-5.577-1.37" transform="translate(-156.968 -192.297)" fill="#fff"/>
              <path id="Trazado_154650" data-name="Trazado 154650" d="M378.961,313.52A4.827,4.827,0,0,1,374.187,308l.586-4.036a24.01,24.01,0,0,1-8.006-4.765l-3.269,2.439a4.821,4.821,0,0,1-5.766-7.727L361,291.476a24,24,0,0,1-2.292-9.03l-4.036-.587a4.821,4.821,0,0,1,1.385-9.542l4.037.587a23.99,23.99,0,0,1,4.765-8.006l-2.44-3.268a4.821,4.821,0,1,1,7.727-5.766l2.44,3.268a24.005,24.005,0,0,1,9.03-2.291l.587-4.036a4.821,4.821,0,1,1,9.541,1.385l-.586,4.037a24,24,0,0,1,8.006,4.765l3.269-2.441a4.821,4.821,0,0,1,5.766,7.728l-3.268,2.44a24,24,0,0,1,2.291,9.03l4.037.587a4.821,4.821,0,0,1-1.386,9.541l-4.037-.587a23.992,23.992,0,0,1-4.765,8.006l2.439,3.269a4.821,4.821,0,1,1-7.727,5.766l-2.439-3.268a24,24,0,0,1-9.03,2.29l-.587,4.037a4.828,4.828,0,0,1-4.767,4.128m-12.109-15.912.375.351a22.814,22.814,0,0,0,8.421,5.013l.487.162-.733,5.047a3.593,3.593,0,1,0,7.112,1.034l.733-5.048.513-.017a22.807,22.807,0,0,0,9.5-2.41l.459-.23,3.05,4.088a3.593,3.593,0,1,0,5.758-4.3l-3.05-4.088.351-.375a22.808,22.808,0,0,0,5.013-8.421l.162-.487,5.047.733a3.594,3.594,0,0,0,1.034-7.113l-5.048-.733-.017-.513a22.8,22.8,0,0,0-2.41-9.5l-.23-.459,4.087-3.051a3.593,3.593,0,1,0-4.3-5.758h0l-4.088,3.051-.375-.351a22.8,22.8,0,0,0-8.421-5.013l-.487-.162.733-5.048a3.593,3.593,0,0,0-7.112-1.033l-.733,5.047-.513.017a22.8,22.8,0,0,0-9.5,2.41l-.459.23-3.051-4.087a3.593,3.593,0,1,0-5.759,4.3l3.05,4.087-.351.375a22.793,22.793,0,0,0-5.013,8.421l-.163.487-5.047-.733a3.593,3.593,0,0,0-1.033,7.112l5.048.733.017.513a22.8,22.8,0,0,0,2.411,9.5l.23.459-4.088,3.051a3.593,3.593,0,1,0,4.3,5.759Zm16.137,1.236a17.736,17.736,0,1,1,10.6-3.518,17.741,17.741,0,0,1-10.6,3.518m-.057-34.274a16.572,16.572,0,1,0,2.411.175,16.733,16.733,0,0,0-2.411-.175m10.286,30.263h0Z" transform="translate(-178.11 -166.695)" fill="#fff"/>
            </g>
          </g>
        </g>
        <g id="Grupo_90603" data-name="Grupo 90603" transform="translate(94.203 202.56)" opacity="0.81">
          <g id="Grupo_90602" data-name="Grupo 90602">
            <g id="Grupo_90601" data-name="Grupo 90601" clip-path="url(#clip-path-23)">
              <path id="Trazado_154651" data-name="Trazado 154651" d="M259.22,357.564H246.61a.614.614,0,1,1,0-1.228h12.61a.614.614,0,1,1,0,1.228" transform="translate(-189.195 -340.159)" fill="#fff"/>
              <path id="Trazado_154652" data-name="Trazado 154652" d="M259.22,378.918H246.61a.614.614,0,1,1,0-1.228h12.61a.614.614,0,1,1,0,1.228" transform="translate(-189.195 -348.405)" fill="#fff"/>
              <path id="Trazado_154653" data-name="Trazado 154653" d="M233.007,373.733H155.128a1.665,1.665,0,0,1-1.664-1.664V331.648a1.666,1.666,0,0,1,1.664-1.665h77.879a1.667,1.667,0,0,1,1.665,1.665v40.421a1.666,1.666,0,0,1-1.665,1.664m-77.879-42.522a.437.437,0,0,0-.436.437v40.421a.437.437,0,0,0,.436.436h77.879a.437.437,0,0,0,.437-.436V331.648a.438.438,0,0,0-.437-.437Z" transform="translate(-153.463 -329.983)" fill="#fff"/>
              <g id="Grupo_90600" data-name="Grupo 90600" opacity="0.66">
                <g id="Grupo_90599" data-name="Grupo 90599">
                  <g id="Grupo_90598" data-name="Grupo 90598" clip-path="url(#clip-path-23)">
                    <path id="Trazado_154654" data-name="Trazado 154654" d="M233.007,373.733H155.128a1.665,1.665,0,0,1-1.664-1.664V331.648a1.666,1.666,0,0,1,1.664-1.665h77.879a1.667,1.667,0,0,1,1.665,1.665v40.421a1.666,1.666,0,0,1-1.665,1.664m-77.879-42.522a.437.437,0,0,0-.436.437v40.421a.437.437,0,0,0,.436.436h77.879a.437.437,0,0,0,.437-.436V331.648a.438.438,0,0,0-.437-.437Z" transform="translate(-153.463 -329.983)" fill="#fff"/>
                  </g>
                </g>
              </g>
              <path id="Trazado_154655" data-name="Trazado 154655" d="M229.352,347.2H169.263a.614.614,0,1,1,0-1.228h60.089a.614.614,0,1,1,0,1.228" transform="translate(-159.327 -336.158)" fill="#fff"/>
              <path id="Trazado_154656" data-name="Trazado 154656" d="M229.352,367.928H169.263a.614.614,0,1,1,0-1.228h60.089a.614.614,0,1,1,0,1.228" transform="translate(-159.327 -344.161)" fill="#fff"/>
              <path id="Trazado_154657" data-name="Trazado 154657" d="M201.658,357.564h-32.4a.614.614,0,1,1,0-1.228h32.4a.614.614,0,1,1,0,1.228" transform="translate(-159.327 -340.159)" fill="#fff"/>
              <path id="Trazado_154658" data-name="Trazado 154658" d="M201.658,378.918h-32.4a.614.614,0,1,1,0-1.228h32.4a.614.614,0,1,1,0,1.228" transform="translate(-159.327 -348.405)" fill="#fff"/>
              <path id="Trazado_154659" data-name="Trazado 154659" d="M191.11,388.81H169.262a.614.614,0,1,1,0-1.228H191.11a.614.614,0,0,1,0,1.228" transform="translate(-159.327 -352.225)" fill="#fff"/>
            </g>
          </g>
        </g>
        <g id="Grupo_90609" data-name="Grupo 90609" transform="translate(16.914 149.825)" opacity="0.81">
          <g id="Grupo_90608" data-name="Grupo 90608">
            <g id="Grupo_90607" data-name="Grupo 90607" clip-path="url(#clip-path-25)">
              <path id="Trazado_154660" data-name="Trazado 154660" d="M61.693,293.539H47.521a.614.614,0,1,1,0-1.228H61.693a.614.614,0,1,1,0,1.228" transform="translate(-35.027 -262.701)" fill="#fff"/>
              <path id="Trazado_154661" data-name="Trazado 154661" d="M61.693,269.539H47.521a.614.614,0,1,1,0-1.228H61.693a.614.614,0,1,1,0,1.228" transform="translate(-35.027 -253.433)" fill="#fff"/>
              <path id="Trazado_154662" data-name="Trazado 154662" d="M117.009,293.094H29.218a1.667,1.667,0,0,1-1.665-1.665V245.739a1.667,1.667,0,0,1,1.665-1.665h87.792a1.666,1.666,0,0,1,1.664,1.665V291.43a1.666,1.666,0,0,1-1.664,1.665M29.218,245.3a.438.438,0,0,0-.437.437V291.43a.438.438,0,0,0,.437.437h87.792a.437.437,0,0,0,.436-.437V245.739a.437.437,0,0,0-.436-.437Z" transform="translate(-27.553 -244.074)" fill="#fff"/>
              <g id="Grupo_90606" data-name="Grupo 90606" opacity="0.66">
                <g id="Grupo_90605" data-name="Grupo 90605">
                  <g id="Grupo_90604" data-name="Grupo 90604" clip-path="url(#clip-path-25)">
                    <path id="Trazado_154663" data-name="Trazado 154663" d="M117.009,293.094H29.218a1.667,1.667,0,0,1-1.665-1.665V245.739a1.667,1.667,0,0,1,1.665-1.665h87.792a1.666,1.666,0,0,1,1.664,1.665V291.43a1.666,1.666,0,0,1-1.664,1.665M29.218,245.3a.438.438,0,0,0-.437.437V291.43a.438.438,0,0,0,.437.437h87.792a.437.437,0,0,0,.436-.437V245.739a.437.437,0,0,0-.436-.437Z" transform="translate(-27.553 -244.074)" fill="#fff"/>
                  </g>
                </g>
              </g>
              <path id="Trazado_154664" data-name="Trazado 154664" d="M115.056,305.185H47.52a.614.614,0,1,1,0-1.228h67.536a.614.614,0,1,1,0,1.228" transform="translate(-35.027 -267.198)" fill="#fff"/>
              <path id="Trazado_154665" data-name="Trazado 154665" d="M115.056,281.891H47.52a.614.614,0,0,1,0-1.228h67.536a.614.614,0,0,1,0,1.228" transform="translate(-35.027 -258.203)" fill="#fff"/>
              <path id="Trazado_154666" data-name="Trazado 154666" d="M134.636,293.539H98.225a.614.614,0,1,1,0-1.228h36.411a.614.614,0,1,1,0,1.228" transform="translate(-54.606 -262.701)" fill="#fff"/>
              <path id="Trazado_154667" data-name="Trazado 154667" d="M134.636,269.539H98.225a.614.614,0,1,1,0-1.228h36.411a.614.614,0,1,1,0,1.228" transform="translate(-54.606 -253.433)" fill="#fff"/>
              <path id="Trazado_154668" data-name="Trazado 154668" d="M142.094,258.421H117.538a.614.614,0,1,1,0-1.228h24.556a.614.614,0,1,1,0,1.228" transform="translate(-62.064 -249.14)" fill="#fff"/>
            </g>
          </g>
        </g>
        <g id="Grupo_90612" data-name="Grupo 90612" transform="translate(140.9 90.261)" opacity="0.14">
          <g id="Grupo_90611" data-name="Grupo 90611">
            <g id="Grupo_90610" data-name="Grupo 90610" clip-path="url(#clip-path-27)">
              <path id="Trazado_154669" data-name="Trazado 154669" d="M297.259,280.43l-67.167-39.822a1.136,1.136,0,0,1-.4-1.557L283.916,147.6a1.136,1.136,0,0,1,1.557-.4l67.167,39.822a1.137,1.137,0,0,1,.4,1.557l-54.221,91.453a1.137,1.137,0,0,1-1.557.4" transform="translate(-229.535 -147.04)" fill="#3e479b"/>
            </g>
          </g>
        </g>
        <path id="Trazado_154670" data-name="Trazado 154670" d="M294.418,274.46l-67.167-39.822a1.136,1.136,0,0,1-.4-1.557l54.221-91.453a1.136,1.136,0,0,1,1.557-.4L349.8,181.051a1.137,1.137,0,0,1,.4,1.557l-54.221,91.453a1.137,1.137,0,0,1-1.557.4" transform="translate(-87.538 -54.474)" fill="#a5a4f7"/>
        <g id="Grupo_90615" data-name="Grupo 90615" transform="translate(148.452 97.899)" opacity="0.14">
          <g id="Grupo_90614" data-name="Grupo 90614">
            <g id="Grupo_90613" data-name="Grupo 90613" clip-path="url(#clip-path-28)">
              <path id="Trazado_154671" data-name="Trazado 154671" d="M319.559,280.45,242.768,266.3a1.137,1.137,0,0,1-.912-1.323L261.13,160.415a1.136,1.136,0,0,1,1.323-.912l76.791,14.155a1.136,1.136,0,0,1,.912,1.323L320.882,279.538a1.136,1.136,0,0,1-1.323.912" transform="translate(-241.837 -159.484)" fill="#3e479b"/>
            </g>
          </g>
        </g>
        <rect id="Rectángulo_27220" data-name="Rectángulo 27220" width="108.591" height="80.357" transform="translate(146.624 201.564) rotate(-79.556)" fill="#fff"/>
        <g id="Grupo_90618" data-name="Grupo 90618" transform="translate(146.81 94.958)" opacity="0.39">
          <g id="Grupo_90617" data-name="Grupo 90617">
            <g id="Grupo_90616" data-name="Grupo 90616" clip-path="url(#clip-path-28)">
              <path id="Trazado_154672" data-name="Trazado 154672" d="M316.885,275.659,240.095,261.5a1.136,1.136,0,0,1-.912-1.323l19.273-104.557a1.136,1.136,0,0,1,1.323-.912l76.791,14.155a1.136,1.136,0,0,1,.912,1.323L318.209,274.747a1.136,1.136,0,0,1-1.323.912" transform="translate(-239.163 -154.693)" fill="#a5a4f7"/>
            </g>
          </g>
        </g>
        <path id="Trazado_154673" data-name="Trazado 154673" d="M367.7,195.611a.588.588,0,0,1-.112-.01l-19.222-3.543a.614.614,0,1,1,.223-1.207l19.223,3.543a.614.614,0,0,1-.111,1.217" transform="translate(-134.329 -73.693)" fill="#fff"/>
        <path id="Trazado_154674" data-name="Trazado 154674" d="M365.86,205.615a.587.587,0,0,1-.112-.01l-19.222-3.543a.614.614,0,1,1,.223-1.207l19.223,3.544a.614.614,0,0,1-.111,1.217" transform="translate(-133.617 -77.556)" fill="#fff"/>
        <path id="Trazado_154675" data-name="Trazado 154675" d="M363.857,216.488a.594.594,0,0,1-.113-.01l-19.222-3.543a.614.614,0,1,1,.223-1.207l19.223,3.543a.614.614,0,0,1-.111,1.217" transform="translate(-132.843 -81.755)" fill="#fff"/>
        <g id="Grupo_90621" data-name="Grupo 90621" transform="translate(167.331 96.478)" opacity="0.14">
          <g id="Grupo_90620" data-name="Grupo 90620">
            <g id="Grupo_90619" data-name="Grupo 90619" clip-path="url(#clip-path-30)">
              <path id="Trazado_154676" data-name="Trazado 154676" d="M306.535,201.1,273.6,195.028a1.23,1.23,0,0,1-.987-1.433l6.529-35.419a1.23,1.23,0,0,1,1.433-.987l32.935,6.071a1.23,1.23,0,0,1,.986,1.433l-6.529,35.419a1.23,1.23,0,0,1-1.433.987" transform="translate(-272.593 -157.169)" fill="#3e479b"/>
            </g>
          </g>
        </g>
        <path id="Trazado_154677" data-name="Trazado 154677" d="M305.531,199.113l-31.4-5.787a1.23,1.23,0,0,1-.986-1.433l6.181-33.533a1.231,1.231,0,0,1,1.433-.987l31.4,5.788a1.23,1.23,0,0,1,.987,1.433l-6.181,33.533a1.23,1.23,0,0,1-1.433.987" transform="translate(-105.468 -60.761)" fill="#599af2"/>
        <g id="Grupo_90624" data-name="Grupo 90624" transform="translate(173.277 96.585)" opacity="0.07">
          <g id="Grupo_90623" data-name="Grupo 90623">
            <g id="Grupo_90622" data-name="Grupo 90622" clip-path="url(#clip-path-31)">
              <path id="Trazado_154678" data-name="Trazado 154678" d="M316.1,167.754l-33.818-6.234.59-3.2a1.2,1.2,0,0,1,1.391-.958l31.511,5.809a1.151,1.151,0,0,1,.924,1.341Z" transform="translate(-282.279 -157.343)" fill="#ecf1f7"/>
            </g>
          </g>
        </g>
        <path id="Trazado_154679" data-name="Trazado 154679" d="M294.581,175.969a3.968,3.968,0,0,1-.722-.066l-.468-.086a4.592,4.592,0,0,1-3.679-5.341l1.181-6.408a.921.921,0,0,1,1.811.334l-1.18,6.408a2.746,2.746,0,0,0,2.2,3.2l.468.087a2.133,2.133,0,0,0,2.484-1.711l2.99-16.219A2.2,2.2,0,0,0,297.9,153.6l-.8-.147a2.338,2.338,0,0,0-2.722,1.875l-.073.4a.921.921,0,0,1-1.811-.333l.074-.4a4.183,4.183,0,0,1,4.867-3.352l.8.147a4.048,4.048,0,0,1,3.244,4.708l-2.99,16.22a3.982,3.982,0,0,1-3.907,3.255" transform="translate(-111.843 -58.528)" fill="#3e479b"/>
        <path id="Trazado_154680" data-name="Trazado 154680" d="M294.987,167.322a.355.355,0,0,1-.056,0l-12.27-2.262a.307.307,0,1,1,.112-.6l12.27,2.261a.307.307,0,0,1-.055.609" transform="translate(-109.052 -63.501)" fill="#fff"/>
        <path id="Trazado_154681" data-name="Trazado 154681" d="M326.686,264.885a.592.592,0,0,1-.112-.01l-58.735-10.826a.614.614,0,0,1,.223-1.207L326.8,263.667a.614.614,0,0,1-.111,1.217" transform="translate(-103.232 -97.63)" fill="#fff"/>
        <path id="Trazado_154682" data-name="Trazado 154682" d="M319.845,302a.587.587,0,0,1-.112-.01L261,291.161a.614.614,0,1,1,.223-1.207l58.736,10.826a.614.614,0,0,1-.111,1.217" transform="translate(-100.59 -111.961)" fill="#fff"/>
        <path id="Trazado_154683" data-name="Trazado 154683" d="M292.3,277.732a.592.592,0,0,1-.112-.01L264.418,272.6a.614.614,0,1,1,.223-1.207l27.766,5.118a.614.614,0,0,1-.111,1.217" transform="translate(-101.911 -104.795)" fill="#fff"/>
        <path id="Trazado_154684" data-name="Trazado 154684" d="M298.528,243.921a.589.589,0,0,1-.112-.01l-27.766-5.118a.614.614,0,0,1,.223-1.207l27.766,5.118a.614.614,0,0,1-.111,1.217" transform="translate(-104.317 -91.74)" fill="#fff"/>
        <path id="Trazado_154685" data-name="Trazado 154685" d="M343.6,287.04a.6.6,0,0,1-.113-.01l-26.454-4.876a.614.614,0,0,1,.223-1.207l26.456,4.877a.614.614,0,0,1-.111,1.217" transform="translate(-122.228 -108.483)" fill="#fff"/>
        <path id="Trazado_154686" data-name="Trazado 154686" d="M328.673,84.883H296.028a2.046,2.046,0,0,1-2.046-2.046V71.919a2.046,2.046,0,0,1,2.046-2.046h32.645a2.046,2.046,0,0,1,2.046,2.046V82.838a2.046,2.046,0,0,1-2.046,2.046" transform="translate(-113.521 -26.981)" fill="#599af2"/>
        <path id="Trazado_154687" data-name="Trazado 154687" d="M360.546,108.191H314.882a2.046,2.046,0,0,1-2.046-2.046V89.907a2.046,2.046,0,0,1,2.046-2.046h45.664a2.046,2.046,0,0,1,2.046,2.046v16.238a2.046,2.046,0,0,1-2.046,2.046" transform="translate(-120.801 -33.927)" fill="#a5a4f7"/>
        <path id="Trazado_154688" data-name="Trazado 154688" d="M330.9,113.979h50.566a2.786,2.786,0,0,1,2.778,2.778v15.491a2.786,2.786,0,0,1-2.778,2.777H330.9a2.786,2.786,0,0,1-2.778-2.777V116.757a2.786,2.786,0,0,1,2.778-2.778" transform="translate(-126.703 -44.013)" fill="#fff"/>
        <g id="Grupo_90627" data-name="Grupo 90627" transform="translate(201.417 69.966)" opacity="0.74">
          <g id="Grupo_90626" data-name="Grupo 90626">
            <g id="Grupo_90625" data-name="Grupo 90625" clip-path="url(#clip-path-32)">
              <path id="Trazado_154689" data-name="Trazado 154689" d="M330.9,113.979h50.566a2.786,2.786,0,0,1,2.778,2.778v15.491a2.786,2.786,0,0,1-2.778,2.777H330.9a2.786,2.786,0,0,1-2.778-2.777V116.757a2.786,2.786,0,0,1,2.778-2.778" transform="translate(-328.12 -113.979)" fill="#6d6cd4"/>
            </g>
          </g>
        </g>
        <path id="Trazado_154690" data-name="Trazado 154690" d="M388.989,132.069a2.438,2.438,0,1,1,2.438-2.438,2.441,2.441,0,0,1-2.438,2.438m0-4.262a1.824,1.824,0,1,0,1.824,1.824,1.826,1.826,0,0,0-1.824-1.824" transform="translate(-149.266 -49.116)" fill="#fff"/>
        <path id="Trazado_154691" data-name="Trazado 154691" d="M372.6,132.069a2.438,2.438,0,1,1,2.438-2.438,2.441,2.441,0,0,1-2.438,2.438m0-4.262a1.824,1.824,0,1,0,1.824,1.824,1.826,1.826,0,0,0-1.824-1.824" transform="translate(-142.939 -49.116)" fill="#fff"/>
        <path id="Trazado_154692" data-name="Trazado 154692" d="M357.328,132.069a2.438,2.438,0,1,1,2.438-2.438,2.441,2.441,0,0,1-2.438,2.438m0-4.262a1.824,1.824,0,1,0,1.824,1.824,1.826,1.826,0,0,0-1.824-1.824" transform="translate(-137.041 -49.116)" fill="#fff"/>
        <path id="Trazado_154693" data-name="Trazado 154693" d="M129.7,72.268h78.353a2.857,2.857,0,0,1,2.857,2.857V190.532a9.858,9.858,0,0,1-9.858,9.858h-54.4a21.006,21.006,0,0,1-21.006-21.006V76.324a4.056,4.056,0,0,1,4.056-4.056" transform="translate(-48.518 -27.906)" fill="#fff"/>
        <g id="Grupo_90630" data-name="Grupo 90630" transform="translate(77.127 44.362)" opacity="0.39">
          <g id="Grupo_90629" data-name="Grupo 90629">
            <g id="Grupo_90628" data-name="Grupo 90628" clip-path="url(#clip-path-33)">
              <path id="Trazado_154694" data-name="Trazado 154694" d="M126.643,72.268h82.738a1.532,1.532,0,0,1,1.532,1.532V190.991a9.4,9.4,0,0,1-9.4,9.4h-56.73a19.138,19.138,0,0,1-19.138-19.139V73.265a1,1,0,0,1,1-1" transform="translate(-125.645 -72.268)" fill="#6d6cd4"/>
            </g>
          </g>
        </g>
        <g id="Grupo_90633" data-name="Grupo 90633" transform="translate(84.702 44.362)" opacity="0.39">
          <g id="Grupo_90632" data-name="Grupo 90632">
            <g id="Grupo_90631" data-name="Grupo 90631" clip-path="url(#clip-path-34)">
              <path id="Trazado_154695" data-name="Trazado 154695" d="M138.66,72.268h75.8a1.211,1.211,0,0,1,1.211,1.211V191.311a9.078,9.078,0,0,1-9.078,9.078H156.8a18.818,18.818,0,0,1-18.818-18.818V72.944a.677.677,0,0,1,.676-.676" transform="translate(-137.984 -72.268)" fill="#3e479b"/>
            </g>
          </g>
        </g>
        <path id="Trazado_154696" data-name="Trazado 154696" d="M157.368,268.576v.021h68.486a14.272,14.272,0,0,0,14.273-14.273V248.9H170.866v5.422a14.273,14.273,0,0,1-13.5,14.251" transform="translate(-60.768 -96.114)" fill="#6161b5"/>
        <g id="Grupo_90636" data-name="Grupo 90636" transform="translate(105.68 152.789)" opacity="0.28">
          <g id="Grupo_90635" data-name="Grupo 90635">
            <g id="Grupo_90634" data-name="Grupo 90634" clip-path="url(#clip-path-35)">
              <path id="Trazado_154697" data-name="Trazado 154697" d="M172.159,268.576v.021h60.973c7.018,0,12.707-6.39,12.707-14.273V248.9H184.176v5.422c0,7.623-5.32,13.848-12.017,14.251" transform="translate(-172.159 -248.903)" fill="#3e479b"/>
            </g>
          </g>
        </g>
        <path id="Trazado_154698" data-name="Trazado 154698" d="M212.1,224.074H162.862a.614.614,0,1,1,0-1.228H212.1a.614.614,0,0,1,0,1.228" transform="translate(-62.652 -86.052)" fill="#fff"/>
        <path id="Trazado_154699" data-name="Trazado 154699" d="M212.559,190.3h-51.2a.614.614,0,0,1,0-1.228h51.2a.614.614,0,0,1,0,1.228" transform="translate(-62.073 -73.009)" fill="#fff"/>
        <path id="Trazado_154700" data-name="Trazado 154700" d="M186.515,207.172h-26.16a.614.614,0,1,1,0-1.228h26.16a.614.614,0,0,1,0,1.228" transform="translate(-61.684 -79.525)" fill="#fff"/>
        <path id="Trazado_154701" data-name="Trazado 154701" d="M185.78,207.172h-22.2a.614.614,0,1,1,0-1.228h22.2a.614.614,0,1,1,0,1.228" transform="translate(-62.931 -79.525)" fill="#fff"/>
        <path id="Trazado_154702" data-name="Trazado 154702" d="M195.644,154.184h-33.7a.614.614,0,1,1,0-1.228h33.7a.614.614,0,1,1,0,1.228" transform="translate(-62.297 -59.064)" fill="#fff"/>
        <path id="Trazado_154703" data-name="Trazado 154703" d="M235.837,154.184H225.571a.614.614,0,1,1,0-1.228h10.266a.614.614,0,1,1,0,1.228" transform="translate(-86.867 -59.064)" fill="#fff"/>
        <path id="Trazado_154704" data-name="Trazado 154704" d="M221.807,171.058H185.314a.614.614,0,1,1,0-1.228h36.493a.614.614,0,0,1,0,1.228" transform="translate(-71.322 -65.58)" fill="#fff"/>
        <path id="Trazado_154705" data-name="Trazado 154705" d="M172.46,171.058h-11.1a.614.614,0,1,1,0-1.228h11.1a.614.614,0,0,1,0,1.228" transform="translate(-62.073 -65.58)" fill="#fff"/>
        <path id="Trazado_154706" data-name="Trazado 154706" d="M212.1,139.9H162.862a.614.614,0,1,1,0-1.228H212.1a.614.614,0,0,1,0,1.228" transform="translate(-62.652 -53.547)" fill="#fff"/>
        <path id="Trazado_154707" data-name="Trazado 154707" d="M212.1,106.121H162.862a.614.614,0,1,1,0-1.228H212.1a.614.614,0,0,1,0,1.228" transform="translate(-62.652 -40.504)" fill="#fff"/>
        <path id="Trazado_154708" data-name="Trazado 154708" d="M180.58,122.995H161.943a.614.614,0,0,1,0-1.228H180.58a.614.614,0,0,1,0,1.228" transform="translate(-62.297 -47.02)" fill="#fff"/>
        <path id="Trazado_154709" data-name="Trazado 154709" d="M228.508,122.995h-22.2a.614.614,0,0,1,0-1.228h22.2a.614.614,0,0,1,0,1.228" transform="translate(-79.43 -47.02)" fill="#fff"/>
        <g id="Grupo_90639" data-name="Grupo 90639" transform="translate(148.97 81.382)" opacity="0.21">
          <g id="Grupo_90638" data-name="Grupo 90638">
            <g id="Grupo_90637" data-name="Grupo 90637" clip-path="url(#clip-path-36)">
              <path id="Trazado_154710" data-name="Trazado 154710" d="M281.533,132.576a38.852,38.852,0,1,0,38.852,38.852,38.852,38.852,0,0,0-38.852-38.852" transform="translate(-242.681 -132.576)" fill="#fff"/>
            </g>
          </g>
        </g>
        <g id="Grupo_90642" data-name="Grupo 90642" transform="translate(154.92 85.026)" opacity="0.76">
          <g id="Grupo_90641" data-name="Grupo 90641">
            <g id="Grupo_90640" data-name="Grupo 90640" clip-path="url(#clip-path-37)">
              <path id="Trazado_154711" data-name="Trazado 154711" d="M254.83,176.512a2.456,2.456,0,0,1-2.455-2.455,35.585,35.585,0,0,1,35.544-35.544,2.455,2.455,0,0,1,0,4.911,30.668,30.668,0,0,0-30.634,30.634,2.456,2.456,0,0,1-2.455,2.455" transform="translate(-252.375 -138.512)" fill="#fff"/>
            </g>
          </g>
        </g>
        <g id="Grupo_90645" data-name="Grupo 90645" transform="translate(147.742 80.154)" opacity="0.58">
          <g id="Grupo_90644" data-name="Grupo 90644">
            <g id="Grupo_90643" data-name="Grupo 90643" clip-path="url(#clip-path-38)">
              <path id="Trazado_154712" data-name="Trazado 154712" d="M280.761,210.735a40.08,40.08,0,1,1,40.079-40.08,40.125,40.125,0,0,1-40.079,40.08m0-77.7a37.624,37.624,0,1,0,37.624,37.624,37.667,37.667,0,0,0-37.624-37.624" transform="translate(-240.681 -130.576)" fill="#3e479b"/>
            </g>
          </g>
        </g>
        <path id="Trazado_154713" data-name="Trazado 154713" d="M313.163,195.185a1.845,1.845,0,0,1,.184-.15,45.444,45.444,0,1,0-8.309,8.275l5.245-5.245ZM277.453,206.2A38.852,38.852,0,1,1,316.3,167.348,38.852,38.852,0,0,1,277.453,206.2" transform="translate(-89.631 -47.114)" fill="#3e479b"/>
        <path id="Trazado_154714" data-name="Trazado 154714" d="M277.067,212.913a45.951,45.951,0,1,1,45.952-45.951,45.5,45.5,0,0,1-9.571,28.061l-.115.115a1.052,1.052,0,0,0-.119.095l-8.186,8.177a45.512,45.512,0,0,1-27.96,9.5m0-90.675a44.724,44.724,0,1,0,0,89.447,44.3,44.3,0,0,0,27.18-9.224l8.1-8.1a1.83,1.83,0,0,1,.182-.156,44.288,44.288,0,0,0,9.265-27.246,44.775,44.775,0,0,0-44.724-44.724m0,84.19a39.466,39.466,0,1,1,39.466-39.466,39.511,39.511,0,0,1-39.466,39.466m0-77.7A38.238,38.238,0,1,0,315.3,166.962a38.281,38.281,0,0,0-38.238-38.238" transform="translate(-89.245 -46.728)" fill="#3e479b"/>
        <path id="Trazado_154715" data-name="Trazado 154715" d="M357.542,250.116l-1.759-1.759a1.734,1.734,0,0,1,0-2.451l-5.245,5.245-.085.085a1.733,1.733,0,0,0,0,2.451l2.134,2.134a41.725,41.725,0,0,1,4.955-5.706" transform="translate(-135.131 -94.957)" fill="#4c65ba"/>
        <path id="Trazado_154716" data-name="Trazado 154716" d="M359.138,243.778a1.733,1.733,0,0,0,0,2.451l1.759,1.759a48.391,48.391,0,0,1,5.616-5.046l-2.043-2.044a1.8,1.8,0,0,0-2.451,0Z" transform="translate(-138.485 -92.828)" fill="#4c65ba"/>
        <g id="Grupo_90648" data-name="Grupo 90648" transform="translate(220.145 147.567)" opacity="0.43">
          <g id="Grupo_90647" data-name="Grupo 90647">
            <g id="Grupo_90646" data-name="Grupo 90646" clip-path="url(#clip-path-39)">
              <path id="Trazado_154717" data-name="Trazado 154717" d="M359.138,243.778a1.733,1.733,0,0,0,0,2.451l1.759,1.759a48.391,48.391,0,0,1,5.616-5.046l-2.043-2.044a1.8,1.8,0,0,0-2.451,0Z" transform="translate(-358.63 -240.395)" fill="#3e479b"/>
            </g>
          </g>
        </g>
        <path id="Trazado_154718" data-name="Trazado 154718" d="M397.552,276.178,365.625,243.9c-.115-.117-.465.038-.967.378a48.5,48.5,0,0,0-5.616,5.046,41.8,41.8,0,0,0-4.955,5.706c-.229.385-.318.651-.217.753L385.8,288.061a8.248,8.248,0,0,0,11.754,0,8.467,8.467,0,0,0,0-11.882" transform="translate(-136.631 -94.168)" fill="#599af2"/>
        <g id="Grupo_90651" data-name="Grupo 90651" transform="translate(221.671 149.696)" opacity="0.14">
          <g id="Grupo_90650" data-name="Grupo 90650">
            <g id="Grupo_90649" data-name="Grupo 90649" clip-path="url(#clip-path-40)">
              <path id="Trazado_154719" data-name="Trazado 154719" d="M400.365,276.178,368.438,243.9c-.43-.434-4.068,2.826-7.192,6.046-2.658,2.74,35.873,41.392,39.119,38.111a8.467,8.467,0,0,0,0-11.882" transform="translate(-361.115 -243.864)" fill="#3e479b"/>
            </g>
          </g>
        </g>
        <path id="Trazado_154720" data-name="Trazado 154720" d="M159.993,217.259H55.045a11.1,11.1,0,0,1,0-22.2H159.993a11.1,11.1,0,0,1,0,22.2" transform="translate(-16.969 -75.32)" fill="#fff"/>
        <path id="Trazado_154721" data-name="Trazado 154721" d="M222.205,217.259H205.136l-.083-22.2h17.152a11.1,11.1,0,0,1,0,22.2" transform="translate(-79.181 -75.32)" fill="#599af2"/>
        <path id="Trazado_154722" data-name="Trazado 154722" d="M222.9,213.37a4.856,4.856,0,1,1,3.434-1.422,4.862,4.862,0,0,1-3.434,1.422m0-8.484a3.628,3.628,0,1,0,3.628,3.628,3.632,3.632,0,0,0-3.628-3.628" transform="translate(-84.199 -78.642)" fill="#fff"/>
        <path id="Trazado_154723" data-name="Trazado 154723" d="M234.277,220.569a.608.608,0,0,1-.434-.18l-3.853-3.852a.614.614,0,0,1,.868-.868l3.852,3.853a.614.614,0,0,1-.433,1.047" transform="translate(-88.741 -83.211)" fill="#fff"/>
      </g>
    </g>
    <g id="Grupo_90655" data-name="Grupo 90655" transform="translate(48.247 147.273)">
      <g id="Grupo_90654" data-name="Grupo 90654" clip-path="url(#clip-path-41)">
        <rect id="Rectángulo_27234" data-name="Rectángulo 27234" width="102.462" height="81.786" transform="translate(0)" fill="url(#linear-gradient)"/>
      </g>
    </g>
    <g id="Grupo_90663" data-name="Grupo 90663">
      <g id="Grupo_90662" data-name="Grupo 90662" clip-path="url(#clip-path)">
        <path id="Trazado_154725" data-name="Trazado 154725" d="M165.495,257.521H113.257a6.62,6.62,0,0,1-6.62-6.62V246.56a6.643,6.643,0,0,0-6.643-6.644H75.865a6.644,6.644,0,0,0-6.644,6.644v68.955a6.188,6.188,0,0,0,6.188,6.188h90.086a6.188,6.188,0,0,0,6.188-6.188V263.709a6.188,6.188,0,0,0-6.188-6.188" transform="translate(-26.73 -92.643)" fill="#a3baf2"/>
        <g id="Grupo_90658" data-name="Grupo 90658" transform="translate(42.491 147.273)" opacity="0.12">
          <g id="Grupo_90657" data-name="Grupo 90657">
            <g id="Grupo_90656" data-name="Grupo 90656" clip-path="url(#clip-path-43)">
              <path id="Trazado_154726" data-name="Trazado 154726" d="M165.495,257.521H113.257a6.62,6.62,0,0,1-6.62-6.62V246.56a6.643,6.643,0,0,0-6.643-6.644H75.865a6.644,6.644,0,0,0-6.644,6.644v68.955a6.188,6.188,0,0,0,6.188,6.188h90.086a6.188,6.188,0,0,0,6.188-6.188V263.709a6.188,6.188,0,0,0-6.188-6.188" transform="translate(-69.221 -239.916)" fill="#fff"/>
            </g>
          </g>
        </g>
        <g id="Grupo_90661" data-name="Grupo 90661" transform="translate(42.491 147.273)" opacity="0.12">
          <g id="Grupo_90660" data-name="Grupo 90660">
            <g id="Grupo_90659" data-name="Grupo 90659" clip-path="url(#clip-path-44)">
              <path id="Trazado_154727" data-name="Trazado 154727" d="M152.245,257.521H107.2c-3.153,0-5.709-2.964-5.709-6.62V246.56c0-3.669-2.565-6.644-5.73-6.644H74.95c-3.164,0-5.729,2.975-5.729,6.644v68.955c0,3.418,2.389,6.188,5.336,6.188h77.688c2.947,0,5.336-2.77,5.336-6.188V263.709c0-3.418-2.389-6.188-5.336-6.188" transform="translate(-69.221 -239.916)" fill="#fff"/>
            </g>
          </g>
        </g>
        <path id="Trazado_154728" data-name="Trazado 154728" d="M76.7,267.3a.613.613,0,0,1-.614-.614V251.626a4.235,4.235,0,0,1,4.231-4.231h17.78a.614.614,0,0,1,0,1.228H80.315a3.006,3.006,0,0,0-3,3v15.063a.613.613,0,0,1-.614.614" transform="translate(-29.38 -95.531)" fill="#fff"/>
      </g>
    </g>
  </g>
</svg>
