<svg id="Grupo_90531" data-name="Grupo 90531" xmlns="http://www.w3.org/2000/svg" xmlns:xlink="http://www.w3.org/1999/xlink" width="13.429" height="9.018" viewBox="0 0 13.429 9.018">
  <defs>
    <clipPath id="clip-path">
      <rect id="Rectángulo_27193" data-name="Rectángulo 27193" width="13.429" height="9.018" fill="none"/>
    </clipPath>
  </defs>
  <g id="Grupo_90530" data-name="Grupo 90530" transform="translate(0 0)" clip-path="url(#clip-path)">
    <path id="Trazado_154619" data-name="Trazado 154619" d="M25.062,11.82H24.026c-.183,0-.332-.088-.336-.2l-.316-7.051c0-.114.147-.208.336-.208h1.352c.186,0,.336.091.336.2v7.052c0,.112-.151.2-.336.2" transform="translate(-15.008 -2.802)" fill="#6b418f"/>
    <path id="Trazado_154620" data-name="Trazado 154620" d="M23.2,2.445l.012.093c.011.088.129.157.275.161l1.494.047c.166.005.306-.075.306-.175V2.429c0-.094-.123-.171-.278-.175-.372-.01-1.042-.021-1.539,0-.161.008-.281.092-.269.188" transform="translate(-14.898 -1.44)" fill="#6b418f"/>
    <path id="Trazado_154621" data-name="Trazado 154621" d="M17.163,10.38H16.127c-.183,0-.332-.088-.336-.2l-.316-7.854c0-.114.147-.208.336-.208h1.352c.186,0,.336.091.336.2v7.854c0,.112-.151.2-.336.2" transform="translate(-9.936 -1.361)" fill="#6b418f"/>
    <path id="Trazado_154622" data-name="Trazado 154622" d="M15.3.2l.012.093c.011.088.129.157.275.161L17.084.5c.166.005.306-.075.306-.175V.186c0-.094-.123-.171-.278-.175-.372-.01-1.042-.021-1.539,0C15.412.021,15.291.1,15.3.2" transform="translate(-9.826 0)" fill="#6b418f"/>
    <path id="Trazado_154623" data-name="Trazado 154623" d="M33.358,15.484H32.322c-.183,0-.332-.088-.336-.2l-.122-5.009c0-.114.147-.208.336-.208h1.352c.186,0,.336.091.336.2l-.195,5.009c0,.112-.151.2-.336.2" transform="translate(-20.46 -6.466)" fill="#6b418f"/>
    <path id="Trazado_154624" data-name="Trazado 154624" d="M31.693,8.152l.012.093c.011.088.129.157.275.161l1.494.047c.166.005.306-.075.306-.175V8.136c0-.094-.123-.171-.278-.175-.372-.01-1.042-.021-1.539,0-.161.008-.281.092-.269.188" transform="translate(-20.35 -5.105)" fill="#6b418f"/>
    <path id="Trazado_154625" data-name="Trazado 154625" d="M1.86,11.82H.824c-.183,0-.332-.088-.336-.2L.172,4.571c0-.114.147-.208.336-.208H1.86c.186,0,.336.091.336.2v7.052c0,.112-.151.2-.336.2" transform="translate(-0.11 -2.802)" fill="#6b418f"/>
    <path id="Trazado_154626" data-name="Trazado 154626" d="M0,2.445l.012.093c.011.088.129.157.275.161l1.494.047c.166.005.306-.075.306-.175V2.429c0-.094-.123-.171-.278-.175-.372-.01-1.042-.021-1.539,0-.161.008-.281.092-.269.188" transform="translate(0 -1.44)" fill="#6b418f"/>
    <path id="Trazado_154627" data-name="Trazado 154627" d="M10.156,15.484H9.12c-.183,0-.332-.088-.336-.2l-.122-5.009c0-.114.147-.208.336-.208h1.352c.186,0,.336.091.336.2l-.195,5.009c0,.112-.151.2-.336.2" transform="translate(-5.562 -6.466)" fill="#6b418f"/>
    <path id="Trazado_154628" data-name="Trazado 154628" d="M8.491,8.152l.012.093c.011.088.129.157.275.161l1.494.047c.166.005.306-.075.306-.175V8.136c0-.094-.123-.171-.278-.175-.372-.01-1.042-.021-1.539,0-.161.008-.281.092-.269.188" transform="translate(-5.452 -5.105)" fill="#6b418f"/>
  </g>
</svg>
