<svg id="Grupo_89466" data-name="Grupo 89466" xmlns="http://www.w3.org/2000/svg" xmlns:xlink="http://www.w3.org/1999/xlink" width="273" height="195.57" viewBox="0 0 273 195.57">
  <defs>
    <clipPath id="clip-path">
      <rect id="Rectángulo_26642" data-name="Rectángulo 26642" width="273" height="195.57" fill="none"/>
    </clipPath>
    <clipPath id="clip-path-3">
      <rect id="Rectángulo_26616" data-name="Rectángulo 26616" width="47.897" height="55.553" fill="none"/>
    </clipPath>
    <clipPath id="clip-path-4">
      <rect id="Rectángulo_26617" data-name="Rectángulo 26617" width="86.904" height="65.497" fill="none"/>
    </clipPath>
    <clipPath id="clip-path-5">
      <rect id="Rectángulo_26639" data-name="Rectángulo 26639" width="32.78" height="32.779" fill="none"/>
    </clipPath>
  </defs>
  <g id="Grupo_89462" data-name="Grupo 89462" clip-path="url(#clip-path)">
    <g id="Grupo_89461" data-name="Grupo 89461">
      <g id="Grupo_89460" data-name="Grupo 89460" clip-path="url(#clip-path)">
        <path id="Trazado_153347" data-name="Trazado 153347" d="M24.209,194.895S-21.9,155.524,13.151,118.209C50.47,78.482,17.407,27.48,68.065,6.9c54.768-22.247,68.86,16.936,91.788,10.92,45.731-12,103.738-6.091,94.086,52.2-12.116,73.174,37.592,63.841,8.07,125.116Z" transform="translate(0 0)" fill="#d9fff9"/>
        <path id="Trazado_153348" data-name="Trazado 153348" d="M236.027,95.523s7.652-32.436,33.47-36a6.363,6.363,0,0,1,6.695,4.914c1.673,5.531-8.314,5.571-14.488,7.8s-20.566,11.656-25.677,23.292" transform="translate(-76.174 -19.203)" fill="#a5f7eb"/>
        <path id="Trazado_153349" data-name="Trazado 153349" d="M235.1,86.176s-2.685-26.868,16.156-36.4a5.157,5.157,0,0,1,6.425,2c2.739,3.8-4.9,6.46-9.046,9.791S235.949,75.914,235.1,86.176" transform="translate(-75.832 -15.926)" fill="#a5f7eb"/>
        <g id="Grupo_89453" data-name="Grupo 89453" transform="translate(60.594 66.65)" opacity="0.8">
          <g id="Grupo_89452" data-name="Grupo 89452">
            <g id="Grupo_89451" data-name="Grupo 89451" clip-path="url(#clip-path-3)">
              <path id="Trazado_153350" data-name="Trazado 153350" d="M130.086,127.086s11.073-6.2,5.905-14.617c0,0-4.133-5.168-8.563-6.5,0,0,2.363,12.55,0,12.845s-1.624-14.174-1.624-14.174-11.664-5.61-16.24-5.168c0,0,7.234,12.254,4.872,11.959s-10.483-12.7-10.483-12.7-11.959-2.215-13.879,4.872,1.181,10.63,2.953,11.073,13.14.3,12.845,1.772-7.973,3.839-12.254,2.51c0,0,4.725,11.664,10.926,11.073s8.12-4.429,11.959-4.725,6.644.738,4.725,1.772-8.416.339-11.516,2.975-5.61,4.26.148,5.441,16.093.443,18.16-3.986Z" transform="translate(-89.468 -98.411)" fill="#a5f7eb"/>
              <path id="Trazado_153351" data-name="Trazado 153351" d="M98.428,109.359s31.005,10.04,34.549,21.261A23.554,23.554,0,0,0,135.93,141.4v2.215s-3.248-7.53-5.02-8.563c0,0,6.939-9.744-32.482-25.69" transform="translate(-92.36 -101.944)" fill="#a5f7eb"/>
              <path id="Trazado_153352" data-name="Trazado 153352" d="M153.1,156.008a20.448,20.448,0,0,1,2.055,16.1l-1.229-.331s1.194-9.736-1.308-14.632.482-1.138.482-1.138" transform="translate(-109.525 -116.555)" fill="#a5f7eb"/>
            </g>
          </g>
        </g>
        <g id="Grupo_89456" data-name="Grupo 89456" transform="translate(24.209 118.21)" opacity="0.5">
          <g id="Grupo_89455" data-name="Grupo 89455">
            <g id="Grupo_89454" data-name="Grupo 89454" clip-path="url(#clip-path-4)">
              <path id="Trazado_153353" data-name="Trazado 153353" d="M118.9,201.722s7.254-21.733-9.87-26.693c0,0-11.8-1.879-19.327,1.728,0,0,18.4,13.889,15.6,17.153s-19.387-16.955-19.387-16.955-22.391,6.677-27.965,12.829c0,0,24.547,7.576,21.034,10.051s-29.423-4.221-29.423-4.221S30.9,207.184,36.95,218.979s14.491,12.76,17.4,11.2,17.906-15.568,19.3-13.238-5.983,14.812-13.315,18.239c0,0,20.478,9.836,28.041,1.514s5.464-15.78,10.231-20.837,9.769-7.086,8.461-3.373S96.241,223.159,95.3,230.445s-2.317,12.5,6.807,7.086,22.028-18.958,19.408-27.384Z" transform="translate(-35.744 -174.54)" fill="#a5f7eb"/>
              <path id="Trazado_153354" data-name="Trazado 153354" d="M52.268,226.959s53.6-24.258,71.963-13.578c0,0,6.242,7.654,2.62,8.426,0,0-2.571-21.443-74.583,5.153" transform="translate(-41.077 -186.199)" fill="#a5f7eb"/>
            </g>
          </g>
        </g>
        <path id="Trazado_153355" data-name="Trazado 153355" d="M273.065,212.788s2.137-13,12.176-10.93c0,0,6.5,2.208,9.366,6.06,0,0-13.081,2.131-12.534,4.54s14.4-3.425,14.4-3.425,9.6,9.4,10.783,14.021c0,0-14.515-2.728-13.392-.528s16.1,5.741,16.1,5.741,6.388,10.888.151,15.266-10.791,2.6-11.849,1.032-4.933-12.718-6.269-11.908-.928,9.137,1.882,12.846c0,0-13.052-.488-14.668-6.748s1.452-9.49.383-13.34-3.069-6.222-3.4-3.984,2.645,8.332,1.168,12.289S275.191,240.7,272,235.5s-6.12-15.547-2.529-19.13Z" transform="translate(-86.436 -65.075)" fill="#a5f7eb"/>
        <path id="Trazado_153356" data-name="Trazado 153356" d="M301.982,244.3s-20.756-26.707-32.958-26.2a24.445,24.445,0,0,1-11.561.929l-2.161.783s8.5.508,10.131,1.871c0,0,7.056-10.216,36.55,22.616" transform="translate(-82.395 -70.386)" fill="#a5f7eb"/>
        <path id="Trazado_153357" data-name="Trazado 153357" d="M250.661,219.3a21.222,21.222,0,0,0-16.437,3.685l.757,1.083s9.077-4.606,14.739-3.9.94-.872.94-.872" transform="translate(-75.592 -70.655)" fill="#a5f7eb"/>
        <path id="Trazado_153358" data-name="Trazado 153358" d="M265.562,121.919s-13.536-7.58-7.219-17.867c0,0,5.053-6.317,10.468-7.942,0,0-2.888,15.341,0,15.7S270.8,94.486,270.8,94.486s14.258-6.858,19.853-6.317c0,0-8.844,14.98-5.956,14.619s12.814-15.521,12.814-15.521,14.619-2.707,16.965,5.956-1.444,12.994-3.61,13.536-16.062.361-15.7,2.165,9.746,4.693,14.979,3.069c0,0-5.775,14.257-13.355,13.536s-9.926-5.415-14.619-5.776-8.121.9-5.775,2.166,10.287.414,14.077,3.636,6.858,5.207-.18,6.651-19.673.542-22.2-4.873Z" transform="translate(-82.834 -28.035)" fill="#a5f7eb"/>
        <path id="Trazado_153359" data-name="Trazado 153359" d="M310.314,100.249s-37.9,12.273-42.232,25.989a28.8,28.8,0,0,1-3.61,13.175v2.707s3.971-9.2,6.137-10.468c0,0-8.483-11.911,39.7-31.4" transform="translate(-85.355 -32.354)" fill="#a5f7eb"/>
        <path id="Trazado_153360" data-name="Trazado 153360" d="M262.786,157.272a25,25,0,0,0-2.513,19.68l1.5-.4s-1.46-11.9,1.6-17.885-.589-1.39-.589-1.39" transform="translate(-83.668 -50.213)" fill="#a5f7eb"/>
        <rect id="Rectángulo_26618" data-name="Rectángulo 26618" width="101.175" height="138.358" transform="translate(91.933 56.349)" fill="#3389ff"/>
        <rect id="Rectángulo_26619" data-name="Rectángulo 26619" width="92.553" height="130.812" transform="translate(96.244 60.083)" fill="#f1f9ff"/>
        <path id="Trazado_153361" data-name="Trazado 153361" d="M182.1,83.2v4.713a4.711,4.711,0,0,0,4.708,4.713h25.292a4.711,4.711,0,0,0,4.709-4.713V83.2Z" transform="translate(-58.772 -26.852)" fill="#25468f"/>
        <rect id="Rectángulo_26620" data-name="Rectángulo 26620" width="11.451" height="1.159" transform="translate(106.988 172.379)" fill="#a9c2ff"/>
        <rect id="Rectángulo_26621" data-name="Rectángulo 26621" width="11.451" height="1.159" transform="translate(121.092 172.379)" fill="#a9c2ff"/>
        <rect id="Rectángulo_26622" data-name="Rectángulo 26622" width="15.881" height="1.159" transform="translate(106.988 174.951)" fill="#a9c2ff"/>
        <path id="Trazado_153362" data-name="Trazado 153362" d="M177.606,112.049H181.8a3.656,3.656,0,0,1,2.672.93,2.9,2.9,0,0,1,.786,2.123,2.846,2.846,0,0,1-1.965,2.842l2.24,3.275h-2.358l-1.991-2.935h-1.558v2.935h-2.018Zm4.061,4.454c.983,0,1.546-.524,1.546-1.323,0-.864-.6-1.31-1.585-1.31h-2V116.5Z" transform="translate(-57.32 -36.162)" fill="#899bfa"/>
        <path id="Trazado_153363" data-name="Trazado 153363" d="M191.378,117.289V112.05h2.017v5.187c0,1.493.747,2.266,1.978,2.266s1.978-.747,1.978-2.2V112.05h2.018v5.174c0,2.777-1.559,4.139-4.022,4.139s-3.969-1.376-3.969-4.074" transform="translate(-61.764 -36.162)" fill="#899bfa"/>
        <path id="Trazado_153364" data-name="Trazado 153364" d="M206.213,112.049h2.018v7.335H212.8v1.834h-6.588Z" transform="translate(-66.552 -36.162)" fill="#899bfa"/>
        <path id="Trazado_153365" data-name="Trazado 153365" d="M218.185,112.049H225.1v1.795h-4.912v1.86h4.323V117.5h-4.323v1.925h4.978v1.795h-6.982Z" transform="translate(-70.416 -36.162)" fill="#899bfa"/>
        <path id="Trazado_153366" data-name="Trazado 153366" d="M230.216,119.82l1.192-1.428a4.2,4.2,0,0,0,2.737,1.113c.826,0,1.323-.328,1.323-.891,0-.511-.314-.773-1.847-1.166-1.847-.471-3.039-.982-3.039-2.829,0-1.664,1.336-2.764,3.209-2.764a5.309,5.309,0,0,1,3.406,1.166l-1.048,1.52a4.3,4.3,0,0,0-2.383-.9c-.773,0-1.179.354-1.179.826,0,.6.393.8,1.978,1.2,1.86.485,2.908,1.153,2.908,2.777,0,1.821-1.388,2.842-3.367,2.842a5.833,5.833,0,0,1-3.89-1.467" transform="translate(-74.299 -36.1)" fill="#899bfa"/>
        <rect id="Rectángulo_26623" data-name="Rectángulo 26623" width="49.725" height="0.642" transform="translate(116.867 87.218)" fill="#899bfa"/>
        <path id="Trazado_153367" data-name="Trazado 153367" d="M257.118,152.511H240.379V135.772h16.739Zm-15.95-.788H256.33V136.561H241.168Z" transform="translate(-77.579 -43.818)" fill="#a8ccff"/>
        <path id="Trazado_153368" data-name="Trazado 153368" d="M250.326,147.779a1.183,1.183,0,0,1-.912-.429L244.25,141.1a1.182,1.182,0,1,1,1.823-1.507l4.1,4.956,7.411-12.438a1.182,1.182,0,1,1,2.032,1.21l-8.269,13.88a1.184,1.184,0,0,1-.925.574c-.03,0-.06,0-.091,0" transform="translate(-78.74 -42.451)" fill="#43efd4"/>
        <rect id="Rectángulo_26624" data-name="Rectángulo 26624" width="37.187" height="1.633" transform="translate(112.696 94.425)" fill="#a9c2ff"/>
        <rect id="Rectángulo_26625" data-name="Rectángulo 26625" width="34.271" height="1.633" transform="translate(112.696 101.719)" fill="#a9c2ff"/>
        <rect id="Rectángulo_26626" data-name="Rectángulo 26626" width="10.137" height="1.633" transform="translate(139.745 98.072)" fill="#a9c2ff"/>
        <rect id="Rectángulo_26627" data-name="Rectángulo 26627" width="24.241" height="1.633" transform="translate(112.696 98.072)" fill="#a9c2ff"/>
        <path id="Trazado_153369" data-name="Trazado 153369" d="M153.151,140.789l-1.663.462-.343-1.32,2.482-.792h1.136v9.309h-1.611Z" transform="translate(-48.78 -44.905)" fill="#a9c2ff"/>
        <path id="Trazado_153370" data-name="Trazado 153370" d="M158.056,151.736a.588.588,0,1,1,.588.588.588.588,0,0,1-.588-.588" transform="translate(-51.01 -48.781)" fill="#a9c2ff"/>
        <path id="Trazado_153371" data-name="Trazado 153371" d="M257.31,189.432H240.571V172.693H257.31Zm-15.951-.788h15.163V173.481H241.359Z" transform="translate(-77.641 -55.734)" fill="#a8ccff"/>
        <path id="Trazado_153372" data-name="Trazado 153372" d="M250.518,184.7a1.185,1.185,0,0,1-.912-.429l-5.165-6.249a1.182,1.182,0,1,1,1.823-1.507l4.1,4.956,7.411-12.438a1.182,1.182,0,1,1,2.032,1.21l-8.269,13.88a1.184,1.184,0,0,1-.925.574c-.031,0-.06,0-.091,0" transform="translate(-78.802 -54.366)" fill="#43efd4"/>
        <path id="Trazado_153373" data-name="Trazado 153373" d="M151.038,184.1l3.159-2.688c1.259-1.062,1.718-1.652,1.718-2.477a1.376,1.376,0,0,0-1.481-1.429c-.839,0-1.416.459-2.124,1.376l-1.141-.891a3.761,3.761,0,0,1,3.382-1.927,2.753,2.753,0,0,1,3.029,2.767c0,1.442-.773,2.215-2.386,3.553l-1.888,1.573h4.366v1.416h-6.634Z" transform="translate(-48.745 -56.821)" fill="#a9c2ff"/>
        <path id="Trazado_153374" data-name="Trazado 153374" d="M162.446,188.665a.584.584,0,1,1,.584.584.584.584,0,0,1-.584-.584" transform="translate(-52.427 -60.7)" fill="#a9c2ff"/>
        <rect id="Rectángulo_26628" data-name="Rectángulo 26628" width="39.077" height="1.633" transform="translate(113.004 119.43)" fill="#a9c2ff"/>
        <rect id="Rectángulo_26629" data-name="Rectángulo 26629" width="36.013" height="1.633" transform="translate(113.004 126.724)" fill="#a9c2ff"/>
        <rect id="Rectángulo_26630" data-name="Rectángulo 26630" width="10.652" height="1.633" transform="translate(141.428 123.077)" fill="#a9c2ff"/>
        <rect id="Rectángulo_26631" data-name="Rectángulo 26631" width="25.473" height="1.633" transform="translate(113.004 123.077)" fill="#a9c2ff"/>
        <path id="Trazado_153375" data-name="Trazado 153375" d="M257.31,226.626H240.571V209.887H257.31Zm-15.951-.788h15.163V210.676H241.359Z" transform="translate(-77.641 -67.738)" fill="#a8ccff"/>
        <path id="Trazado_153376" data-name="Trazado 153376" d="M250.518,221.894a1.185,1.185,0,0,1-.912-.429l-5.165-6.249a1.182,1.182,0,0,1,1.823-1.507l4.1,4.956,7.411-12.438a1.182,1.182,0,0,1,2.032,1.21l-8.269,13.88a1.184,1.184,0,0,1-.925.574c-.031,0-.06,0-.091,0" transform="translate(-78.802 -66.37)" fill="#43efd4"/>
        <rect id="Rectángulo_26632" data-name="Rectángulo 26632" width="39.077" height="1.633" transform="translate(113.004 144.62)" fill="#a9c2ff"/>
        <rect id="Rectángulo_26633" data-name="Rectángulo 26633" width="36.013" height="1.633" transform="translate(113.004 151.915)" fill="#a9c2ff"/>
        <rect id="Rectángulo_26634" data-name="Rectángulo 26634" width="10.652" height="1.633" transform="translate(141.428 148.267)" fill="#a9c2ff"/>
        <rect id="Rectángulo_26635" data-name="Rectángulo 26635" width="25.473" height="1.633" transform="translate(113.004 148.267)" fill="#a9c2ff"/>
        <path id="Trazado_153377" data-name="Trazado 153377" d="M150.867,220.939l1.1-1.027a2.928,2.928,0,0,0,2.361,1.18,1.41,1.41,0,0,0,1.552-1.386c0-.885-.809-1.385-2.066-1.385h-.731l-.257-.988,2.425-2.579h-3.888v-1.373h5.94v1.18l-2.5,2.566c1.424.205,2.643.937,2.643,2.553a2.874,2.874,0,0,1-3.143,2.835,4.256,4.256,0,0,1-3.438-1.578" transform="translate(-48.69 -68.866)" fill="#a9c2ff"/>
        <path id="Trazado_153378" data-name="Trazado 153378" d="M161.252,225.755a.571.571,0,1,1,.571.571.571.571,0,0,1-.571-.571" transform="translate(-52.042 -72.675)" fill="#a9c2ff"/>
        <path id="Trazado_153379" data-name="Trazado 153379" d="M217.176,257.008a7.121,7.121,0,0,1-6.956-5.669.486.486,0,0,1,.953-.2,6.129,6.129,0,0,0,11.993.058.486.486,0,0,1,.951.2,7.134,7.134,0,0,1-6.941,5.6" transform="translate(-67.842 -80.928)" fill="#a9c2ff"/>
        <path id="Trazado_153380" data-name="Trazado 153380" d="M210.678,245.344a.486.486,0,0,1-.478-.579,7.1,7.1,0,0,1,13.856-.377.486.486,0,1,1-.943.237,6.128,6.128,0,0,0-11.958.325.486.486,0,0,1-.477.393" transform="translate(-67.836 -77.141)" fill="#a9c2ff"/>
        <path id="Trazado_153381" data-name="Trazado 153381" d="M215.686,254.788a10.092,10.092,0,1,1,10.093-10.093,10.1,10.1,0,0,1-10.093,10.093m0-18.8a8.71,8.71,0,1,0,8.71,8.71,8.72,8.72,0,0,0-8.71-8.71" transform="translate(-66.352 -75.715)" fill="#a9c2ff"/>
        <rect id="Rectángulo_26636" data-name="Rectángulo 26636" width="3.997" height="0.64" transform="translate(147.335 167.716)" fill="#a9c2ff"/>
        <rect id="Rectángulo_26637" data-name="Rectángulo 26637" width="3.997" height="0.64" transform="translate(147.335 170.335)" fill="#a9c2ff"/>
        <rect id="Rectángulo_26638" data-name="Rectángulo 26638" width="5.883" height="0.64" transform="translate(146.392 168.981)" fill="#a9c2ff"/>
        <path id="Trazado_153382" data-name="Trazado 153382" d="M123.818,184.391s.314-.707.518-1.042,1.073-1.316,1.221-1.094.74,1.717.426,2.135.02,1.147-1.545,1.587Z" transform="translate(-39.96 -58.81)" fill="#ffae73"/>
        <path id="Trazado_153383" data-name="Trazado 153383" d="M98.143,178.832s8.01,6.686,11.133,6.067a61.475,61.475,0,0,0,6.19-1.769l.75,1.917s-3.361,4.56-6.865,4.59a19.961,19.961,0,0,1-9.525-2.372Z" transform="translate(-31.674 -57.715)" fill="#667ee8"/>
        <path id="Trazado_153384" data-name="Trazado 153384" d="M77.4,282.388s.232,3.751.958,3.8c.1.007,3.68.007,3.68.007l4.576-.026a1.484,1.484,0,0,0-1.367-1.336c-1.338-.233-3.576-1.173-4.386-2.94-.852-1.86-3.461.49-3.461.49" transform="translate(-24.98 -90.747)" fill="#074a92"/>
        <path id="Trazado_153385" data-name="Trazado 153385" d="M77.012,261.281a9.543,9.543,0,0,0,2.477.465,9.1,9.1,0,0,0,2.312-.33,63.385,63.385,0,0,1,1.7-8.112c.756-2.924,1.835-6.685,3.369-11.357a153.8,153.8,0,0,0,5.652-21.183c.006-.037.009-.056.009-.056l-.014-.006-13.047-5.729s1.612,17.8-.445,24.629a28.8,28.8,0,0,0-.747,3.273c-1.3,7.421-1.269,18.407-1.269,18.407" transform="translate(-24.854 -69.379)" fill="#bf79fb"/>
        <path id="Trazado_153386" data-name="Trazado 153386" d="M84.459,253.3c.756-2.924,1.834-6.685,3.369-11.357a153.778,153.778,0,0,0,5.652-21.183c0-.022,0-.041,0-.063l-13.047-5.728s1.613,17.8-.444,24.629c-.289.954,4.475,13.7,4.475,13.7" transform="translate(-25.81 -69.379)" fill="#8e56be"/>
        <path id="Trazado_153387" data-name="Trazado 153387" d="M92.449,282.388s.232,3.751.958,3.8c.1.007,3.68.007,3.68.007l4.576-.026a1.484,1.484,0,0,0-1.367-1.336c-1.338-.233-3.576-1.173-4.386-2.94-.853-1.86-3.461.49-3.461.49" transform="translate(-29.837 -90.747)" fill="#074a92"/>
        <path id="Trazado_153388" data-name="Trazado 153388" d="M96.76,215.592a185.78,185.78,0,0,1-1.826,25.693c-2,14.16-1.319,20.171-1.319,20.171a13.551,13.551,0,0,1-1.924.489,8.73,8.73,0,0,1-2.855-.33S85.98,247.45,86.8,240.362s-3.911-24.321-3.911-24.321Z" transform="translate(-26.751 -69.579)" fill="#cf9bfc"/>
        <path id="Trazado_153389" data-name="Trazado 153389" d="M89.711,173.026l2.547,1.67,2.32-.656a5.542,5.542,0,0,0,.542-2.782,17.266,17.266,0,0,0-.091-1.852l-3.436-1.516-1.282-.566c0,.02.1,1.052.113,1.2a8.77,8.77,0,0,1-.713,4.5" transform="translate(-28.953 -54.002)" fill="#ffae73"/>
        <path id="Trazado_153390" data-name="Trazado 153390" d="M95.795,205.476c-3.17,3.061-15.167,2.546-15.907-.826s.807-28.707,6.221-30.3c1.124-.33,7.132,1.611,7.132,1.611a38.088,38.088,0,0,1,1.561,5.606c.12.611.47,7.086.732,13.142.122,2.832.226,5.575.278,7.582a21.862,21.862,0,0,1-.018,3.183" transform="translate(-25.727 -56.257)" fill="#899bfa"/>
        <path id="Trazado_153391" data-name="Trazado 153391" d="M91.1,168.845c.7,1.178,3.143,2.21,4.438,2.683a17.4,17.4,0,0,0-.091-1.852l-3.436-1.516c-.759-.01-1.221.16-.911.686" transform="translate(-29.369 -54.271)" fill="#ffa05e"/>
        <path id="Trazado_153392" data-name="Trazado 153392" d="M95.8,165.748s-5.537,1.727-6.559-1.737-2.426-5.575,1.066-6.824,4.572-.131,5.194.943,1.713,7.08.3,7.619" transform="translate(-28.425 -50.552)" fill="#ffae73"/>
        <path id="Trazado_153393" data-name="Trazado 153393" d="M94.134,156.894s-.353,4.031-1.187,3.856-1.751-.549-1.63.666-.811,3.3-2.013,3.294c-2.578-.011-5.38-6.626-4.674-7.881,2.037-3.62,12.446-4.351,9.5.066" transform="translate(-27.278 -49.65)" fill="#0b3563"/>
        <path id="Trazado_153394" data-name="Trazado 153394" d="M94.815,173.689c-.071-.03-4.121-1.847-4.6-1.69s-1.064,1.6-1.064,1.6l7.132,1.612a3.541,3.541,0,0,0-1.472-1.525" transform="translate(-28.774 -55.507)" fill="#667ee8"/>
        <path id="Trazado_153395" data-name="Trazado 153395" d="M122.911,202.434l-22.7,21.375c-.445.419-1.006.553-1.247.3l-.767-.814c-.241-.255-.074-.807.371-1.227l22.7-21.376c.445-.419,1.006-.552,1.247-.3l.767.814c.241.256.074.808-.371,1.227" transform="translate(-31.655 -64.632)" fill="#0b4d87"/>
        <path id="Trazado_153396" data-name="Trazado 153396" d="M110.17,220.35l-9.963,9.38c-.445.419-1.006.553-1.247.3l-.767-.814c-.241-.256-.074-.808.371-1.227l9.963-9.38Z" transform="translate(-31.655 -70.552)" fill="#6b98f6"/>
        <path id="Trazado_153397" data-name="Trazado 153397" d="M126.669,180.6a17.795,17.795,0,1,0,29.494-17.883c-.091-.091-.184-.181-.279-.269A17.8,17.8,0,0,0,126.669,180.6m5.086-16.424a16.391,16.391,0,1,1,.706,23.169,16.37,16.37,0,0,1-.706-23.169" transform="translate(-40.632 -50.867)" fill="#0b4d87"/>
        <g id="Grupo_89459" data-name="Grupo 89459" transform="translate(86.671 108.15)" opacity="0.5">
          <g id="Grupo_89458" data-name="Grupo 89458">
            <g id="Grupo_89457" data-name="Grupo 89457" clip-path="url(#clip-path-5)">
              <path id="Trazado_153398" data-name="Trazado 153398" d="M156.3,187.306a16.391,16.391,0,1,1-.706-23.167,16.326,16.326,0,0,1,.706,23.167" transform="translate(-127.972 -159.687)" fill="#accefc"/>
            </g>
          </g>
        </g>
        <path id="Trazado_153399" data-name="Trazado 153399" d="M98.007,205.711C85.5,196.8,86.538,184.9,86.538,184.9c4.572,2.578,9.109,8.28,11.191,13.226.122,2.833.226,5.575.278,7.583" transform="translate(-27.922 -59.674)" fill="#667ee8"/>
        <path id="Trazado_153400" data-name="Trazado 153400" d="M121,209.163a3.42,3.42,0,0,0,1.6-.987s.377.026-.062.828c-.037.068-.118.24-.179.362a.078.078,0,0,0,.066.112,8.315,8.315,0,0,1,2,.041c.135.028.175.353.169.491a1.247,1.247,0,0,1-.263.854,4.359,4.359,0,0,1-1.581.828,4.774,4.774,0,0,1-2.446-.307l-.8-.371.249-1.489.2.043c.32.067.715-.323,1.049-.405" transform="translate(-38.567 -67.186)" fill="#ffae73"/>
        <path id="Trazado_153401" data-name="Trazado 153401" d="M90.307,176.751s-11.241,2.14,3.307,18.418c2.326,2.6,14.9,5.993,14.9,5.993s1.275-1.085.632-1.963c0,0-8.654-6.285-10.559-7.284-.857-.45-3.325-10.031-4.721-12.338a6.3,6.3,0,0,0-3.556-2.825" transform="translate(-27.808 -57.044)" fill="#899bfa"/>
        <path id="Trazado_153402" data-name="Trazado 153402" d="M124.268,184.41a5.733,5.733,0,0,0,.44-1.073,5.926,5.926,0,0,1,.725-1.642c.077-.077.328.022.358.35a1.908,1.908,0,0,1-.18.71,8.064,8.064,0,0,0-.238,1.413c-.174.566-1.1.242-1.1.242" transform="translate(-40.106 -58.632)" fill="#ffae73"/>
        <path id="Trazado_153403" data-name="Trazado 153403" d="M179.083,278.543a4.449,4.449,0,0,0,.035.565,4.635,4.635,0,0,0,4.6,4.072h65.218a4.638,4.638,0,0,0,0-9.276H183.72a4.638,4.638,0,0,0-4.637,4.639" transform="translate(-57.796 -88.398)" fill="#25468f"/>
        <path id="Trazado_153404" data-name="Trazado 153404" d="M186.089,271.988h22.361a.712.712,0,1,0,0-1.424H186.089a.712.712,0,1,0,0,1.424" transform="translate(-59.828 -87.321)" fill="#25468f"/>
        <rect id="Rectángulo_26640" data-name="Rectángulo 26640" width="2.424" height="0.84" transform="translate(127.496 184.666)" fill="#1e3865"/>
        <path id="Trazado_153405" data-name="Trazado 153405" d="M179.914,284.028a4.645,4.645,0,0,0,4.074,2.419H197.8v-2.419Z" transform="translate(-58.065 -91.666)" fill="#1e3865"/>
        <path id="Trazado_153406" data-name="Trazado 153406" d="M266.323,277.184V279.9a3.277,3.277,0,0,1-3.278,3.279H195.109a3.274,3.274,0,0,1-3.278-3.279v-2.716a3.278,3.278,0,0,1,3.278-3.279h67.936a3.278,3.278,0,0,1,3.278,3.279" transform="translate(-61.911 -88.399)" fill="#cf9bfc"/>
        <path id="Trazado_153407" data-name="Trazado 153407" d="M266.263,284.028a3.278,3.278,0,0,1-3.164,2.419H195.164A3.279,3.279,0,0,1,192,284.028Z" transform="translate(-61.965 -91.666)" fill="#8e56be"/>
        <path id="Trazado_153408" data-name="Trazado 153408" d="M291.858,278.559a5.153,5.153,0,0,0,1.349,3.581l.055.057a3.293,3.293,0,0,0,2.328,1.016c1.375,0,4.784-2.075,6.9-3.453,1.052-.687,1.783-1.2,1.783-1.2s-.731-.513-1.783-1.2c-2.113-1.379-5.522-3.454-6.9-3.454a3.072,3.072,0,0,0-1.142.221,3.736,3.736,0,0,0-1.573,1.241,5.12,5.12,0,0,0-.944,2.27.235.235,0,0,0,0,.03,5.717,5.717,0,0,0-.069.893" transform="translate(-94.193 -88.398)" fill="#899bfa"/>
        <path id="Trazado_153409" data-name="Trazado 153409" d="M291.858,280.352a5.153,5.153,0,0,0,1.349,3.581l10.456-3.6-11.736-.876a5.718,5.718,0,0,0-.069.893" transform="translate(-94.193 -90.191)" fill="#667ee8"/>
        <path id="Trazado_153410" data-name="Trazado 153410" d="M293.36,275.472l10.431,2.849-8.859-4.089a3.736,3.736,0,0,0-1.573,1.241" transform="translate(-94.678 -88.504)" fill="#9cafff"/>
        <path id="Trazado_153411" data-name="Trazado 153411" d="M306.545,280.2a1.287,1.287,0,0,0,.681,1.2c1.052-.687,1.784-1.2,1.784-1.2s-.731-.513-1.784-1.2a1.285,1.285,0,0,0-.681,1.2" transform="translate(-98.933 -90.044)" fill="#122d4e"/>
        <path id="Trazado_153412" data-name="Trazado 153412" d="M327.3,155.349a3.938,3.938,0,0,0-3.112-.333c-5.285-.62-6.828,5.544-6.756,7.665s.314,4.4-2.047,7.155c-6.819,7.96,7.462,8.311,7.462,8.311.121-6.36,7.744-4.039,7.41-3.394,9.773,2.345.972-17.364-2.957-19.4" transform="translate(-101.192 -49.973)" fill="#0b3563"/>
        <path id="Trazado_153413" data-name="Trazado 153413" d="M301.09,192.058s-.929-1.415-1.679-1.443-2.136-.417-2.026-.139.971.3,1.054.471-1.276.417-1.665.444-1.3,0-1.276.194a4.415,4.415,0,0,0,2.8.888,7.77,7.77,0,0,1,2.56.333Z" transform="translate(-95.368 -61.441)" fill="#ffae73"/>
        <path id="Trazado_153414" data-name="Trazado 153414" d="M316.929,188.15a13.962,13.962,0,0,1-1.422,2.15,8.321,8.321,0,0,1-4.947,3.3,5.3,5.3,0,0,1-2.938-.477h0a13.408,13.408,0,0,1-4.551-3.8,2.135,2.135,0,0,1,.292-2.1s5.244,1.18,5.744.93,3.57-7.062,4.123-8.2a6.219,6.219,0,0,1,3.041-3.1Z" transform="translate(-97.763 -57.076)" fill="#006cff"/>
        <path id="Trazado_153415" data-name="Trazado 153415" d="M317.747,195.385a8.319,8.319,0,0,1-4.946,3.3,5.3,5.3,0,0,1-2.939-.477c.1.014,2.7.334,3.729-1.516,1.055-1.887,2.195-4.884,3.762-3.885.676.431.645,1.5.393,2.58" transform="translate(-100.003 -62.161)" fill="#0051bf"/>
        <path id="Trazado_153416" data-name="Trazado 153416" d="M349.729,276.789s1.6,1.46,1.288,2.5-1.757,1.73-1.952,3-.976,1.96-1.678,1.96h-3.349s-.517-.892.731-1.162,1.72-1.759,1.642-3.142a24.33,24.33,0,0,1,.117-3.228l2.654-.615Z" transform="translate(-110.999 -89.107)" fill="#074a92"/>
        <path id="Trazado_153417" data-name="Trazado 153417" d="M328.149,278.035s.576,6.187-.127,6.532l-8.991-.018s0-1.038,1.445-1.268,3.981-1.076,4.41-2.96,3.263-2.286,3.263-2.286" transform="translate(-102.963 -89.732)" fill="#074a92"/>
        <path id="Trazado_153418" data-name="Trazado 153418" d="M334.965,183.623a35.763,35.763,0,0,1,0,4.156c-.089,1.5-1.609,3.515-1.825,4.013-.541,1.249-1.151,1.451-1.151,1.451l-4.721,1.157-1.66.406-5.235-1.564s-2.384-6.654-1.426-10.4a28.774,28.774,0,0,1,2.42-6.347s3.548-1.4,9.833-.354Z" transform="translate(-102.863 -56.722)" fill="#006cff"/>
        <path id="Trazado_153419" data-name="Trazado 153419" d="M336.68,193.691a14.726,14.726,0,0,1-.443,3.4c-.541,1.248-1.151,1.451-1.151,1.451l-4.721,1.157-2.05-.6s6.844-1.038,6.086-6.926Z" transform="translate(-105.959 -62.02)" fill="#f8caa4"/>
        <path id="Trazado_153420" data-name="Trazado 153420" d="M320.338,203.069s-2.592,8.068-2.759,10.815,4.955,39.023,5.161,40.289c.194,1.193,1.676,1.954,1.676,1.954a2.246,2.246,0,0,0,1.655.127,4.1,4.1,0,0,0,1.776-.837s2.018-25.872.769-35.114a146.451,146.451,0,0,1-1.263-17.234Z" transform="translate(-102.493 -65.538)" fill="#667ee8"/>
        <path id="Trazado_153421" data-name="Trazado 153421" d="M333.043,202.714s3.954,5.305,4.323,8.892.578,16.183,1.363,19.679,3.671,10.225,3.671,21.129a2.174,2.174,0,0,1-1.226.958,9.967,9.967,0,0,1-1.078.3,1.694,1.694,0,0,1-1.9-.9c-1.951-3.927-8.165-16.6-8.483-19.225-.226-1.861-2.188-14.177-6.467-21.4-1.027-1.734.631-8.634.631-8.634Z" transform="translate(-104.216 -65.423)" fill="#899bfa"/>
        <path id="Trazado_153422" data-name="Trazado 153422" d="M320.973,201.23a5.438,5.438,0,0,0,3.108.865c2.469.049,8.588-.63,8.588-.63a5.071,5.071,0,0,1,.261,1.562s-7.473,1.885-11.8.275a2.737,2.737,0,0,1-.154-2.072" transform="translate(-103.542 -64.944)" fill="#1e3865"/>
        <path id="Trazado_153423" data-name="Trazado 153423" d="M324.22,204.433a1.285,1.285,0,1,1,1.127-1.275,1.209,1.209,0,0,1-1.127,1.275m0-2.177a.916.916,0,1,0,.753.9.839.839,0,0,0-.753-.9" transform="translate(-104.273 -65.155)" fill="#fff"/>
        <path id="Trazado_153424" data-name="Trazado 153424" d="M341.6,199.289l-6.068,5.284a1.052,1.052,0,0,1-1.485-.1l-7.743-8.892a1.053,1.053,0,0,1,.1-1.485l6.068-5.284a1.052,1.052,0,0,1,1.485.1l7.743,8.892a1.053,1.053,0,0,1-.1,1.485" transform="translate(-105.228 -60.852)" fill="#25468f"/>
        <path id="Trazado_153425" data-name="Trazado 153425" d="M334.226,203.421c-.086.023-3.223.391-3.224,1.04a1.95,1.95,0,0,0,1.786,1.707,10.284,10.284,0,0,0,1.969-1.508Z" transform="translate(-106.826 -65.651)" fill="#ffae73"/>
        <path id="Trazado_153426" data-name="Trazado 153426" d="M331.082,174a10.436,10.436,0,0,1-.56-3.816l-.237.047-3.985.79s.091,1.254.093,2.435v.029c.005,1.026-.692,2.056.953,2.463.509.126,4.486-.129,3.736-1.947" transform="translate(-105.293 -54.924)" fill="#ffae73"/>
        <path id="Trazado_153427" data-name="Trazado 153427" d="M326.324,171.043s.091,1.254.093,2.435c2.23-.063,3.409-2.1,3.892-3.224Z" transform="translate(-105.316 -54.947)" fill="#f48f4e"/>
        <path id="Trazado_153428" data-name="Trazado 153428" d="M324.387,168.829s5.276.087,5.279-3.2.687-5.489-2.681-5.683S322.96,161,322.693,162.1s.322,6.62,1.694,6.727" transform="translate(-104.124 -51.614)" fill="#ffae73"/>
        <path id="Trazado_153429" data-name="Trazado 153429" d="M325.512,159.519s1.445,3.856,3.661,4.426,3.179-.024,3.179-.024a6.276,6.276,0,0,1-2.053-3.709s-3.7-2.528-4.787-.693" transform="translate(-105.054 -51.267)" fill="#0b3563"/>
        <path id="Trazado_153430" data-name="Trazado 153430" d="M324.768,160a3.272,3.272,0,0,0-1.512,1.182,5.315,5.315,0,0,0-.713,3.017s-1.088-2.621.135-4.1c1.3-1.572,2.091-.1,2.091-.1" transform="translate(-103.952 -51.434)" fill="#0b3563"/>
        <path id="Trazado_153431" data-name="Trazado 153431" d="M334.748,203.333a3.6,3.6,0,0,0-1.254-.171c-.5.07-.874-.009-.874.131s.649.207.786.274a6.83,6.83,0,0,0,1.342-.234" transform="translate(-107.348 -65.563)" fill="#ffae73"/>
        <path id="Trazado_153432" data-name="Trazado 153432" d="M336.337,176.326a6.388,6.388,0,0,1,5.181,3.753c1.436,3.49,4.159,9.349,4.159,10.335s-1.521,4.024-9.693,5.772c0,0-.845-.889-.794-1.592,0,0,5.1-4.381,5.087-4.893-.026-.968-.836-2.248-5.315-6.727-1.218-1.218,1.374-6.647,1.374-6.647" transform="translate(-107.999 -56.907)" fill="#3389ff"/>
        <path id="Trazado_153433" data-name="Trazado 153433" d="M145.613,23.093s-3-.508-4.909.931-2.21.974-3.285,1.862.026,1.948-.567,2.54a1.214,1.214,0,0,0,.263,2.032c.879.3.286,1.905,2.192,2.116s1.052,1.094,2.858,1.228a15.905,15.905,0,0,1,4.254.6,1.5,1.5,0,0,0,2.088-.738c.272-.725,1.034.21,1.256-.782s-.572-1.382-.127-2.187,1.544-6.519-4.022-7.6" transform="translate(-44.03 -7.425)" fill="#1e3865"/>
        <path id="Trazado_153434" data-name="Trazado 153434" d="M157.574,105.1a.743.743,0,0,0-.127.8l0,0a4.927,4.927,0,0,0,1.571,1.7c.094.075.178.144.251.207.02.016.039.033.057.05l.043.039c.69.626.433.773,1.673,2.047,1.415,1.451,2.381,1.47,2.656,1.335.232-.115-.247-.887-.776-1.753-.026-.041-.051-.084-.077-.126-.071-.116-.141-.232-.211-.349-.622-1.043-.467-1.536-.333-3.1.109-1.269,1.921-7.094,1.921-7.094l-2.693-.444s-.777,4.635-1.665,5.354c-.475.383-1.009.391-1.466.677-.033.02-.064.04-.095.061a3.534,3.534,0,0,0-.732.6" transform="translate(-50.794 -31.761)" fill="#ffae73"/>
        <path id="Trazado_153435" data-name="Trazado 153435" d="M157.574,107.973a.743.743,0,0,0-.127.8l0,0a5.707,5.707,0,0,0,1.573,1.694c.093.077.176.147.249.213.02.016.039.033.057.05l.043.039c.69.626.433.773,1.673,2.047,1.415,1.451,2.381,1.47,2.656,1.335.232-.115-.247-.887-.776-1.753a5.983,5.983,0,0,1-2.516-1.826c-.853-1.073-1.426-2.455-2.007-3.254-.033.02-.064.04-.095.061a3.535,3.535,0,0,0-.732.6" transform="translate(-50.794 -34.634)" fill="#1e3865"/>
        <path id="Trazado_153436" data-name="Trazado 153436" d="M188.632,102.814c.172.829,1.355.683,2.675.35s1.008.054,2.889-.168,2.446-.927,2.5-1.208c.049-.249-.881-.33-1.879-.438l-.378-.043a8.144,8.144,0,0,1-2.984-1.444,11.95,11.95,0,0,1-2.435-2.852l-2.58.223s1.369,2.048,1.9,2.939a3.109,3.109,0,0,1,.266,1.757,3.328,3.328,0,0,0,.026.883" transform="translate(-60.171 -31.31)" fill="#ffae73"/>
        <path id="Trazado_153437" data-name="Trazado 153437" d="M192.331,105.232c1.32-.333,1.008.054,2.889-.168s2.446-.927,2.5-1.208c.049-.249-.881-.33-1.879-.438l-.009.019a5.3,5.3,0,0,1-2.689.857c-1.277.04-2.632-.316-3.514-.3a3.293,3.293,0,0,0,.026.882c.172.83,1.355.683,2.675.35" transform="translate(-61.195 -33.377)" fill="#1e3865"/>
        <path id="Trazado_153438" data-name="Trazado 153438" d="M170.725,79.352l-2.367,6.51-3.09,8.5a5.1,5.1,0,0,1-1.675-.141,7.269,7.269,0,0,1-1.624-.776s.811-9.11,2.4-14.346a9.316,9.316,0,0,1,1.383-3.047c2.509-3.008,4.968,3.3,4.968,3.3" transform="translate(-52.273 -24.282)" fill="#8e56be"/>
        <path id="Trazado_153439" data-name="Trazado 153439" d="M160.091,65.566c-1.584-.5-6.089.188-10.611,1.107l-.96-1.558-9.788-.695s-3.065,6.78-1.378,11.731c.328.96,1.894.994,1.895.994s5.734.063,7.625.049c4.865-.034,10.273-3.417,10.974-3.562,1.149-.238,1.625,2.059,2.792,4.466s10.886,10.619,10.886,10.619a8.5,8.5,0,0,0,2.1-.23,2.066,2.066,0,0,0,.9-.575s-10.855-21.221-14.428-22.346" transform="translate(-44.165 -20.791)" fill="#cf9bfc"/>
        <path id="Trazado_153440" data-name="Trazado 153440" d="M147.251,40.574a4.608,4.608,0,0,1-2.87.108,5.114,5.114,0,0,1-1.912-2.258c.494-.026,1.035-.463,1.433-3.3l.211.074,3.552,1.25s-.249,1.139-.407,2.223c-.133.91-.2,1.781-.008,1.908" transform="translate(-45.98 -11.334)" fill="#ffae73"/>
        <path id="Trazado_153441" data-name="Trazado 153441" d="M148.45,36.48s-.152.8-.362,1.938A4.138,4.138,0,0,1,144.9,35.23Z" transform="translate(-46.764 -11.37)" fill="#f9924f"/>
        <path id="Trazado_153442" data-name="Trazado 153442" d="M148.814,34.677s-4.852-.616-4.422-3.632.094-5.126,3.21-4.86,3.552,1.5,3.654,2.544-1.169,6.031-2.442,5.948" transform="translate(-46.592 -8.444)" fill="#ffae73"/>
        <path id="Trazado_153443" data-name="Trazado 153443" d="M150.4,26.951s-3.084,2.7-5.194,2.926-2.913-.442-2.913-.442a8.252,8.252,0,0,0,1.974-2.714,1.485,1.485,0,0,1,1.217-.884c1.506-.14,4.363-.22,4.916,1.113" transform="translate(-45.923 -8.315)" fill="#1e3865"/>
        <path id="Trazado_153444" data-name="Trazado 153444" d="M151.4,26.9a7.648,7.648,0,0,1,1.378,1.739,5.87,5.87,0,0,1,.181,3.118s1.595-3.157.668-4.678A1.292,1.292,0,0,0,151.4,26.9" transform="translate(-48.861 -8.492)" fill="#1e3865"/>
        <path id="Trazado_153445" data-name="Trazado 153445" d="M149.431,49.206c-.078,9.814.014,7.763-1.053,8.7a4.13,4.13,0,0,1-1.94.435c-3.007.221-8.3-.238-8.505-.792-.708-1.919-.222-2.52-.822-5.462-.063-.313-.14-.652-.23-1.02-.5-2.02-.972-2.7.718-5.967,1.533-2.955,3.13-5.356,3.275-5.27,4.115,2.4,4.431.356,4.431.356s4.163,4.233,4.125,9.02" transform="translate(-44.027 -12.854)" fill="#899bfa"/>
        <path id="Trazado_153446" data-name="Trazado 153446" d="M168.358,87.7l-3.09,8.5a5.1,5.1,0,0,1-1.675-.141,7.258,7.258,0,0,1-1.624-.777s.811-9.109,2.406-14.346Z" transform="translate(-52.273 -26.122)" fill="#cf9bfc"/>
        <path id="Trazado_153447" data-name="Trazado 153447" d="M149.542,40.356s4.222.685,4.73,2.5,3.5,12.465,3.5,12.465-2.141.4-3.138-.583-3.511-9.163-3.511-9.163Z" transform="translate(-48.262 -13.024)" fill="#899bfa"/>
        <path id="Trazado_153448" data-name="Trazado 153448" d="M146.769,62.232c-3.008.221-8.3-.238-8.505-.792-.708-1.919-.222-2.52-.822-5.461l1.423-4.1s-.208,4.552,1.143,5.74,5.511,2.272,6.171,3.267a3.665,3.665,0,0,1,.591,1.344" transform="translate(-44.357 -16.744)" fill="#667ee8"/>
        <path id="Trazado_153449" data-name="Trazado 153449" d="M146.1,64.145s2.963-.682,3.444-.422a6.968,6.968,0,0,1,1.807,1.544c.149.333-1.068-.246-1.463-.349a3.5,3.5,0,0,0-1.259.285,4.19,4.19,0,0,1-2.258.242Z" transform="translate(-47.153 -20.547)" fill="#ffae73"/>
        <path id="Trazado_153450" data-name="Trazado 153450" d="M138.466,39.827s-3.984.274-5.35,2.208c-1.923,2.723-5.7,14.3-3.476,15.82,2.5,1.716,11.321.374,11.321.374a3.584,3.584,0,0,0-.129-2.037c-.413-.662-7.066-1.688-7.375-1.993s3.791-6.008,3.785-6.928,1.224-7.444,1.224-7.444" transform="translate(-41.62 -12.854)" fill="#899bfa"/>
        <path id="Trazado_153451" data-name="Trazado 153451" d="M151.41,64.969a5.737,5.737,0,0,0,.832.892.6.6,0,0,0,.336.07l-.425-.751Z" transform="translate(-48.865 -20.968)" fill="#ffae73"/>
        <path id="Trazado_153452" data-name="Trazado 153452" d="M151.19,63.751l1.814.866a.323.323,0,0,1-.3.118,4.324,4.324,0,0,1-.786-.21Z" transform="translate(-48.794 -20.575)" fill="#ffae73"/>
        <path id="Trazado_153453" data-name="Trazado 153453" d="M152.068,63.037l14.3-.1L170.6,52.2l-14.282.1Z" transform="translate(-49.078 -16.848)" fill="#1e3865"/>
        <path id="Trazado_153454" data-name="Trazado 153454" d="M164.431,67.433l-18.89.133,0,.417,18.722-.132Z" transform="translate(-46.971 -21.763)" fill="#1e3865"/>
        <path id="Trazado_153455" data-name="Trazado 153455" d="M167.14,59.865a.5.5,0,0,0-.49-.678.976.976,0,0,0-.872.687.5.5,0,0,0,.49.678.975.975,0,0,0,.872-.687" transform="translate(-53.494 -19.102)" fill="#e8f2fa"/>
        <path id="Trazado_153456" data-name="Trazado 153456" d="M44.389,282.029H54.828c.559-.475-.387-1.552-1.376-1.625a6.082,6.082,0,0,0-1.593.189c-.144-1.908-.964-10.485-4.055-10.141-3.476.386,0,3.777.983,5.785a47.709,47.709,0,0,1,1.846,4.626c-.282.061-.574.121-.872.176-.461-1.415-2.175-6.174-4.355-5.9-2.56.324-1.531,2.232.283,3.365,1.332.832,2.966,2.016,3.743,2.589a11.123,11.123,0,0,1-2.041.163,4.4,4.4,0,0,0-3,.768" transform="translate(-14.158 -87.281)" fill="#9bd399"/>
        <path id="Trazado_153457" data-name="Trazado 153457" d="M372.633,281.405H361.084c-.619-.525.428-1.718,1.522-1.8a6.756,6.756,0,0,1,1.763.209c.158-2.111,1.067-11.6,4.487-11.219,3.846.427,0,4.179-1.087,6.4a52.708,52.708,0,0,0-2.043,5.119c.312.068.635.134.966.194.509-1.565,2.406-6.83,4.819-6.523,2.832.36,1.693,2.471-.314,3.724-1.473.921-3.281,2.231-4.141,2.863a12.214,12.214,0,0,0,2.259.181,4.87,4.87,0,0,1,3.319.85" transform="translate(-116.475 -86.682)" fill="#9bd399"/>
        <path id="Trazado_153458" data-name="Trazado 153458" d="M278.474,288.353H18.728a.432.432,0,0,1-.431-.431h0a.432.432,0,0,1,.431-.431H278.474a.431.431,0,0,1,0,.862" transform="translate(-5.905 -92.784)" fill="#1e3865"/>
      </g>
    </g>
  </g>
</svg>
