<svg id="Grupo_89347" data-name="Grupo 89347" xmlns="http://www.w3.org/2000/svg" xmlns:xlink="http://www.w3.org/1999/xlink" width="85.095" height="108.168" viewBox="0 0 85.095 108.168">
  <defs>
    <clipPath id="clip-path">
      <rect id="Rectángulo_26561" data-name="Rectángulo 26561" width="85.095" height="108.168" fill="none"/>
    </clipPath>
    <clipPath id="clip-path-3">
      <rect id="Rectángulo_26547" data-name="Rectángulo 26547" width="35.894" height="30.775" transform="translate(7.589 20.748)" fill="none"/>
    </clipPath>
    <clipPath id="clip-path-4">
      <rect id="Rectángulo_26551" data-name="Rectángulo 26551" width="0.735" height="0.365" transform="translate(8.246 63.695)" fill="none"/>
    </clipPath>
    <clipPath id="clip-path-5">
      <rect id="Rectángulo_26552" data-name="Rectángulo 26552" width="17.408" height="43.497" transform="translate(4.788 63.926)" fill="none"/>
    </clipPath>
    <clipPath id="clip-path-6">
      <rect id="Rectángulo_26553" data-name="Rectángulo 26553" width="6.413" height="36.146" transform="translate(3.031 38.825)" fill="none"/>
    </clipPath>
    <clipPath id="clip-path-7">
      <rect id="Rectángulo_26555" data-name="Rectángulo 26555" width="22.772" height="27.989" transform="translate(53.472 23.535)" fill="none"/>
    </clipPath>
    <clipPath id="clip-path-8">
      <rect id="Rectángulo_26556" data-name="Rectángulo 26556" width="3.171" height="5.023" transform="translate(66.411 28.251)" fill="none"/>
    </clipPath>
    <clipPath id="clip-path-9">
      <rect id="Rectángulo_26557" data-name="Rectángulo 26557" width="12.06" height="21.099" transform="translate(62.525 32.88)" fill="none"/>
    </clipPath>
    <clipPath id="clip-path-10">
      <rect id="Rectángulo_26558" data-name="Rectángulo 26558" width="6.379" height="2.78" transform="translate(66.877 80.629)" fill="none"/>
    </clipPath>
    <clipPath id="clip-path-11">
      <rect id="Rectángulo_26559" data-name="Rectángulo 26559" width="12.643" height="24.472" transform="translate(63.917 56.743)" fill="none"/>
    </clipPath>
  </defs>
  <g id="Grupo_89346" data-name="Grupo 89346" clip-path="url(#clip-path)">
    <g id="Grupo_89345" data-name="Grupo 89345">
      <g id="Grupo_89344" data-name="Grupo 89344" clip-path="url(#clip-path)">
        <path id="Trazado_152962" data-name="Trazado 152962" d="M82.23,50.654H10.457a2,2,0,0,1-2-2V2.87a2,2,0,0,1,2-2H82.23a2,2,0,0,1,2,2V48.658a2,2,0,0,1-2,2" fill="#fff"/>
        <path id="Trazado_152963" data-name="Trazado 152963" d="M82.227,0H10.457A2.874,2.874,0,0,0,7.589,2.868V48.656a2.871,2.871,0,0,0,2.868,2.868h71.77a2.866,2.866,0,0,0,2.867-2.868V2.868A2.87,2.87,0,0,0,82.227,0m1.126,48.656a1.127,1.127,0,0,1-1.126,1.126H10.457A1.127,1.127,0,0,1,9.33,48.656V2.868a1.127,1.127,0,0,1,1.127-1.126h71.77a1.127,1.127,0,0,1,1.126,1.126Z" fill="#acabb9"/>
        <rect id="Rectángulo_26471" data-name="Rectángulo 26471" width="68.351" height="0.58" transform="translate(12.168 8.767)" fill="#5589b9"/>
        <rect id="Rectángulo_26472" data-name="Rectángulo 26472" width="68.351" height="0.58" transform="translate(12.168 17.728)" fill="#5589b9"/>
        <rect id="Rectángulo_26473" data-name="Rectángulo 26473" width="68.351" height="0.581" transform="translate(12.168 26.688)" fill="#5589b9"/>
        <rect id="Rectángulo_26474" data-name="Rectángulo 26474" width="68.351" height="0.581" transform="translate(12.168 35.649)" fill="#5589b9"/>
        <rect id="Rectángulo_26475" data-name="Rectángulo 26475" width="68.351" height="0.58" transform="translate(12.168 44.611)" fill="#5589b9"/>
        <rect id="Rectángulo_26476" data-name="Rectángulo 26476" width="0.58" height="44.169" transform="translate(14.49 3.542)" fill="#5589b9"/>
        <rect id="Rectángulo_26477" data-name="Rectángulo 26477" width="0.58" height="44.169" transform="translate(35.532 3.542)" fill="#5589b9"/>
        <rect id="Rectángulo_26478" data-name="Rectángulo 26478" width="0.58" height="44.169" transform="translate(56.574 3.542)" fill="#5589b9"/>
        <rect id="Rectángulo_26479" data-name="Rectángulo 26479" width="0.58" height="44.169" transform="translate(77.617 3.542)" fill="#5589b9"/>
        <rect id="Rectángulo_26480" data-name="Rectángulo 26480" width="15.673" height="2.177" transform="translate(17.33 4.703)" fill="#5589b9"/>
        <rect id="Rectángulo_26481" data-name="Rectángulo 26481" width="15.673" height="2.177" transform="translate(38.507 4.703)" fill="#43efd4"/>
        <rect id="Rectángulo_26482" data-name="Rectángulo 26482" width="15.673" height="2.177" transform="translate(59.683 4.703)" fill="#e8c17d"/>
        <rect id="Rectángulo_26483" data-name="Rectángulo 26483" width="3.118" height="3.017" transform="translate(16.895 10.16)" fill="#e8c17d"/>
        <rect id="Rectángulo_26484" data-name="Rectángulo 26484" width="3.118" height="3.017" transform="translate(21.37 10.16)" fill="#e8c17d"/>
        <rect id="Rectángulo_26485" data-name="Rectángulo 26485" width="3.118" height="3.017" transform="translate(25.846 10.16)" fill="#e8c17d"/>
        <rect id="Rectángulo_26486" data-name="Rectángulo 26486" width="3.118" height="3.017" transform="translate(30.321 10.16)" fill="#43efd4"/>
        <rect id="Rectángulo_26487" data-name="Rectángulo 26487" width="3.118" height="3.017" transform="translate(16.895 13.934)" fill="#e8c17d"/>
        <rect id="Rectángulo_26488" data-name="Rectángulo 26488" width="3.118" height="3.017" transform="translate(21.37 13.934)" fill="#e8c17d"/>
        <rect id="Rectángulo_26489" data-name="Rectángulo 26489" width="3.118" height="3.017" transform="translate(16.895 19.138)" fill="#e8c17d"/>
        <rect id="Rectángulo_26490" data-name="Rectángulo 26490" width="3.118" height="3.017" transform="translate(21.37 19.138)" fill="#e8c17d"/>
        <rect id="Rectángulo_26491" data-name="Rectángulo 26491" width="3.118" height="3.017" transform="translate(25.846 19.138)" fill="#43efd4"/>
        <rect id="Rectángulo_26492" data-name="Rectángulo 26492" width="3.118" height="3.017" transform="translate(30.321 19.138)" fill="#e8c17d"/>
        <rect id="Rectángulo_26493" data-name="Rectángulo 26493" width="3.118" height="3.017" transform="translate(30.321 22.911)" fill="#5589b9"/>
        <rect id="Rectángulo_26494" data-name="Rectángulo 26494" width="3.118" height="3.017" transform="translate(16.895 28.115)" fill="#e8c17d"/>
        <rect id="Rectángulo_26495" data-name="Rectángulo 26495" width="3.118" height="3.017" transform="translate(30.321 28.115)" fill="#e8c17d"/>
        <rect id="Rectángulo_26496" data-name="Rectángulo 26496" width="3.118" height="3.017" transform="translate(16.895 31.889)" fill="#e8c17d"/>
        <rect id="Rectángulo_26497" data-name="Rectángulo 26497" width="3.118" height="3.017" transform="translate(21.37 31.889)" fill="#e8c17d"/>
        <rect id="Rectángulo_26498" data-name="Rectángulo 26498" width="3.118" height="3.017" transform="translate(16.895 37.093)" fill="#43efd4"/>
        <rect id="Rectángulo_26499" data-name="Rectángulo 26499" width="3.118" height="3.017" transform="translate(21.37 37.093)" fill="#e8c17d"/>
        <rect id="Rectángulo_26500" data-name="Rectángulo 26500" width="3.118" height="3.017" transform="translate(25.846 37.093)" fill="#43efd4"/>
        <rect id="Rectángulo_26501" data-name="Rectángulo 26501" width="3.118" height="3.017" transform="translate(30.321 37.093)" fill="#e8c17d"/>
        <rect id="Rectángulo_26502" data-name="Rectángulo 26502" width="3.118" height="3.017" transform="translate(30.321 40.866)" fill="#e8c17d"/>
        <rect id="Rectángulo_26503" data-name="Rectángulo 26503" width="3.118" height="3.017" transform="translate(38.071 10.16)" fill="#e8c17d"/>
        <rect id="Rectángulo_26504" data-name="Rectángulo 26504" width="3.118" height="3.017" transform="translate(42.547 10.16)" fill="#e8c17d"/>
        <rect id="Rectángulo_26505" data-name="Rectángulo 26505" width="3.118" height="3.017" transform="translate(51.497 10.16)" fill="#e8c17d"/>
        <rect id="Rectángulo_26506" data-name="Rectángulo 26506" width="3.118" height="3.017" transform="translate(38.071 13.934)" fill="#5589b9"/>
        <rect id="Rectángulo_26507" data-name="Rectángulo 26507" width="3.118" height="3.017" transform="translate(42.547 13.934)" fill="#e8c17d"/>
        <rect id="Rectángulo_26508" data-name="Rectángulo 26508" width="3.118" height="3.017" transform="translate(47.022 13.934)" fill="#e8c17d"/>
        <rect id="Rectángulo_26509" data-name="Rectángulo 26509" width="3.118" height="3.017" transform="translate(51.497 13.934)" fill="#e8c17d"/>
        <rect id="Rectángulo_26510" data-name="Rectángulo 26510" width="3.118" height="3.017" transform="translate(38.071 19.138)" fill="#e8c17d"/>
        <rect id="Rectángulo_26511" data-name="Rectángulo 26511" width="3.118" height="3.017" transform="translate(42.547 19.138)" fill="#43efd4"/>
        <rect id="Rectángulo_26512" data-name="Rectángulo 26512" width="3.118" height="3.017" transform="translate(47.022 19.138)" fill="#e8c17d"/>
        <rect id="Rectángulo_26513" data-name="Rectángulo 26513" width="3.118" height="3.017" transform="translate(51.497 19.138)" fill="#e8c17d"/>
        <rect id="Rectángulo_26514" data-name="Rectángulo 26514" width="3.118" height="3.017" transform="translate(47.022 22.911)" fill="#e8c17d"/>
        <rect id="Rectángulo_26515" data-name="Rectángulo 26515" width="3.118" height="3.017" transform="translate(51.497 22.911)" fill="#e8c17d"/>
        <rect id="Rectángulo_26516" data-name="Rectángulo 26516" width="3.118" height="3.017" transform="translate(51.497 28.115)" fill="#43efd4"/>
        <rect id="Rectángulo_26517" data-name="Rectángulo 26517" width="3.118" height="3.017" transform="translate(38.071 31.889)" fill="#e8c17d"/>
        <rect id="Rectángulo_26518" data-name="Rectángulo 26518" width="3.118" height="3.017" transform="translate(42.547 31.889)" fill="#e8c17d"/>
        <rect id="Rectángulo_26519" data-name="Rectángulo 26519" width="3.118" height="3.017" transform="translate(47.022 31.889)" fill="#5589b9"/>
        <rect id="Rectángulo_26520" data-name="Rectángulo 26520" width="3.118" height="3.017" transform="translate(38.071 37.093)" fill="#e8c17d"/>
        <rect id="Rectángulo_26521" data-name="Rectángulo 26521" width="3.118" height="3.017" transform="translate(42.547 37.093)" fill="#e8c17d"/>
        <rect id="Rectángulo_26522" data-name="Rectángulo 26522" width="3.118" height="3.017" transform="translate(51.497 37.093)" fill="#e8c17d"/>
        <rect id="Rectángulo_26523" data-name="Rectángulo 26523" width="3.118" height="3.017" transform="translate(38.071 40.866)" fill="#e8c17d"/>
        <rect id="Rectángulo_26524" data-name="Rectángulo 26524" width="3.118" height="3.017" transform="translate(47.022 40.866)" fill="#5589b9"/>
        <rect id="Rectángulo_26525" data-name="Rectángulo 26525" width="3.118" height="3.017" transform="translate(59.248 10.16)" fill="#e8c17d"/>
        <rect id="Rectángulo_26526" data-name="Rectángulo 26526" width="3.118" height="3.017" transform="translate(63.723 10.16)" fill="#e8c17d"/>
        <rect id="Rectángulo_26527" data-name="Rectángulo 26527" width="3.118" height="3.017" transform="translate(68.198 10.16)" fill="#43efd4"/>
        <rect id="Rectángulo_26528" data-name="Rectángulo 26528" width="3.118" height="3.017" transform="translate(72.674 10.16)" fill="#e8c17d"/>
        <rect id="Rectángulo_26529" data-name="Rectángulo 26529" width="3.118" height="3.017" transform="translate(59.248 13.934)" fill="#5589b9"/>
        <rect id="Rectángulo_26530" data-name="Rectángulo 26530" width="3.118" height="3.017" transform="translate(68.198 13.934)" fill="#e8c17d"/>
        <rect id="Rectángulo_26531" data-name="Rectángulo 26531" width="3.118" height="3.017" transform="translate(72.674 13.934)" fill="#e8c17d"/>
        <rect id="Rectángulo_26532" data-name="Rectángulo 26532" width="3.118" height="3.017" transform="translate(59.248 19.138)" fill="#e8c17d"/>
        <rect id="Rectángulo_26533" data-name="Rectángulo 26533" width="3.118" height="3.017" transform="translate(63.723 19.138)" fill="#5589b9"/>
        <rect id="Rectángulo_26534" data-name="Rectángulo 26534" width="3.118" height="3.017" transform="translate(72.674 19.138)" fill="#e8c17d"/>
        <rect id="Rectángulo_26535" data-name="Rectángulo 26535" width="3.118" height="3.017" transform="translate(59.248 22.911)" fill="#5589b9"/>
        <rect id="Rectángulo_26536" data-name="Rectángulo 26536" width="3.118" height="3.017" transform="translate(68.198 22.911)" fill="#e8c17d"/>
        <rect id="Rectángulo_26537" data-name="Rectángulo 26537" width="3.118" height="3.017" transform="translate(72.674 22.911)" fill="#e8c17d"/>
        <rect id="Rectángulo_26538" data-name="Rectángulo 26538" width="3.118" height="3.017" transform="translate(59.248 28.115)" fill="#e8c17d"/>
        <rect id="Rectángulo_26539" data-name="Rectángulo 26539" width="3.118" height="3.017" transform="translate(59.248 31.889)" fill="#e8c17d"/>
        <rect id="Rectángulo_26540" data-name="Rectángulo 26540" width="3.118" height="3.017" transform="translate(68.198 31.889)" fill="#e8c17d"/>
        <rect id="Rectángulo_26541" data-name="Rectángulo 26541" width="3.118" height="3.017" transform="translate(59.248 37.093)" fill="#e8c17d"/>
        <rect id="Rectángulo_26542" data-name="Rectángulo 26542" width="3.118" height="3.017" transform="translate(63.723 37.093)" fill="#e8c17d"/>
        <rect id="Rectángulo_26543" data-name="Rectángulo 26543" width="3.118" height="3.017" transform="translate(68.198 37.093)" fill="#e8c17d"/>
        <rect id="Rectángulo_26544" data-name="Rectángulo 26544" width="3.118" height="3.017" transform="translate(72.674 37.093)" fill="#43efd4"/>
        <rect id="Rectángulo_26545" data-name="Rectángulo 26545" width="3.118" height="3.017" transform="translate(59.248 40.866)" fill="#e8c17d"/>
        <rect id="Rectángulo_26546" data-name="Rectángulo 26546" width="3.118" height="3.017" transform="translate(72.674 40.866)" fill="#e8c17d"/>
        <g id="Grupo_89319" data-name="Grupo 89319" opacity="0.3">
          <g id="Grupo_89318" data-name="Grupo 89318">
            <g id="Grupo_89317" data-name="Grupo 89317" clip-path="url(#clip-path-3)">
              <path id="Trazado_152964" data-name="Trazado 152964" d="M43.323,20.984l-.052-.058a.532.532,0,0,0-.766-.029L39.08,24.061l-.36,0a.365.365,0,0,0-.267.116c-.018.029-.25.355-.482.685s-.464.662-.5.72a1.8,1.8,0,0,0-.122,1.382l.1.273-.238.232-.162-.244-.685.685-.081-.11c-.308.127-3.518,2.287-7.825,5.23-1.936-1.21-8.509-4.194-10.266-5.378L10.779,29.2,9.33,30l-1.567.859a.985.985,0,0,1-.174.11V48.655a2.87,2.87,0,0,0,2.867,2.868H26.338c-.064-.575-.128-1.155-.185-1.742-.459-4.237-.923-8.654-1.3-12.149,1.457.877,3.007,1.753,4.586,2.56a74.355,74.355,0,0,0,9.34-8.881l-.169-.233.523-.737-.128-.191.546-.743c.754.1,1.329-.122,2.24-1.184L43,26.789l.058-.058a.426.426,0,0,0-.029-.581l-.122-.133a.42.42,0,0,0-.522-.076l.139-.145a.559.559,0,0,0,.151-.36.5.5,0,0,0-.139-.348l-.146-.151a.488.488,0,0,0-.655-.041l.255-.278a.515.515,0,0,0,.012-.7l-.146-.151a.519.519,0,0,0-.365-.15.24.24,0,0,0-.07.017l1.927-1.9a.541.541,0,0,0-.023-.743" fill="#1d1d1b"/>
            </g>
          </g>
        </g>
        <path id="Trazado_152965" data-name="Trazado 152965" d="M38.289,29.29l-1.168,1.053c-.681-.73-1.34-1.479-2.028-2.2l1.132-1.021-.088-.27a1.747,1.747,0,0,1,.218-1.389c.07-.1,1.078-1.346,1.123-1.4l.5.583,1.284-1.158c1.141,1.167,1.855,2.036,2.81,3.187L40.723,28.1c-1.032,1.064-1.649,1.287-2.434,1.187" fill="#ff9d6d"/>
        <path id="Trazado_152966" data-name="Trazado 152966" d="M38.584,25.309a.662.662,0,0,1-.9-.019l-.076-.081a.606.606,0,0,1,.029-.857l4.311-3.585a.566.566,0,0,1,.8.027l.056.056a.528.528,0,0,1-.025.747Z" fill="#ff9d6d"/>
        <path id="Trazado_152967" data-name="Trazado 152967" d="M40.017,25.583a.646.646,0,0,1-.426.181.531.531,0,0,1-.4-.162l-.069-.074a.574.574,0,0,1,.06-.806L40.3,23.655a.6.6,0,0,1,.4-.168.491.491,0,0,1,.374.151l.142.151a.5.5,0,0,1-.053.7Z" fill="#ffae80"/>
        <path id="Trazado_152968" data-name="Trazado 152968" d="M40.718,26.53a.585.585,0,0,1-.822.011l-.069-.074a.521.521,0,0,1-.137-.4.633.633,0,0,1,.2-.409l.9-.834a.546.546,0,0,1,.767-.01l.143.152a.451.451,0,0,1,.12.352.559.559,0,0,1-.177.357Z" fill="#ffae80"/>
        <path id="Trazado_152969" data-name="Trazado 152969" d="M41.428,27.267a.474.474,0,0,1-.667-.031l-.06-.064a.469.469,0,0,1,.014-.665l.689-.641a.441.441,0,0,1,.623.029l.123.131a.409.409,0,0,1-.012.58Z" fill="#ffae80"/>
        <path id="Trazado_152970" data-name="Trazado 152970" d="M39.049,25.256l-.627.013a.345.345,0,0,0-.265.13l-.131.167a1.948,1.948,0,0,1-.621,2.625l.884,1.1L37.273,30.5c-.745-.792-1.46-1.61-2.21-2.4l.685-.571.477-.418-.089-.27a1.742,1.742,0,0,1,.219-1.389c.07-.1,1.077-1.346,1.123-1.4a.431.431,0,0,1,.288-.116l1.006-.016.676-.011a.388.388,0,0,1,.4.376l0,.127a.815.815,0,0,1-.8.841" fill="#ffae80"/>
        <path id="Trazado_152971" data-name="Trazado 152971" d="M37.787,30.223,35.8,27.105,34.1,28.644,36.522,31.8Z" fill="#e6dcdc"/>
        <path id="Trazado_152972" data-name="Trazado 152972" d="M16.981,26.741l-3.787,4.437c.119.338,6.62,5.309,13.769,8.913A84.384,84.384,0,0,0,37.352,31.2l-2.387-3.515c-.334.132-3.841,2.29-8.561,5.241-4.221-2.616-9.473-6.326-9.423-6.182" fill="#3389ff"/>
        <path id="Trazado_152973" data-name="Trazado 152973" d="M4.354,60.59l17.967-2.068C22.054,55.411,19.4,29.268,19.4,29.268l-2.2-.35-6.621-1.065S4.31,57.773,4.354,60.59" fill="#f6f6f6"/>
        <path id="Trazado_152974" data-name="Trazado 152974" d="M16.2,104.731c-.236.069-.576.2-.549,2.692h11.21c0-3.381-7.972-3.479-10.661-2.692" fill="#16191e"/>
        <rect id="Rectángulo_26548" data-name="Rectángulo 26548" width="11.21" height="1.031" transform="translate(15.655 107.137)" fill="#3c3c3b"/>
        <path id="Trazado_152975" data-name="Trazado 152975" d="M22.435,62.138,22.2,104.472l-6.542,2.665L14.3,68.024l-.012.163L11.7,107.421H4.789l.005-.284c0-.006.941-32.165.941-32.165l.249-8.556.053-1.66.087-2.618c0-.221.069-2.2.191-4.731H22.272c.1,2.09.163,4.539.163,4.731" fill="#0051bf"/>
        <path id="Trazado_152976" data-name="Trazado 152976" d="M6.313,57.423c0-.885-.032-1.214,0-1.661H22.2a6.926,6.926,0,0,1,0,1.661Z" fill="#343038"/>
        <rect id="Rectángulo_26549" data-name="Rectángulo 26549" width="1.864" height="1.328" transform="translate(15.648 55.928)" fill="#acabb9"/>
        <path id="Trazado_152977" data-name="Trazado 152977" d="M8.246,104.731c-1.91,0-3.456.2-3.456,2.692H11.7c0-2.6-1.547-2.692-3.456-2.692" fill="#16191e"/>
        <rect id="Rectángulo_26550" data-name="Rectángulo 26550" width="6.913" height="1.031" transform="translate(4.789 107.137)" fill="#3c3c3b"/>
        <g id="Grupo_89322" data-name="Grupo 89322" opacity="0.07">
          <g id="Grupo_89321" data-name="Grupo 89321">
            <g id="Grupo_89320" data-name="Grupo 89320" clip-path="url(#clip-path-4)">
              <path id="Trazado_152978" data-name="Trazado 152978" d="M8.246,63.695a7.187,7.187,0,0,0,.735.365c-.246-.125-.488-.245-.735-.365"/>
            </g>
          </g>
        </g>
        <g id="Grupo_89325" data-name="Grupo 89325" opacity="0.3" style="mix-blend-mode: multiply;isolation: isolate">
          <g id="Grupo_89324" data-name="Grupo 89324">
            <g id="Grupo_89323" data-name="Grupo 89323" clip-path="url(#clip-path-5)">
              <path id="Trazado_152979" data-name="Trazado 152979" d="M4.788,107.137c.01,0,2.568.286,2.568.286H11.7l2.583-39.239.009-.162,1.359,39.115,6.54-2.669h-.053A5.411,5.411,0,0,1,16.774,99.4l-1.6-31.2c.595-1.829,2.544-3.154,4.537-4.272-2.627,1.515-7.71,1.436-10.728.134,2.239,1.122,4.377,2.411,4.628,4.078L10.853,98.173a11.321,11.321,0,0,1-5.364,8.53l-.691.429Z" fill="#456f96"/>
            </g>
          </g>
        </g>
        <path id="Trazado_152980" data-name="Trazado 152980" d="M11.953,26.868l.545-5.517c2.354.278,5.51.595,6.07.554,0,0-.364,4.014-.371,5.751.371,4.518-4.853,4.349-6.244-.788" fill="#ff9d6d"/>
        <path id="Trazado_152981" data-name="Trazado 152981" d="M14.14,57.406v3.2a4.391,4.391,0,0,1-4.7,4.383l-3.407-.231-3-.209c-.064-4.806.18-12.65.407-20.021.075-2.421.15-4.789.209-6.983l-.1-1.7A5.051,5.051,0,0,1,3.9,34.49a4.13,4.13,0,0,0,.238-1.023c.163-1.932.587-.022.749-1.793,0-.012-.075-.923-.069-.934l4.939-2.5s.819-.389.819-.389l.3.046A13.185,13.185,0,0,1,11.76,30a54.324,54.324,0,0,1,2,12.143c.052.708.1,1.433.145,2.176.075,1.347.128,2.757.157,4.192a.719.719,0,0,1,.005.11c.006.15.006.295.006.435.012.406.024.812.029,1.219,0,.133.006.262.006.389,0,.336.012.667.012,1.005,0,.289.006.579.011.87v.528c.006,1.081.012,2.653.012,4.336" fill="#3389ff"/>
        <path id="Trazado_152982" data-name="Trazado 152982" d="M22.039,30.881l-.34-.206-2.3-1.407-.316-.05.587,31.431c.039,2.1.669,3.751,2.767,3.6l1.185-.184c-.267-3.111-1.543-31.6-1.58-33.179" fill="#3389ff"/>
        <path id="Trazado_152983" data-name="Trazado 152983" d="M15.93,33l1.426-.147.471-2.835-2.392.092Z" fill="#ea4a49"/>
        <path id="Trazado_152984" data-name="Trazado 152984" d="M16.815,30.047,18.781,32.3a10.3,10.3,0,0,0,.536-3.33l-1.133-1.23a2.1,2.1,0,0,1-1.369,2.305" fill="#dadada"/>
        <path id="Trazado_152985" data-name="Trazado 152985" d="M16.815,30.047l-2.429,2.81c-1.658-1.628-3.38-3.436-3.813-5l1.438-1.577c0,1.411,2.927,3.846,4.8,3.77" fill="#dadada"/>
        <path id="Trazado_152986" data-name="Trazado 152986" d="M15.93,33l1.426-.147.728,13.082-1.453,2.285L15.076,46.38Z" fill="#ea4a49"/>
        <path id="Trazado_152987" data-name="Trazado 152987" d="M13.9,44.32C12.689,40,9.7,32.033,9.7,32.033s1.9-.99,1.771-1.141l-2.093.074.379-2.722,1.921-1.6A62.769,62.769,0,0,1,13.9,44.32" fill="#456f96"/>
        <path id="Trazado_152988" data-name="Trazado 152988" d="M19.491,44.186a95.013,95.013,0,0,0,1.984-12.415s-1.8-.663-1.666-.814l1.518-.185-1.166-1.993-2.077-1.433c.513,4.993,1.28,11.315,1.407,16.84" fill="#456f96"/>
        <path id="Trazado_152989" data-name="Trazado 152989" d="M11.146,23.091a6.324,6.324,0,0,1-.792-2.672c-.476-5.386,2.689-5.007,4.678-5.246,2.337-.178,4.724,1.128,5.277,4.684a5.931,5.931,0,0,1-.181.669l1.006,1.9a.581.581,0,0,1-.32.819l-.5.2c.033.361.263,1.9.263,1.9.076.913-.147,2.375-1.371,2.411-3.526.1-5.048-1.371-5.172-4.47-.86,0-2.476.556-2.891-.2" fill="#ffae80"/>
        <path id="Trazado_152990" data-name="Trazado 152990" d="M12.029,25.441c2.85.413,1.182-3.547,1.182-3.547s.855.733,1.192,1.063c.588-.078.656-.009,1.184-.115-.24-3.545-1.42-6.121,3.735-5.666.97-.29-.335-3.386-4.9-2.581-2.664.47-4.724,2.121-4.753,4.826a7.432,7.432,0,0,0,2.359,6.02" fill="#2f2e29"/>
        <path id="Trazado_152991" data-name="Trazado 152991" d="M12.6,22.024c.1.84.933,1.723,1.483,1.654s.507-.779.412-1.62c-.063-.557-.124-1.327-.748-1.428-.547-.088-1.3.162-1.147,1.394" fill="#ffae80"/>
        <g id="Grupo_89328" data-name="Grupo 89328" opacity="0.3" style="mix-blend-mode: multiply;isolation: isolate">
          <g id="Grupo_89327" data-name="Grupo 89327">
            <g id="Grupo_89326" data-name="Grupo 89326" clip-path="url(#clip-path-6)">
              <path id="Trazado_152992" data-name="Trazado 152992" d="M5.985,66.416l.052-1.66-3-.209c-.064-4.807.18-12.649.406-20.021l4.482-5.7v14.86l.5,3.721,1.016,7.581-3.71,9.984Z" fill="#456f96"/>
            </g>
          </g>
        </g>
        <path id="Trazado_152993" data-name="Trazado 152993" d="M5.347,66.532a4.009,4.009,0,0,0-.229-.738c-.069-.23-.093-.473-.178-.7a4.138,4.138,0,0,0-1.208-1.744,1.77,1.77,0,0,0-2.291.412,2.007,2.007,0,0,0-.46.781L.222,66.824a2.853,2.853,0,0,0-.214,1.182A2.832,2.832,0,0,0,.4,69.028c.338.624.386.57.723,1.194a1.116,1.116,0,0,0,.244.339.833.833,0,0,0,.477.184c.012.028.026.055.037.083a.571.571,0,0,0,.106.2.311.311,0,0,0,.265.082A.592.592,0,0,0,2.513,71a.4.4,0,0,1,.108.191.513.513,0,0,0,.074.171.341.341,0,0,0,.261.1.849.849,0,0,0,.27-.034.333.333,0,0,0,.187-.127c.054.145.079.273.356.308a.466.466,0,0,0,.488-.629l-.624-1.642A2.139,2.139,0,0,1,3.468,67.8c.094-.481.269-.889.363-1.37a1.189,1.189,0,0,1,.345.989,3.347,3.347,0,0,0,.154,1.162.943.943,0,0,0,.491.486.3.3,0,0,0,.413-.31,6.485,6.485,0,0,1,.059-1.629,2.253,2.253,0,0,0,.054-.594" fill="#ffae80"/>
        <rect id="Rectángulo_26554" data-name="Rectángulo 26554" width="2.515" height="4.125" transform="translate(0.714 64.477) rotate(-89.043)" fill="#ededed"/>
        <path id="Trazado_152994" data-name="Trazado 152994" d="M6.3,47.732,8.587,35.248c0-6.413-5.841-6.008-6.832.236L.091,47.537.152,63.253H5.443Z" fill="#3389ff"/>
        <g id="Grupo_89331" data-name="Grupo 89331" opacity="0.3">
          <g id="Grupo_89330" data-name="Grupo 89330">
            <g id="Grupo_89329" data-name="Grupo 89329" clip-path="url(#clip-path-7)">
              <path id="Trazado_152995" data-name="Trazado 152995" d="M75.135,25.645a1.815,1.815,0,0,1-1.8,1.908,1.964,1.964,0,0,1-.617-.071,5.032,5.032,0,0,1-.308.952,17.885,17.885,0,0,1-1.442,2.1l.2.517s.394.444.919,1.15a11.49,11.49,0,0,1,2.634,5.391c.077.523.14,1.026.182,1.532.027.26.048.518.061.765.01.184.014.363.023.543.011.156.017.313.028.471.008.25.015.5.016.749l.006.28c0,.163.006.333.006.491l1.112,5.891a4.193,4.193,0,0,1,.087.9,1.93,1.93,0,0,1-.867,1.816c.03.124.059.249.089.375l.035.118H58.867a.477.477,0,0,1-.022-.08,6.654,6.654,0,0,1-.1-2.032,9.4,9.4,0,0,1,.295-1.579l.458-.273a.828.828,0,0,0-.023-.131c-.332-.214-.645-.421-.921-.614-.73-.1-1.676.049-2.106-.694l-1.237.228c.151.414,0,.753-.386.774l-.5-1.289.986-1.706-.3-.07-1.187.75c-.3.23-.521-.122-.187-.357l1.4-1.035,2.235.2L59.646,45.2l.262.047.314-5.332,4.117-.285a9.752,9.752,0,0,1,1.441-2.175c.256-.393.508-.747.762-1.078a10.691,10.691,0,0,0,1.128-2.9l-.157-.576-.245-.917-.078-.3c-.109.038-.209.074-.318.1-.67.023-1.278.12-1.722-.279a3.067,3.067,0,0,1-.39-1.935.431.431,0,0,0-.261-.409.373.373,0,0,1-.142-.621,3.1,3.1,0,0,0,.672-1.13,2.984,2.984,0,0,1-.079-.7,3.04,3.04,0,0,1-1.006.405,4.907,4.907,0,0,0,.427-1.2,3.018,3.018,0,0,1,2.373-1.834,4.742,4.742,0,0,1,4.248-.1,3.011,3.011,0,0,1,.906.628,1.978,1.978,0,0,1,1.23-.548,1.833,1.833,0,0,1,2.007,1.58" fill="#1d1d1b"/>
            </g>
          </g>
        </g>
        <path id="Trazado_152996" data-name="Trazado 152996" d="M58.127,47.236a2,2,0,0,1-.353,2.064,2.41,2.41,0,0,0-.327-1.684c-.14-.223-.321-.5-.179-.72a.4.4,0,0,1,.51-.1.835.835,0,0,1,.349.437" fill="#ffae80"/>
        <path id="Trazado_152997" data-name="Trazado 152997" d="M68.3,56.257l-10.321.078.048-15.579,10.322-.078Z" fill="#acabb9"/>
        <path id="Trazado_152998" data-name="Trazado 152998" d="M57.843,48.12l.873.02a.873.873,0,0,1,.844.748l.214,1.483a.8.8,0,0,1-.425.82l-1.2.608a.646.646,0,0,1-.9-.34,5.029,5.029,0,0,1-.047-3.037Z" fill="#ffae80"/>
        <path id="Trazado_152999" data-name="Trazado 152999" d="M57.706,46.042l-2.911-1.613-2.119.118-1.12,1.941L52.33,47.7c.448-.011.586-.319.353-.706l1.418-.182c.583.7,1.653.586,2.489.69Z" fill="#ffae80"/>
        <path id="Trazado_153000" data-name="Trazado 153000" d="M54.795,44.429l-2.741-.293-1.557.98c-.37.223-.035.575.29.363l1.334-.7,2.482.558Z" fill="#ffae80"/>
        <path id="Trazado_153001" data-name="Trazado 153001" d="M69.6,38.1l1.219,11.376a1.835,1.835,0,1,0,3.629-.4L73.873,37.65c-.462-3.792-4.563-2.676-4.276.447" fill="#32b39f"/>
        <path id="Trazado_153002" data-name="Trazado 153002" d="M65.538,22.292c.256-.675.356-1.486.944-1.9a3.721,3.721,0,0,0-3.511,2.476,7.237,7.237,0,0,1-.6,1.806,3.787,3.787,0,0,0,3.168-2.378" fill="#21201d"/>
        <path id="Trazado_153003" data-name="Trazado 153003" d="M66.008,29.03l.2.923.205.97.239,1.155.253,1.2.342,1.626,4.374-3.143-1.6-6.294Z" fill="#ffae80"/>
        <path id="Trazado_153004" data-name="Trazado 153004" d="M67.27,33.227c-1.435,5.815-4.251,5.618-4.58,8.9-.239,2.383,2.259,3.3,2.259,3.3a31.308,31.308,0,0,1,1.061,8.552s7.185-1.344,7.674-1.466c-1.191-3.39.9-7.055.9-13.225,0-3.329-3.054-7.9-3.054-7.9s-4.026.913-4.256,1.846" fill="#ffae80"/>
        <path id="Trazado_153005" data-name="Trazado 153005" d="M62.525,42.13a2.2,2.2,0,0,0,0,.429c.088,2.061,2.428,2.863,2.428,2.863.007.231.014.456.027.673.007.089.007.171.014.252a1.752,1.752,0,0,0,.007.191c.007.19.02.367.034.551.014.244.034.482.048.721.006.061.006.108.013.156.055.592.123,1.136.2,1.66.007.074.021.143.028.217.183,1.266.421,2.476.687,4.136.5-.075,7.21-1.354,7.679-1.463a6.453,6.453,0,0,1-.259-1.04c-.027-.143-.04-.286-.061-.429-.007-.1-.013-.2-.02-.3a8.073,8.073,0,0,1-.014-.986c0-.191.021-.368.034-.558.041-.531.123-1.082.218-1.653.054-.354.122-.707.183-1.061.034-.177.062-.354.1-.537a42.916,42.916,0,0,0,.619-4.326c.027-.245.04-.5.054-.762.034-.51.048-1.027.048-1.571a12.744,12.744,0,0,0-2.17-6.414c-.007-.014-.68.251-1.388.516,0,0-3.237.837-6.4,5.075-1.027,1.176-1.918,1.938-2.1,3.659" fill="#32b39f"/>
        <g id="Grupo_89334" data-name="Grupo 89334" opacity="0.3" style="mix-blend-mode: multiply;isolation: isolate">
          <g id="Grupo_89333" data-name="Grupo 89333">
            <g id="Grupo_89332" data-name="Grupo 89332" clip-path="url(#clip-path-8)">
              <path id="Trazado_153006" data-name="Trazado 153006" d="M66.411,30.923l.239,1.155.253,1.2a7.672,7.672,0,0,0,1.647-1.428,6.76,6.76,0,0,0,1.032-3.6A8.031,8.031,0,0,1,66.7,30.766c-.1.055-.191.109-.287.157" fill="#ffae80"/>
            </g>
          </g>
        </g>
        <path id="Trazado_153007" data-name="Trazado 153007" d="M62.952,26.909a4.14,4.14,0,0,0,.934-1.57c-1.59-7.855,14.464-5.264,8.421,3l-1.549-.165a5.407,5.407,0,0,1-4.6,3.6c-.843-.056-1.625-.014-2.189-.6a4.621,4.621,0,0,1-.485-2.712.7.7,0,0,0-.349-.63.588.588,0,0,1-.188-.925" fill="#ffae80"/>
        <path id="Trazado_153008" data-name="Trazado 153008" d="M71.3,30.747a25.739,25.739,0,0,0,2.116-2.663,6.379,6.379,0,0,0,.81-2.8,4.984,4.984,0,0,0-1.915-4.08c-3.069-2.255-6.24-1.118-6.875.032,0,0-.937.419.658,3.005.933,1.514,2.491,1.7,3,3.8.917,3.751,2.2,2.709,2.2,2.709" fill="#21201d"/>
        <path id="Trazado_153009" data-name="Trazado 153009" d="M72.508,24.215a2.416,2.416,0,1,0,2.6-2.42,2.52,2.52,0,0,0-2.6,2.42" fill="#21201d"/>
        <path id="Trazado_153010" data-name="Trazado 153010" d="M68.256,27.208c-.207.8-.327,1.3.207,1.437a1.676,1.676,0,0,0,1.669-1.233,1.146,1.146,0,0,0-.8-1.475c-.535-.138-.865.469-1.072,1.271" fill="#ffae80"/>
        <path id="Trazado_153011" data-name="Trazado 153011" d="M68.451,28.419a.39.39,0,1,0,.475-.28.39.39,0,0,0-.475.28" fill="#fff"/>
        <g id="Grupo_89337" data-name="Grupo 89337" opacity="0.5" style="mix-blend-mode: multiply;isolation: isolate">
          <g id="Grupo_89336" data-name="Grupo 89336">
            <g id="Grupo_89335" data-name="Grupo 89335" clip-path="url(#clip-path-9)">
              <path id="Trazado_153012" data-name="Trazado 153012" d="M62.525,42.559c.088,2.061,2.428,2.864,2.428,2.864.166,3.982.287,3.752,1.055,8.556.5-.075,7.21-1.353,7.679-1.462-.671-2.011-.29-4.043.177-6.564a42.833,42.833,0,0,0,.619-4.326c.027-.245.04-.5.054-.762.034-.51.048-1.027.048-1.571a12.748,12.748,0,0,0-2.17-6.414c2.1,5.659-.878,6.843-4.034,7.87l-2.088,3.965a5.626,5.626,0,0,1-3.768-2.156" fill="#ea4a49"/>
            </g>
          </g>
        </g>
        <path id="Trazado_153013" data-name="Trazado 153013" d="M67.823,47.861,57.707,46.042a12.228,12.228,0,0,0-1.117,1.463c2.909,1.621,8.547,4.054,10.453,4.226,2.248.289,3.045-3.358.78-3.87" fill="#32b39f"/>
        <path id="Trazado_153014" data-name="Trazado 153014" d="M68.912,37.644l-3.3,11.512c-.85,2.352,2.658,4.037,3.675,1.045l3.951-11.3c1.048-3.859-3.368-4.4-4.322-1.253" fill="#32b39f"/>
        <path id="Trazado_153015" data-name="Trazado 153015" d="M75.665,60.672c-.157,6.054-.627,13.815-2.183,18.831a17.445,17.445,0,0,1-.6,1.677c-.064.151-.128.3-.2.441a1.868,1.868,0,0,1-.017.2,3.139,3.139,0,0,1-.389,1.312c-1.1,1.967-4.168,1.665-5.068-.715a3.719,3.719,0,0,1-.191-.714L67,81.621c-.046-.325-.087-.661-.121-.992-.029-.273-.064-.546-.082-.824a67.045,67.045,0,0,1,.738-19.133Z" fill="#ffae80"/>
        <path id="Trazado_153016" data-name="Trazado 153016" d="M72.746,101.88c1.376,3.181.157,3.7.139,6.287H71.713l.017-2.032-1.01,1.352a1.709,1.709,0,0,1-1.364.68h-5.12c-1.207-.569,1.271-1.08,2.833-2.131a.581.581,0,0,1,.052-.058c.366-.389,2.5-2.74,2.577-4.1.175-3.059-1.364-12.735-2.107-17.187-.22-1.312-.371-2.165-.383-2.27a5.5,5.5,0,0,1-.023-.673,3.107,3.107,0,0,1,.192-1.1,1.734,1.734,0,0,1,.679-.906,2.385,2.385,0,0,1,2-.087,6.549,6.549,0,0,1,2.177,1.266s.041.075.116.22.186.383.314.679c.174.418.383.947.592,1.585.1.3.2.627.29.975a19.763,19.763,0,0,1,.6,3.209c.36,3.594-1.939,13.05-1.4,14.286" fill="#ffae80"/>
        <path id="Trazado_153017" data-name="Trazado 153017" d="M76.559,80.989a14.929,14.929,0,0,1-3.68.191l-.528-.034c-1.684-.134-3.332-.412-4.975-.494-.169-.011-.337-.023-.5-.023a12.51,12.51,0,0,0-2.961.232c0-.307,0-.615.006-.929.1-8.863,2.084-25.831,2.09-25.953l7.674-1.468a25.409,25.409,0,0,1,2.055,3.459c.1.262.185.517.261.772a12.592,12.592,0,0,1-.337,7.819,86.437,86.437,0,0,0,.308,9.259c.261,3.814.586,7.169.586,7.169" fill="#5589b9"/>
        <path id="Trazado_153018" data-name="Trazado 153018" d="M72.746,101.881c-.012-.027-.106-.019-.242.007a2.363,2.363,0,0,0-1.649,1.276l-.838,1.684a2.093,2.093,0,0,1-1.934,1.159l-.962-.027-.052.055c-1.562,1.053-4.038,1.561-2.832,2.133h5.117a1.707,1.707,0,0,0,1.364-.682l1.012-1.35-.016,2.032h1.167c.024-2.588,1.242-3.106-.135-6.287" fill="#32b39f"/>
        <g id="Grupo_89340" data-name="Grupo 89340" opacity="0.3" style="mix-blend-mode: multiply;isolation: isolate">
          <g id="Grupo_89339" data-name="Grupo 89339">
            <g id="Grupo_89338" data-name="Grupo 89338" clip-path="url(#clip-path-10)">
              <path id="Trazado_153019" data-name="Trazado 153019" d="M73.256,83.41l-.981-.273L67.184,81.75l-.168-.041L67,81.622c-.046-.325-.087-.662-.121-.993.162,0,.33.012.5.024,1.643.081,3.291.36,4.974.493l.529.035c-.064.151-.128.3-.2.441a1.85,1.85,0,0,1-.017.2c.174.418.383.946.592,1.585" fill="#ffae80"/>
            </g>
          </g>
        </g>
        <g id="Grupo_89343" data-name="Grupo 89343" opacity="0.3" style="mix-blend-mode: multiply;isolation: isolate">
          <g id="Grupo_89342" data-name="Grupo 89342">
            <g id="Grupo_89341" data-name="Grupo 89341" clip-path="url(#clip-path-11)">
              <path id="Trazado_153020" data-name="Trazado 153020" d="M76.559,80.989a14.929,14.929,0,0,1-3.68.191l-.528-.034c-1.684-.134-3.332-.412-4.975-.494-.169-.011-.337-.023-.5-.023a12.51,12.51,0,0,0-2.961.232c4.009-2,9.137-.646,10.685-2.049.648-4.38.58-10.352-1.206-14.367,1.968-.922,2.366-4.194,2.607-7.7a12.592,12.592,0,0,1-.337,7.819,86.437,86.437,0,0,0,.308,9.259c.261,3.814.586,7.169.586,7.169" fill="#456f96"/>
            </g>
          </g>
        </g>
      </g>
    </g>
  </g>
</svg>
